<svg width="208" height="72" viewBox="0 0 208 72" fill="none" xmlns="http://www.w3.org/2000/svg">
<path d="M35.4313 0.00586104C15.8912 0.00586104 0 15.9186 0 35.4733C0 55.0399 15.8971 70.9585 35.4313 70.9585C54.9655 70.9585 70.8626 55.0458 70.8626 35.4733C70.8626 15.9127 54.9655 -8.98614e-05 35.4313 0.00586104ZM35.4313 4.46308C52.5408 4.46308 66.4114 18.3466 66.4114 35.4792C66.4114 52.6178 52.5408 66.5132 35.4313 66.5132C18.3218 66.5132 4.44526 52.6119 4.44526 35.4733C4.44526 18.3466 18.3159 4.46308 35.4313 4.46308ZM31.4258 16.0376C30.7305 16.0376 30.1719 16.597 30.1719 17.2992V24.1844H26.2555C26.2555 27.0111 27.5451 29.5521 29.5538 31.2362C29.5895 31.2779 30.1719 31.7183 30.3977 31.867C33.6485 34.2712 34.1714 35.5804 34.1714 40.2757V53.1058C30.8553 42.5846 21.4359 35.2412 9.97806 36.0327C9.97806 50.1125 21.3586 61.5204 35.4016 61.5442H35.461C49.5099 61.5144 60.8965 50.1066 60.8965 36.0327C49.4327 35.2412 40.0192 42.5846 36.7031 53.1058V40.2757C36.7031 35.5804 37.2261 34.2712 40.4649 31.867C40.6907 31.7183 41.1543 31.3671 41.1602 31.3671C41.2078 31.3195 41.2672 31.2779 41.3207 31.2362C43.3294 29.5521 44.6071 27.0111 44.6071 24.1844H40.7026V17.2992C40.7026 16.597 40.144 16.0376 39.4309 16.0376C38.7534 16.0376 38.1829 16.597 38.1829 17.2992V24.1844H32.6857V17.2992C32.6857 16.591 32.1152 16.0316 31.4258 16.0376Z" fill="#F6EFFF"/>
<path d="M83.2713 30.5637V33.801H88.9408V38.0618H83.2713V41.4003H89.2498V45.6671H78.2437V26.2969H89.2498V30.5577" fill="#F6EFFF"/>
<path d="M102.746 26.2969H108.98L101.284 35.4672L109.675 45.6671H103.162L96.6725 37.2644H96.619V45.6671H91.5913V26.2969H96.619V34.289H96.6725" fill="#F6EFFF"/>
<path d="M112.468 35.646C112.468 38.9844 114.929 41.4302 117.93 41.4302C120.931 41.4302 123.397 38.9904 123.397 35.646C123.397 32.974 120.937 30.5341 117.93 30.5341C114.929 30.5341 112.468 32.974 112.468 35.646ZM128.633 35.6162C128.633 41.8825 124.14 46.304 117.93 46.304C111.726 46.304 107.233 41.8885 107.233 35.6162C107.233 29.7605 112.361 25.6484 117.93 25.6484C123.498 25.6484 128.633 29.7605 128.633 35.6162Z" fill="#F6EFFF"/>
<path d="M139.354 41.9417C138.724 42.7987 137.886 43.4354 136.65 43.4354C135.188 43.4354 134.101 42.5011 133.798 41.055H142.587V39.8649C142.587 35.9432 140.364 33.4141 136.828 33.4141C133.043 33.4141 130.006 35.9432 130.006 39.8649C130.006 43.7865 133.037 46.3156 136.828 46.3156C138.795 46.3156 140.792 45.4289 142.005 43.8876L139.354 41.9417ZM133.798 38.4723C133.899 37.2822 134.808 36.1455 136.472 36.1455C137.839 36.1455 138.819 37.2048 138.795 38.4723H133.798ZM144.031 46.0121H147.817V39.8946C147.817 38.2998 148.12 36.7585 150.087 36.7585C152.03 36.7585 152.054 38.5794 152.054 39.9958V46.0121H155.846V39.2341C155.846 35.9432 155.138 33.4141 151.299 33.4141C149.457 33.4141 148.221 34.4257 147.716 35.3838H147.668V33.7176H144.031V46.0121ZM166.501 41.9417C165.871 42.7987 165.039 43.4354 163.797 43.4354C162.335 43.4354 161.248 42.5011 160.945 41.055H169.734V39.8649C169.734 35.9432 167.511 33.4141 163.975 33.4141C160.19 33.4141 157.159 35.9432 157.159 39.8649C157.159 43.7865 160.19 46.3156 163.975 46.3156C165.948 46.3156 167.939 45.4289 169.152 43.8876L166.501 41.9417ZM160.95 38.4723C161.051 37.2822 161.961 36.1455 163.625 36.1455C164.986 36.1455 165.972 37.2048 165.948 38.4723H160.95ZM171.184 46.0121H174.97V40.8765C174.97 38.4247 175.32 36.7525 178.203 36.7525C178.755 36.7525 179.29 36.8537 179.819 37.0084V33.545C179.462 33.4438 178.987 33.42 178.553 33.42C176.889 33.42 175.825 34.1996 175.017 35.6933H174.97V33.7235H171.184V46.0121ZM193.387 33.7176H189.904V35.3362H189.857C189.274 34.4495 187.812 33.4141 185.667 33.4141C182.184 33.4141 180.063 36.5502 180.063 39.8113C180.063 43.5247 182.464 46.1609 186.101 46.1609C187.236 46.1609 188.704 45.7324 189.559 44.5423H189.613V45.7324C189.613 47.4761 188.525 48.7376 186.225 48.7376C184.686 48.7376 183.397 48.1307 182.238 47.1428L180.14 50.2789C181.911 51.6953 184.128 52.0761 186.303 52.0761C191.051 52.0761 193.398 49.6005 193.398 44.9707L193.387 33.7176ZM183.842 39.7875C183.842 38.1927 185.156 36.7525 186.873 36.7525C188.591 36.7525 189.904 38.1927 189.904 39.7875C189.904 41.3823 188.591 42.8224 186.873 42.8224C185.156 42.8224 183.842 41.3823 183.842 39.7875ZM208 33.7176H204.107L201.403 41.8346H201.356L198.2 33.7176H194.112L199.49 46.1074L199.211 46.8155C198.682 48.1545 198.402 48.8864 196.685 48.8864C196.055 48.8864 195.496 48.7614 194.92 48.5055L194.415 51.6179C195.324 51.9214 196.281 52.0701 197.243 52.0701C200.857 52.0701 201.433 50.6062 202.443 47.9997" fill="#F6EFFF"/>
<path d="M78.3506 56.9322H76.6569V55.7539H81.3874V56.9322H79.6937V61.7167H78.3506V56.9322" fill="#F6EFFF"/>
<path d="M82.1302 55.7539H83.4674V57.9379H85.9872V55.7539H87.3303V61.7167H85.9872V59.1102H83.4674V61.7167H82.1302V55.7539Z" fill="#F6EFFF"/>
<path d="M88.5545 55.7539H92.6194V56.9322H89.8917V58.1105H92.4649V59.2828H89.8917V60.5444H92.768V61.7167H88.5486L88.5545 55.7539Z" fill="#F6EFFF"/>
<path d="M96.2802 55.7539H100.345V56.9322H97.6174V58.1105H100.191V59.2828H97.6174V60.5444H100.494V61.7167H96.2743L96.2802 55.7539Z" fill="#F6EFFF"/>
<path d="M106.579 59.4256C106.555 59.8184 106.526 60.11 106.419 60.4075C106.276 60.7467 106.157 60.9609 105.943 61.1811C105.723 61.4489 105.468 61.5739 105.153 61.6989C104.826 61.8298 104.475 61.8834 104.065 61.8834C103.602 61.8953 103.281 61.8239 102.966 61.6989C102.645 61.5799 102.389 61.4013 102.181 61.1811C101.962 61.0085 101.813 60.7051 101.706 60.4075C101.551 60.1457 101.546 59.7827 101.546 59.4256V55.7539H102.883V59.4018C102.835 59.6339 102.912 59.7648 102.972 59.9255C103.019 60.0862 103.109 60.223 103.215 60.3421C103.293 60.5206 103.447 60.5504 103.59 60.6158C103.721 60.717 103.893 60.711 104.065 60.711C104.19 60.717 104.392 60.6813 104.535 60.6158C104.677 60.5861 104.802 60.4611 104.903 60.3421C104.945 60.2885 105.087 60.0862 105.147 59.9255C105.194 59.7708 105.23 59.5922 105.23 59.4018V55.7539H106.573L106.579 59.4256Z" fill="#F6EFFF"/>
<path d="M107.691 55.7539H109.984C110.246 55.7599 110.573 55.7837 110.84 55.8432C111.054 55.9443 111.345 56.0039 111.547 56.1407C111.72 56.2836 111.916 56.468 112.035 56.7001C112.094 56.956 112.219 57.2297 112.219 57.5808C112.166 58.0629 112.112 58.3664 111.892 58.6639C111.666 58.9853 111.363 59.1519 110.947 59.2292L112.457 61.7108H110.87L109.658 59.3602H109.028V61.7108H107.691V55.7539ZM109.028 58.2712H109.788C109.866 58.295 110.026 58.2652 110.157 58.2592C110.258 58.2771 110.4 58.2235 110.507 58.1759C110.597 58.1878 110.698 58.0629 110.769 57.9677C110.805 57.932 110.876 57.7415 110.876 57.569C110.87 57.4678 110.846 57.2833 110.781 57.1881C110.68 57.1464 110.644 57.0215 110.549 56.9679C110.43 56.9798 110.347 56.8846 110.228 56.8667C110.056 56.8786 109.99 56.837 109.878 56.837H109.034V58.2712" fill="#F6EFFF"/>
<path d="M112.902 58.7354C112.885 58.2593 112.98 57.8249 113.14 57.4322C113.271 57.0811 113.526 56.7121 113.812 56.4384C114.043 56.2063 114.442 55.9564 114.84 55.8076C115.232 55.7124 115.666 55.5874 116.129 55.5874C116.563 55.6469 117.027 55.6588 117.425 55.8076C117.811 56.0099 118.162 56.1646 118.447 56.4384C118.72 56.7538 118.958 57.0454 119.125 57.4322C119.243 57.8606 119.362 58.2534 119.362 58.7354C119.303 59.2174 119.285 59.6519 119.125 60.0387C118.917 60.4552 118.738 60.7587 118.447 61.0325C118.144 61.336 117.817 61.5145 117.425 61.6633C117.027 61.8299 116.599 61.8835 116.129 61.8835C115.624 61.8954 115.232 61.8121 114.84 61.6633C114.442 61.5383 114.103 61.3062 113.812 61.0325C113.467 60.7885 113.301 60.4255 113.14 60.0387C112.95 59.6757 112.902 59.2115 112.902 58.7354ZM114.245 58.7354C114.24 59.027 114.287 59.2889 114.376 59.5269C114.418 59.7649 114.59 59.9732 114.757 60.1517C114.881 60.3838 115.125 60.4671 115.357 60.5624C115.541 60.7111 115.844 60.7052 116.129 60.7052C116.379 60.7111 116.676 60.6576 116.908 60.5624C117.11 60.5147 117.336 60.3243 117.502 60.1517C117.639 60.0327 117.799 59.7649 117.888 59.5269C117.948 59.2889 118.019 59.0211 118.019 58.7354C118.013 58.4557 117.978 58.1879 117.888 57.9499C117.77 57.7059 117.675 57.4976 117.502 57.3251C117.306 57.1584 117.14 57.0097 116.908 56.9144C116.646 56.8311 116.421 56.7657 116.129 56.7657C115.808 56.8311 115.589 56.8133 115.357 56.9144C115.083 57.0275 114.923 57.1465 114.757 57.3251C114.549 57.5095 114.465 57.7119 114.376 57.9499C114.24 58.1879 114.245 58.4498 114.245 58.7354Z" fill="#F6EFFF"/>
<path d="M120.171 55.7539H122.369C122.672 55.7599 122.964 55.7837 123.237 55.8372C123.481 55.9384 123.748 55.9919 123.95 56.1288C124.152 56.2776 124.313 56.4502 124.438 56.6822C124.527 56.9381 124.616 57.2 124.616 57.5511C124.586 57.8962 124.556 58.1879 124.449 58.4199C124.301 58.6937 124.188 58.8425 123.998 58.9793C123.79 59.1698 123.576 59.2174 123.314 59.2709C122.999 59.3483 122.768 59.3602 122.459 59.3602H121.52V61.7108H120.182L120.171 55.7539ZM121.508 58.2712H122.363C122.476 58.295 122.589 58.2593 122.696 58.2355C122.756 58.2474 122.898 58.1759 122.987 58.1224C123.059 58.0748 123.142 57.9974 123.195 57.9022C123.231 57.8189 123.273 57.688 123.273 57.5511C123.231 57.3964 123.237 57.2774 123.172 57.1821C123.094 57.1464 123.017 57.0155 122.91 56.9679C122.75 56.9798 122.684 56.8846 122.554 56.8727C122.358 56.8905 122.298 56.8489 122.173 56.8489H121.514L121.508 58.2712Z" fill="#F6EFFF"/>
<path d="M125.602 55.7539H129.667V56.9322H126.94V58.1105H129.513V59.2828H126.94V60.5444H129.816V61.7167H125.596V55.7539" fill="#F6EFFF"/>
<path d="M132.841 55.7539H133.922L136.507 61.7167H135.028L134.517 60.4611H132.211L131.718 61.7167H130.273L132.841 55.7539ZM133.346 57.5154L132.627 59.3602H134.077L133.346 57.5154Z" fill="#F6EFFF"/>
<path d="M137.013 55.7539H138.807L141.357 59.8957H141.375V55.7539H142.718V61.7167H140.988L138.374 57.4678H138.356V61.7167H137.019L137.013 55.7539Z" fill="#F6EFFF"/>
<path d="M146.408 55.7539H150.473V56.9322H147.745V58.1105H150.318V59.2828H147.745V60.5444H150.622V61.7167H146.402L146.408 55.7539Z" fill="#F6EFFF"/>
<path d="M155.519 57.2477C155.364 57.1287 155.233 56.974 155.043 56.8907C154.859 56.8252 154.639 56.7657 154.395 56.7657C154.104 56.8311 153.92 56.8133 153.712 56.9144C153.486 57.0275 153.32 57.1465 153.165 57.3251C152.975 57.5095 152.892 57.7119 152.803 57.9499C152.672 58.1939 152.672 58.4557 152.672 58.7354C152.666 59.027 152.714 59.2889 152.803 59.5269C152.844 59.7649 153.011 59.9732 153.159 60.1517C153.278 60.3838 153.486 60.4671 153.694 60.5624C153.884 60.7111 154.116 60.7052 154.354 60.7052C154.586 60.7111 154.859 60.6516 155.067 60.5386C155.263 60.485 155.447 60.2648 155.578 60.0684L156.666 60.8778C156.398 61.2348 156.095 61.4728 155.709 61.6395C155.299 61.8299 154.924 61.8835 154.52 61.8835C154.033 61.8954 153.629 61.8121 153.237 61.6633C152.791 61.5383 152.512 61.3062 152.226 61.0325C151.894 60.7885 151.727 60.4255 151.567 60.0387C151.382 59.6757 151.335 59.2115 151.335 58.7354C151.317 58.2593 151.412 57.8249 151.567 57.4322C151.697 57.0811 151.947 56.7121 152.226 56.4384C152.458 56.2063 152.844 55.9564 153.237 55.8076C153.569 55.7124 154.057 55.5874 154.52 55.5874C154.663 55.6469 154.859 55.6053 155.043 55.635C155.222 55.7064 155.406 55.7124 155.578 55.7778C155.709 55.9028 155.923 55.9266 156.089 56.0397C156.232 56.1884 156.398 56.2837 156.529 56.4384L155.519 57.2477Z" fill="#F6EFFF"/>
<path d="M157.082 58.7354C157.064 58.2593 157.159 57.8249 157.319 57.4322C157.45 57.0811 157.706 56.7121 157.991 56.4384C158.223 56.2063 158.621 55.9564 159.019 55.8076C159.411 55.7124 159.845 55.5874 160.309 55.5874C160.742 55.6469 161.206 55.6588 161.604 55.8076C161.99 56.0099 162.341 56.1646 162.626 56.4384C162.9 56.7538 163.137 57.0454 163.304 57.4322C163.423 57.8606 163.541 58.2534 163.541 58.7354C163.482 59.2174 163.464 59.6519 163.304 60.0387C163.096 60.4552 162.917 60.7587 162.626 61.0325C162.323 61.336 161.996 61.5145 161.604 61.6633C161.206 61.8299 160.778 61.8835 160.309 61.8835C159.803 61.8954 159.411 61.8121 159.019 61.6633C158.621 61.5383 158.282 61.3062 157.991 61.0325C157.646 60.7885 157.48 60.4255 157.319 60.0387C157.129 59.6757 157.082 59.2115 157.082 58.7354ZM158.425 58.7354C158.419 59.027 158.466 59.2889 158.555 59.5269C158.597 59.7649 158.769 59.9732 158.936 60.1517C159.061 60.3838 159.304 60.4671 159.536 60.5624C159.72 60.7111 160.023 60.7052 160.309 60.7052C160.558 60.7111 160.855 60.6576 161.087 60.5624C161.289 60.5147 161.515 60.3243 161.681 60.1517C161.818 60.0327 161.978 59.7649 162.068 59.5269C162.127 59.2889 162.198 59.0211 162.198 58.7354C162.192 58.4557 162.157 58.1879 162.068 57.9499C161.949 57.7059 161.854 57.4976 161.681 57.3251C161.485 57.1584 161.319 57.0097 161.087 56.9144C160.826 56.8311 160.6 56.7657 160.309 56.7657C159.988 56.8311 159.768 56.8133 159.536 56.9144C159.263 57.0275 159.102 57.1465 158.936 57.3251C158.728 57.5095 158.645 57.7119 158.555 57.9499C158.419 58.1879 158.425 58.4498 158.425 58.7354Z" fill="#F6EFFF"/>
<path d="M164.439 55.7539H165.782V60.5444H168.207V61.7167H164.445L164.439 55.7539Z" fill="#F6EFFF"/>
<path d="M170.881 55.7539H171.962L174.547 61.7167H173.068L172.557 60.4611H170.251L169.757 61.7167H168.313L170.881 55.7539ZM171.386 57.5154L170.667 59.3602H172.117L171.386 57.5154Z" fill="#F6EFFF"/>
<path d="M175.053 55.7539H177.293C177.537 55.7599 177.816 55.7718 178.078 55.8075C178.327 55.8967 178.577 55.9205 178.791 56.0277C178.945 56.1824 179.171 56.2954 179.302 56.4978C179.403 56.718 179.498 56.9619 179.498 57.2892C179.468 57.6523 179.397 57.9141 179.201 58.1402C178.939 58.3664 178.737 58.527 178.416 58.6222V58.6401C178.553 58.6996 178.803 58.7175 178.963 58.8008C179.082 58.9257 179.266 58.9853 179.385 59.1102C179.444 59.2411 179.593 59.378 179.652 59.5446C179.706 59.7708 179.747 59.8838 179.747 60.0743C179.706 60.4016 179.682 60.6456 179.545 60.8538C179.367 61.08 179.236 61.2288 179.022 61.3537C178.809 61.5323 178.571 61.5739 178.303 61.6274C178.012 61.7108 177.769 61.7108 177.507 61.7108H175.059L175.053 55.7539ZM176.39 58.1878H177.335C177.4 58.2414 177.531 58.1759 177.626 58.1521C177.662 58.1878 177.816 58.0867 177.887 58.0391C177.947 58.0212 178.03 57.9141 178.078 57.8248C178.107 57.7772 178.149 57.6284 178.149 57.5035C178.107 57.3904 178.125 57.2655 178.072 57.1821C178.006 57.1524 177.953 57.0274 177.87 56.9798C177.774 56.9917 177.691 56.8965 177.59 56.8786C177.436 56.8846 177.382 56.8489 177.281 56.8489H176.396L176.39 58.1878ZM176.39 60.6277H177.543C177.602 60.6634 177.745 60.6158 177.846 60.592C177.941 60.6158 178.042 60.5325 178.125 60.473C178.179 60.4373 178.274 60.348 178.327 60.2587C178.345 60.1933 178.404 60.0624 178.404 59.9315C178.345 59.7946 178.369 59.6815 178.303 59.5982C178.214 59.5565 178.149 59.4435 178.042 59.4018C177.935 59.4018 177.822 59.3245 177.703 59.3066C177.561 59.3007 177.471 59.2828 177.37 59.2828H176.396L176.39 60.6277Z" fill="#F6EFFF"/>
<path d="M180.681 55.7539H184.745V56.9322H182.018V58.1105H184.591V59.2828H182.018V60.5444H184.894V61.7167H180.675L180.681 55.7539Z" fill="#F6EFFF"/>
<path d="M185.833 55.7539H187.176V60.5444H189.601V61.7167H185.839L185.833 55.7539Z" fill="#F6EFFF"/>
<path d="M77.2632 65.8706H81.2806V67.0489H78.6063V68.3105H81.0844V69.4828H78.6063V71.8334H77.2632V65.8706Z" fill="#F6EFFF"/>
<path d="M81.9935 68.8521C81.9756 68.376 82.0707 67.9416 82.2312 67.5489C82.3619 67.1978 82.6175 66.8288 82.9027 66.5551C83.1345 66.323 83.5327 66.0731 83.9308 65.9243C84.3231 65.8291 84.7569 65.7041 85.2204 65.7041C85.6543 65.7636 86.1178 65.7755 86.516 65.9243C86.9023 66.1266 87.2529 66.2813 87.5381 66.5551C87.8115 66.8705 88.0492 67.1621 88.2156 67.5489C88.3345 67.9773 88.4533 68.3701 88.4533 68.8521C88.3939 69.3341 88.3761 69.7686 88.2156 70.1554C88.0076 70.5719 87.8293 70.8754 87.5381 71.1492C87.2351 71.4527 86.9082 71.6312 86.516 71.78C86.1178 71.9466 85.6899 72.0002 85.2204 72.0002C84.7153 72.0121 84.3231 71.9288 83.9308 71.78C83.5327 71.655 83.1939 71.4229 82.9027 71.1492C82.558 70.9052 82.3916 70.5422 82.2312 70.1554C82.041 69.7924 81.9935 69.3282 81.9935 68.8521ZM83.3365 68.8521C83.3306 69.1437 83.3781 69.4056 83.4673 69.6436C83.5089 69.8816 83.6812 70.0899 83.8476 70.2684C83.9724 70.5005 84.2161 70.5838 84.4479 70.6791C84.6321 70.8278 84.9352 70.8219 85.2204 70.8219C85.47 70.8278 85.7672 70.7743 85.9989 70.6791C86.201 70.6314 86.4268 70.441 86.5932 70.2684C86.7299 70.1494 86.8904 69.8816 86.9795 69.6436C87.0389 69.4056 87.1103 69.1378 87.1103 68.8521C87.1043 68.5724 87.0687 68.3046 86.9795 68.0666C86.8607 67.8226 86.7656 67.6143 86.5932 67.4418C86.3971 67.2751 86.2307 67.1264 85.9989 67.0311C85.7375 66.9478 85.5116 66.8824 85.2204 66.8824C84.8995 66.9478 84.6796 66.93 84.4479 67.0311C84.1745 67.1442 84.014 67.2632 83.8476 67.4418C83.6396 67.6262 83.5564 67.8286 83.4673 68.0666C83.3306 68.3046 83.3365 68.5665 83.3365 68.8521Z" fill="#F6EFFF"/>
<path d="M89.2617 65.8706H91.5557C91.8171 65.8766 92.144 65.9004 92.4114 65.9599C92.6254 66.061 92.9166 66.1206 93.1186 66.2574C93.291 66.4003 93.4871 66.5847 93.6059 66.8168C93.6654 67.0727 93.7902 67.3464 93.7902 67.6975C93.7367 68.1796 93.6832 68.4831 93.4633 68.7806C93.2375 69.102 92.9344 69.2686 92.5184 69.346L94.0279 71.8275H92.4412L91.2288 69.4769H90.5989V71.8275H89.2617V65.8706ZM90.5989 68.3879H91.3595C91.4368 68.4117 91.5973 68.3819 91.728 68.376C91.829 68.3938 91.9717 68.3402 92.0786 68.2926C92.1678 68.3045 92.2688 68.1796 92.3401 68.0844C92.3758 68.0487 92.4471 67.8582 92.4471 67.6857C92.4411 67.5845 92.4174 67.4 92.352 67.3048C92.251 67.2631 92.2153 67.1382 92.1202 67.0846C92.0014 67.0965 91.9182 67.0013 91.7993 66.9834C91.627 66.9953 91.5616 66.9537 91.4487 66.9537H90.6048L90.5989 68.3879Z" fill="#F6EFFF"/>
<path d="M97.2728 65.8706H101.338V67.0489H98.6099V68.2272H101.183V69.3995H98.6099V70.6611H101.486V71.8334H97.2668L97.2728 65.8706Z" fill="#F6EFFF"/>
<path d="M102.621 65.8706H103.964V70.6611H106.389V71.8334H102.627L102.621 65.8706Z" fill="#F6EFFF"/>
<path d="M106.977 65.8706H111.042V67.0489H108.315V68.2272H110.888V69.3995H108.315V70.6611H111.191V71.8334H106.971L106.977 65.8706Z" fill="#F6EFFF"/>
<path d="M116.094 67.3644C115.939 67.2454 115.808 67.0907 115.618 67.0074C115.434 66.9419 115.214 66.8824 114.97 66.8824C114.679 66.9478 114.495 66.93 114.287 67.0311C114.061 67.1442 113.895 67.2632 113.74 67.4418C113.55 67.6262 113.467 67.8286 113.378 68.0666C113.247 68.3106 113.247 68.5724 113.247 68.8521C113.241 69.1437 113.289 69.4056 113.378 69.6436C113.419 69.8816 113.586 70.0899 113.734 70.2684C113.853 70.5005 114.061 70.5838 114.269 70.6791C114.459 70.8278 114.691 70.8219 114.929 70.8219C115.161 70.8278 115.434 70.7683 115.642 70.6553C115.838 70.6017 116.022 70.3815 116.153 70.1851L117.241 70.9945C116.973 71.3515 116.67 71.5895 116.284 71.7562C115.874 71.9466 115.499 72.0002 115.095 72.0002C114.608 72.0121 114.204 71.9288 113.812 71.78C113.366 71.655 113.087 71.4229 112.801 71.1492C112.468 70.9052 112.302 70.5422 112.142 70.1554C111.957 69.7924 111.91 69.3282 111.91 68.8521C111.892 68.376 111.987 67.9416 112.142 67.5489C112.272 67.1978 112.522 66.8288 112.801 66.5551C113.033 66.323 113.419 66.0731 113.812 65.9243C114.144 65.8291 114.632 65.7041 115.095 65.7041C115.238 65.7636 115.434 65.722 115.618 65.7517C115.796 65.8231 115.981 65.8291 116.153 65.8945C116.284 66.0195 116.498 66.0433 116.664 66.1564C116.807 66.3051 116.973 66.4004 117.104 66.5551L116.094 67.3644Z" fill="#F6EFFF"/>
<path d="M119.166 67.0489H117.473V65.8706H122.203V67.0489H120.509V71.8334H119.166V67.0489" fill="#F6EFFF"/>
<path d="M122.744 65.8706H125.038C125.299 65.8766 125.626 65.9004 125.893 65.9599C126.107 66.061 126.399 66.1206 126.601 66.2574C126.773 66.4003 126.969 66.5847 127.088 66.8168C127.147 67.0727 127.272 67.3464 127.272 67.6975C127.219 68.1796 127.165 68.4831 126.945 68.7806C126.72 69.102 126.416 69.2686 126 69.346L127.51 71.8275H125.923L124.711 69.4769H124.081V71.8275H122.744V65.8706ZM124.081 68.3879H124.842C124.919 68.4117 125.079 68.3819 125.21 68.376C125.311 68.3938 125.454 68.3402 125.561 68.2926C125.65 68.3045 125.751 68.1796 125.822 68.0844C125.858 68.0487 125.929 67.8582 125.929 67.6857C125.923 67.5845 125.899 67.4 125.834 67.3048C125.733 67.2631 125.697 67.1382 125.602 67.0846C125.483 67.0965 125.4 67.0013 125.281 66.9834C125.109 66.9953 125.044 66.9537 124.931 66.9537H124.087L124.081 68.3879Z" fill="#F6EFFF"/>
<path d="M128.294 65.8706H129.632V71.8334H128.294V65.8706Z" fill="#F6EFFF"/>
<path d="M134.516 67.3644C134.362 67.2454 134.231 67.0907 134.041 67.0074C133.857 66.9419 133.637 66.8824 133.393 66.8824C133.102 66.9478 132.918 66.93 132.71 67.0311C132.484 67.1442 132.318 67.2632 132.163 67.4418C131.973 67.6262 131.89 67.8286 131.801 68.0666C131.67 68.3106 131.67 68.5724 131.67 68.8521C131.664 69.1437 131.711 69.4056 131.801 69.6436C131.842 69.8816 132.009 70.0899 132.157 70.2684C132.276 70.5005 132.484 70.5838 132.692 70.6791C132.882 70.8278 133.114 70.8219 133.352 70.8219C133.583 70.8278 133.857 70.7683 134.065 70.6553C134.261 70.6017 134.445 70.3815 134.576 70.1851L135.663 70.9945C135.396 71.3515 135.093 71.5895 134.707 71.7562C134.297 71.9466 133.922 72.0002 133.518 72.0002C133.031 72.0121 132.627 71.9288 132.234 71.78C131.789 71.655 131.509 71.4229 131.224 71.1492C130.891 70.9052 130.725 70.5422 130.564 70.1554C130.38 69.7924 130.333 69.3282 130.333 68.8521C130.315 68.376 130.41 67.9416 130.564 67.5489C130.695 67.1978 130.945 66.8288 131.224 66.5551C131.456 66.323 131.842 66.0731 132.234 65.9243C132.567 65.8291 133.055 65.7041 133.518 65.7041C133.661 65.7636 133.857 65.722 134.041 65.7517C134.219 65.8231 134.404 65.8291 134.576 65.8945C134.707 66.0195 134.921 66.0433 135.087 66.1564C135.23 66.3051 135.396 66.4004 135.527 66.5551L134.516 67.3644Z" fill="#F6EFFF"/>
<path d="M136.615 65.8706H137.952V71.8334H136.615V65.8706Z" fill="#F6EFFF"/>
<path d="M140.168 67.0489H138.475V65.8706H143.205V67.0489H141.511V71.8334H140.168V67.0489" fill="#F6EFFF"/>
<path d="M145.172 69.2924L142.943 65.8706H144.572L145.844 68.1022L147.193 65.8706H148.744L146.515 69.2924V71.8334H145.172V69.2924Z" fill="#F6EFFF"/>
</svg>
