<svg width="48" height="46" viewBox="0 0 48 46" fill="none" xmlns="http://www.w3.org/2000/svg">
<path d="M47.1 15.225L44.65 4.3C44.1367 2.05 42.3167 0.5 40.1934 0.5H7.78335C5.68335 0.5 3.84002 2.075 3.35002 4.3L0.900015 15.225C0.340015 17.775 0.853349 20.375 2.34668 22.425C2.53335 22.7 2.79002 22.9 3.00002 23.15V40.5C3.00002 43.25 5.10002 45.5 7.66668 45.5H40.3334C42.9 45.5 45 43.25 45 40.5V23.15C45.21 22.925 45.4667 22.7 45.6534 22.45C47.1467 20.4 47.6833 17.775 47.1 15.225ZM40.1233 5.475L42.5733 16.4C42.8067 17.45 42.5967 18.5 41.99 19.325C41.6633 19.775 40.9634 20.5 39.7967 20.5C38.3734 20.5 37.1367 19.275 36.9733 17.65L35.62 5.5L40.1233 5.475ZM26.3333 5.5H30.9067L32.1667 16.8C32.2833 17.775 32.0033 18.75 31.3967 19.475C30.8833 20.125 30.1367 20.5 29.18 20.5C27.6167 20.5 26.3333 19.025 26.3333 17.225V5.5ZM15.81 16.8L17.0933 5.5H21.6667V17.225C21.6667 19.025 20.3833 20.5 18.6567 20.5C17.8633 20.5 17.14 20.125 16.58 19.475C15.9967 18.75 15.7167 17.775 15.81 16.8ZM5.42668 16.4L7.78335 5.5H12.38L11.0267 17.65C10.84 19.275 9.62668 20.5 8.20335 20.5C7.06002 20.5 6.33668 19.775 6.03335 19.325C5.40335 18.525 5.19335 17.45 5.42668 16.4ZM7.66668 40.5V25.425C7.85335 25.45 8.01668 25.5 8.20335 25.5C10.2333 25.5 12.0767 24.6 13.43 23.125C14.83 24.625 16.6967 25.5 18.82 25.5C20.85 25.5 22.67 24.6 24.0233 23.175C25.4 24.6 27.2667 25.5 29.3667 25.5C31.3267 25.5 33.1934 24.625 34.5933 23.125C35.9467 24.6 37.79 25.5 39.82 25.5C40.0067 25.5 40.17 25.45 40.3567 25.425V40.5H7.66668Z" fill="#00D08A"/>
</svg>
