<svg width="180" height="65" viewBox="0 0 180 65" fill="none" xmlns="http://www.w3.org/2000/svg">
<path d="M25.398 2.00095C25.3783 1.66415 25.3585 1.50566 25.3585 1.50566C25.3387 1.34717 25.3387 1.16887 25.319 1.01038C25.2992 0.851888 25.2992 0.673586 25.2795 0.515095C25.2795 0.515095 25.2597 0.356604 25.2399 0.0198114C22.6705 0.237736 20.2987 0.990568 18.3222 2.08019C16.3259 3.16982 14.7052 4.57642 13.46 6.06227C12.8275 6.79529 12.2938 7.54813 11.8195 8.30096C11.5823 8.67737 11.3846 9.05379 11.1672 9.41039C10.9893 9.78681 10.7719 10.1434 10.6138 10.5198C9.9418 11.9661 9.48721 13.3529 9.17097 14.5812C8.53849 17.0576 8.40013 18.9595 8.34084 20.2274C8.32107 20.5444 8.32107 20.8217 8.3013 21.0595C8.3013 21.2972 8.3013 21.4953 8.3013 21.6538C8.3013 21.9708 8.3013 22.1293 8.3013 22.1293C8.3606 25.2793 8.93379 28.4095 9.98133 31.3812C10.3173 32.2925 10.6731 33.2038 11.1079 34.0953C11.523 34.9869 11.9974 35.8387 12.5113 36.6708C13.0251 37.5029 13.5983 38.3152 14.211 39.0878C14.8435 39.8406 15.4958 40.5935 16.2073 41.2671C16.9386 41.9406 17.6897 42.5944 18.5198 43.1491C18.7175 43.2878 18.9349 43.4265 19.1325 43.5652C19.3499 43.7038 19.5476 43.8227 19.765 43.9614C20.1998 44.1991 20.6347 44.4567 21.0893 44.6548C22.8879 45.5265 24.8446 46.0416 26.8409 46.2397C27.2164 46.2595 27.592 46.2793 27.9675 46.3189C30.2009 46.3982 32.4344 46.0218 34.5097 45.2095C36.585 44.3972 38.5022 43.1888 40.1032 41.6237C41.7042 40.0586 42.9889 38.1765 43.819 36.0963C44.6689 34.0161 45.0445 31.7576 45.0049 29.5387C44.9259 26.4878 44.076 23.4566 42.6331 20.8019C41.1903 18.1274 39.194 15.8095 36.8815 13.8878C34.5888 11.9661 31.9798 10.4208 29.2127 9.31134C26.4456 8.2019 23.4808 7.52831 20.4568 7.42926C20.101 7.42926 19.7255 7.42926 19.3697 7.42926C16.7212 7.5085 14.0332 7.90473 11.4835 8.81605C9.56627 9.48964 7.72812 10.4604 6.12715 11.7679C4.52619 13.0557 3.14264 14.6604 2.13462 16.4632C0.711541 18.9991 0.019765 21.9114 0 24.784C0 27.0821 0.533655 29.3406 1.48238 31.4208C2.4311 33.4812 3.81465 35.3435 5.49467 36.8689C7.1747 38.3944 9.17097 39.5435 11.2858 40.3161C13.4007 41.0887 15.6341 41.4652 17.8676 41.5642C21.1486 41.6435 24.3505 40.8312 27.2757 39.5038C30.2009 38.1765 32.8494 36.3142 35.162 34.1152C37.4745 31.9161 39.4312 29.3208 40.874 26.4482C42.3169 23.5755 43.2063 20.3661 43.2063 17.0774C43.2063 16.9585 43.1866 16.8198 43.1866 16.701C43.147 12.4415 41.4868 8.18209 38.522 5.09152C37.0396 3.54623 35.2608 2.29812 33.304 1.42642C31.3473 0.554718 29.2325 0.0990568 27.0978 0C27.0978 0 26.4851 0 25.2399 0.0198114C25.2597 0.356604 25.2795 0.515095 25.2795 0.515095C25.2992 0.673586 25.2992 0.851888 25.319 1.01038C25.3387 1.16887 25.3387 1.34717 25.3585 1.50566C25.3585 1.50566 25.3783 1.66415 25.398 2.00095C26.5049 1.98114 27.0583 1.98114 27.0583 1.98114C28.9557 2.06038 30.8137 2.47642 32.5332 3.22925C34.2528 3.98208 35.8142 5.07171 37.1187 6.43869C39.7277 9.15285 41.1903 12.8972 41.2298 16.701C41.2298 16.8198 41.2496 16.9189 41.2496 17.0378C41.2496 19.95 40.4392 22.8623 39.115 25.4972C37.7907 28.1519 35.9723 30.5491 33.8179 32.6095C31.6636 34.6699 29.1929 36.3935 26.4851 37.6218C23.7971 38.8501 20.8719 39.5633 17.9664 39.5038C15.9306 39.4246 13.9146 39.068 12.0171 38.3944C10.1197 37.701 8.3606 36.6708 6.87822 35.3435C5.39585 34.0161 4.17042 32.3718 3.34029 30.5689C2.51016 28.7661 2.05556 26.7651 2.0358 24.784C2.0358 22.2283 2.66828 19.6727 3.91347 17.4538C4.8029 15.8689 5.9888 14.4821 7.41188 13.333C8.83496 12.2038 10.4557 11.3321 12.195 10.7179C14.5075 9.90568 16.9781 9.52926 19.4488 9.45002C19.7848 9.45002 20.101 9.45002 20.437 9.45002C23.1844 9.52926 25.9317 10.1434 28.5011 11.1736C31.0706 12.2038 33.5017 13.65 35.6363 15.4132C37.7512 17.1963 39.5893 19.3161 40.8938 21.7331C42.1983 24.1302 42.9691 26.8246 43.0284 29.5585C43.068 31.5199 42.732 33.501 42.0007 35.3038C41.2693 37.1265 40.1427 38.7708 38.7394 40.1378C37.3361 41.5048 35.6561 42.5746 33.8179 43.2878C31.9798 44.001 30.0231 44.318 28.0663 44.2586C27.7303 44.2388 27.3943 44.2189 27.0781 44.1991C25.319 44.001 23.5994 43.5652 21.9985 42.7925C21.6032 42.6142 21.2079 42.3963 20.8323 42.1784C20.6347 42.0595 20.4568 41.9406 20.2591 41.8218C20.0615 41.7029 19.8836 41.584 19.7057 41.4454C18.9744 40.9501 18.2826 40.3755 17.6304 39.7614C15.0214 37.3048 13.1437 34.0953 11.9183 30.6878C10.9498 27.934 10.4162 25.0019 10.3569 22.0897C10.3569 22.0897 10.3569 21.951 10.3569 21.6538C10.3569 21.5151 10.3569 21.317 10.3569 21.0991C10.3569 20.8812 10.3766 20.6236 10.3766 20.3265C10.4359 19.1576 10.5743 17.3746 11.1475 15.0963C11.4439 13.967 11.859 12.6991 12.4717 11.3915C12.6101 11.0547 12.8077 10.7378 12.9658 10.401C13.1635 10.0642 13.3414 9.72738 13.5588 9.39058C13.9739 8.717 14.468 8.04341 15.0214 7.38964C16.1283 6.06227 17.5513 4.83397 19.3104 3.86321C21.03 2.85284 23.1053 2.19906 25.398 2.00095Z" fill="#F6EFFF"/>
<path d="M76.1741 42.9308L69.2564 27.676H59.1565V42.9308H54.571V6.27979H68.9006C71.0748 6.27979 72.9129 6.55714 74.4151 7.13167C75.937 7.7062 77.1822 8.49866 78.1704 9.52885C79.0598 10.46 79.7714 11.5298 80.2853 12.7383C80.7992 13.9468 81.0561 15.3534 81.0561 16.9779C81.0561 18.6024 80.8189 19.9694 80.3248 21.1185C79.8504 22.2477 79.1587 23.2977 78.2692 24.2289C77.7158 24.8232 77.0833 25.3185 76.3323 25.7543C75.601 26.1902 74.7708 26.5468 73.8814 26.8043L81.1944 42.9308H76.1741ZM76.3323 16.9779C76.3323 14.6798 75.6405 13.0156 74.2372 12.0251C72.8536 11.0345 71.0748 10.5194 68.9006 10.5194H59.1565V23.3968H68.9006C69.9679 23.3968 70.9562 23.2779 71.8654 23.06C72.7746 22.8421 73.5652 22.4657 74.2372 21.9506C74.9092 21.4355 75.4231 20.7619 75.7788 19.9694C76.1346 19.1374 76.3323 18.1468 76.3323 16.9779Z" fill="#F6EFFF"/>
<path d="M88.1917 42.9308V6.27979H112.641V10.5194H92.7772V21.693H110.21V26.0317H92.7772V38.6912H112.621V42.9308H88.1917Z" fill="#F6EFFF"/>
<path d="M146.616 32.7081C146.616 34.194 146.359 35.4817 145.826 36.611C145.292 37.7204 144.64 38.711 143.849 39.5827C142.821 40.6921 141.477 41.5242 139.857 42.0789C138.216 42.6534 136.497 42.9308 134.678 42.9308H119.934V6.27979H134.52C136.24 6.27979 137.9 6.55714 139.521 7.13167C141.141 7.7062 142.446 8.53828 143.434 9.64772C144.166 10.4402 144.739 11.3317 145.154 12.3222C145.589 13.3128 145.806 14.4619 145.806 15.7694C145.806 17.5326 145.351 19.177 144.462 20.6826C143.573 22.2081 142.268 23.2779 140.549 23.8921C141.477 24.2091 142.327 24.6647 143.078 25.2591C143.83 25.8534 144.482 26.5468 145.015 27.3194C145.549 28.0921 145.944 28.944 146.221 29.8751C146.478 30.7864 146.616 31.7374 146.616 32.7081ZM141.082 16.126C141.082 15.1553 140.904 14.3232 140.549 13.61C140.193 12.8968 139.699 12.3024 139.106 11.827C138.513 11.3515 137.801 10.9751 136.991 10.7373C136.18 10.4996 135.35 10.3807 134.481 10.3807H124.381V21.9506H134.639C136.556 21.9506 138.117 21.4949 139.303 20.6034C140.489 19.6921 141.082 18.2062 141.082 16.126ZM141.912 32.3713C141.912 31.3411 141.715 30.4298 141.339 29.6374C140.964 28.8449 140.45 28.1713 139.797 27.6166C139.145 27.0619 138.374 26.6459 137.505 26.3487C136.635 26.0515 135.706 25.9128 134.738 25.9128H124.381V38.6713H134.639C135.627 38.6713 136.576 38.5525 137.465 38.3147C138.355 38.077 139.125 37.7006 139.778 37.1855C140.43 36.6704 140.944 36.0166 141.319 35.2242C141.734 34.4317 141.912 33.4808 141.912 32.3713Z" fill="#F6EFFF"/>
<path d="M175.276 42.9311L172.292 34.2339H156.4L153.456 42.9113H148.811L161.698 6.26025H167.054L180 42.9113H175.276V42.9311ZM164.287 10.8763L157.843 29.8952H170.789L164.287 10.8763Z" fill="#F6EFFF"/>
<path d="M5.89049 61.6528L4.36859 58.0075H2.11538V61.6528H1.10736V52.916H4.26976C4.74412 52.916 5.15919 52.9754 5.49519 53.1141C5.8312 53.2528 6.10791 53.4509 6.32533 53.6887C6.52298 53.9066 6.6811 54.1641 6.79969 54.4613C6.91828 54.7585 6.97757 55.0953 6.97757 55.4717C6.97757 55.8679 6.91828 56.1849 6.81945 56.4622C6.72063 56.7396 6.56251 56.9773 6.36486 57.1953C6.24627 57.334 6.10791 57.4528 5.93002 57.5519C5.7719 57.6509 5.59402 57.7302 5.39637 57.8094L7.0171 61.6528H5.89049ZM5.91026 55.4717C5.91026 54.917 5.75214 54.5207 5.45566 54.283C5.13942 54.0453 4.76389 53.9264 4.26976 53.9264H2.11538V56.9972H4.26976C4.50694 56.9972 4.72436 56.9773 4.92201 56.9179C5.11966 56.8585 5.29754 56.7792 5.45566 56.6604C5.61378 56.5415 5.71261 56.383 5.79167 56.1849C5.87073 55.9868 5.91026 55.749 5.91026 55.4717Z" fill="#F6EFFF"/>
<path d="M13.1049 58.8795H9.01356C9.01356 59.1766 9.05309 59.454 9.15191 59.7313C9.25074 60.0087 9.3891 60.2464 9.56698 60.4446C9.84369 60.7417 10.1995 60.8804 10.6343 60.8804C11.1087 60.8804 11.4644 60.7417 11.7016 60.4644C11.7807 60.3653 11.8597 60.2861 11.8993 60.187C11.9585 60.0879 11.9981 59.9493 12.0376 59.7908H12.9863C12.9468 60.1078 12.848 60.4049 12.6899 60.6625C12.5317 60.9398 12.3341 61.1578 12.0969 61.3361C11.8993 61.4747 11.6621 61.5936 11.4051 61.6729C11.1482 61.7521 10.8912 61.7917 10.6145 61.7917C10.1995 61.7917 9.84369 61.7125 9.50768 61.5342C9.19144 61.3757 8.91473 61.1379 8.69732 60.8408C8.46014 60.5436 8.28225 60.187 8.16366 59.7908C8.04507 59.3945 7.98578 58.9785 7.98578 58.5228C7.98578 58.1464 8.02531 57.7898 8.0846 57.453C8.1439 57.1162 8.26249 56.8191 8.42061 56.5219C8.61826 56.1455 8.91473 55.8285 9.29027 55.5908C9.66581 55.353 10.1006 55.2144 10.5948 55.2144C10.9703 55.2144 11.3063 55.2936 11.583 55.4323C11.8795 55.571 12.1364 55.7691 12.3341 56.0266C12.5713 56.304 12.7491 56.6408 12.8875 57.0172C13.0259 57.3936 13.0852 57.8096 13.0654 58.2257L13.1049 58.8795ZM12.1167 57.9879C12.1167 57.7502 12.0771 57.5125 12.0178 57.2945C11.9585 57.0766 11.8597 56.8785 11.7609 56.72C11.6423 56.5417 11.4842 56.403 11.2865 56.304C11.0889 56.2049 10.8715 56.1455 10.6145 56.1455C10.3576 56.1455 10.1204 56.2049 9.92275 56.304C9.7251 56.403 9.56698 56.5417 9.42863 56.72C9.29027 56.8983 9.19144 57.0964 9.13215 57.3144C9.07285 57.5323 9.03332 57.7502 9.03332 57.9879H12.1167Z" fill="#F6EFFF"/>
<path d="M18.4417 61.653V57.6908C18.4417 57.2153 18.3429 56.8587 18.1453 56.6012C17.9476 56.3436 17.6314 56.2049 17.1768 56.2049C16.9001 56.2049 16.6431 56.2842 16.4455 56.4625C16.2281 56.6408 16.0699 56.8785 15.9316 57.1559C15.8328 57.3936 15.7735 57.6512 15.7537 57.9483C15.7339 58.2455 15.7339 58.503 15.7339 58.7408V61.6332H14.7654V55.3927H15.6153L15.6944 56.3238C15.7735 56.1455 15.8723 55.987 16.0106 55.8483C16.149 55.7096 16.2873 55.5908 16.4455 55.5115C16.6036 55.4125 16.7815 55.353 16.9396 55.2936C17.1175 55.254 17.2756 55.2144 17.4337 55.2144C18.086 55.2144 18.5999 55.4125 18.9359 55.8285C19.2719 56.2247 19.43 56.7993 19.43 57.5125V61.6134H18.4417V61.653Z" fill="#F6EFFF"/>
<path d="M26.0509 58.8795H21.9793C21.9793 59.1766 22.0188 59.454 22.1177 59.7313C22.2165 60.0087 22.3549 60.2464 22.5327 60.4446C22.8094 60.7417 23.1652 60.8804 23.6001 60.8804C24.0744 60.8804 24.4302 60.7417 24.6674 60.4644C24.7464 60.3653 24.8255 60.2861 24.865 60.187C24.9243 60.0879 24.9638 59.9493 25.0034 59.7908H25.9521C25.9126 60.1078 25.8137 60.4049 25.6556 60.6625C25.4975 60.9398 25.2998 61.1578 25.0627 61.3361C24.865 61.4747 24.6278 61.5936 24.3709 61.6729C24.1139 61.7521 23.857 61.7917 23.5803 61.7917C23.1652 61.7917 22.8094 61.7125 22.4734 61.5342C22.1572 61.3757 21.8805 61.1379 21.6631 60.8408C21.4259 60.5436 21.248 60.187 21.1294 59.7908C21.0108 59.3945 20.9515 58.9785 20.9515 58.5228C20.9515 58.1464 20.9911 57.7898 21.0504 57.453C21.1097 57.1162 21.2282 56.8191 21.3864 56.5219C21.584 56.1455 21.8805 55.8285 22.256 55.5908C22.6316 55.353 23.0664 55.2144 23.5605 55.2144C23.9361 55.2144 24.2721 55.2936 24.5488 55.4323C24.8452 55.571 25.1022 55.7691 25.2998 56.0266C25.537 56.304 25.7149 56.6408 25.8533 57.0172C25.9916 57.3936 26.0509 57.8096 26.0311 58.2257L26.0509 58.8795ZM25.0627 57.9879C25.0627 57.7502 25.0231 57.5125 24.9638 57.2945C24.9045 57.0766 24.8057 56.8785 24.7069 56.72C24.5883 56.5417 24.4302 56.403 24.2325 56.304C24.0349 56.2049 23.8175 56.1455 23.5605 56.1455C23.3036 56.1455 23.0664 56.2049 22.8687 56.304C22.6711 56.403 22.513 56.5417 22.3746 56.72C22.2363 56.8983 22.1374 57.0964 22.0781 57.3144C22.0188 57.5323 21.9793 57.7502 21.9793 57.9879H25.0627Z" fill="#F6EFFF"/>
<path d="M33.3835 61.6532H32.4546L30.9525 56.8786L29.4108 61.6532H28.4818L26.9995 55.4126H27.9482L29.055 60.1277L30.5176 55.4918H31.3478L32.7906 60.1277L33.9172 55.4126H34.8659L33.3835 61.6532Z" fill="#F6EFFF"/>
<path d="M41.1511 61.5933C41.0523 61.6527 40.9337 61.6923 40.8349 61.7121C40.7361 61.7319 40.6175 61.7518 40.4989 61.7518C40.2419 61.7518 40.0245 61.6527 39.8862 61.4744C39.728 61.2961 39.6688 61.0584 39.6688 60.8008H39.649C39.4909 61.1178 39.2339 61.3555 38.8979 61.5536C38.5619 61.7319 38.2061 61.831 37.7911 61.831C37.4551 61.831 37.1586 61.7716 36.9214 61.6725C36.6842 61.5536 36.4668 61.415 36.3087 61.2367C36.1506 61.0584 36.032 60.8404 35.9332 60.6225C35.8541 60.3848 35.8146 60.1668 35.8146 59.9291C35.8146 59.731 35.8541 59.5131 35.9134 59.2951C35.9727 59.0772 36.0913 58.8791 36.2494 58.681C36.4075 58.5027 36.6249 58.3442 36.8819 58.2055C37.1388 58.0668 37.4748 57.9876 37.8701 57.9678L39.6292 57.8489V57.3933C39.6292 57.2348 39.6095 57.0763 39.5699 56.898C39.5304 56.7197 39.4513 56.581 39.3327 56.4423C39.2339 56.3433 39.1153 56.264 38.9572 56.2046C38.8189 56.1451 38.6212 56.1253 38.384 56.1253C38.1271 56.1253 37.9097 56.1649 37.7318 56.2244C37.5737 56.3036 37.4353 56.3829 37.3365 56.4819C37.1388 56.68 37.0598 56.9376 37.0598 57.2348H36.1111C36.1111 56.9376 36.1703 56.6999 36.2494 56.4819C36.3285 56.264 36.4471 56.0857 36.6052 55.9272C36.8028 55.7093 37.0598 55.531 37.376 55.4319C37.6923 55.3131 38.0283 55.2734 38.384 55.2734C38.9374 55.2734 39.392 55.3923 39.728 55.6102C40.0641 55.8282 40.2815 56.1253 40.4198 56.4621C40.5384 56.7593 40.5977 57.0763 40.5977 57.4329V60.4442C40.5977 60.6027 40.6175 60.7216 40.6768 60.781C40.7361 60.8404 40.8151 60.8602 40.9139 60.8602C40.9337 60.8602 40.9535 60.8602 40.993 60.8602C41.0325 60.8602 41.0523 60.8602 41.0721 60.8404L41.1709 60.8206V61.5933H41.1511ZM39.6095 58.6414L38.0678 58.7404C37.9294 58.7404 37.7713 58.78 37.633 58.8197C37.4748 58.8593 37.3365 58.9385 37.2179 59.0178C37.0993 59.097 37.0005 59.2159 36.9214 59.3546C36.8424 59.4933 36.8028 59.6716 36.8028 59.8697C36.8028 60.147 36.8819 60.4046 37.0598 60.6225C37.2377 60.8404 37.5341 60.9593 37.9294 60.9593C38.1468 60.9593 38.3643 60.9197 38.5619 60.8404C38.7793 60.7612 38.9572 60.6225 39.0956 60.464C39.2735 60.2659 39.392 60.048 39.4711 59.8102C39.5502 59.5725 39.5897 59.315 39.5897 59.0376V58.6414H39.6095Z" fill="#F6EFFF"/>
<path d="M47.7924 58.5623C47.7924 59.0774 47.7133 59.5727 47.575 60.0086C47.4366 60.4642 47.2192 60.8406 46.9622 61.1378C46.7646 61.3557 46.5472 61.5142 46.2705 61.6331C45.9938 61.752 45.6775 61.8114 45.3217 61.8114C44.9857 61.8114 44.6695 61.7321 44.3335 61.5538C43.9975 61.3954 43.7603 61.1378 43.6022 60.8406L43.5429 61.6529H42.693V52.7378H43.6615V56.1255C43.7405 55.9868 43.8394 55.868 43.958 55.7491C44.0765 55.6302 44.2149 55.551 44.373 55.4718C44.5311 55.3925 44.6893 55.3331 44.8474 55.2935C45.0055 55.2538 45.1636 55.234 45.3415 55.234C45.6775 55.234 45.9938 55.2935 46.2507 55.4123C46.5076 55.5312 46.7448 55.6699 46.9227 55.868C47.2192 56.1652 47.4366 56.5614 47.575 57.017C47.7133 57.5123 47.7924 58.0076 47.7924 58.5623ZM46.8041 58.5425C46.8041 58.2453 46.7844 57.968 46.7251 57.6906C46.6658 57.4133 46.5867 57.1557 46.4681 56.918C46.3495 56.6802 46.1716 56.5019 45.974 56.3633C45.7566 56.2246 45.4996 56.1453 45.1834 56.1453C44.966 56.1453 44.7881 56.185 44.6497 56.2642C44.5114 56.3435 44.373 56.4425 44.2544 56.5614C44.0172 56.7991 43.8394 57.0765 43.7603 57.4331C43.6615 57.7897 43.6219 58.1463 43.6219 58.5425C43.6219 58.9387 43.6615 59.3152 43.7603 59.652C43.8591 60.0086 44.0172 60.2859 44.2544 60.5237C44.373 60.6425 44.4916 60.7416 44.6497 60.8208C44.8078 60.9001 44.9857 60.9397 45.1834 60.9397C45.4996 60.9397 45.7763 60.8604 45.974 60.7218C46.1914 60.5831 46.3495 60.4048 46.4681 60.167C46.5867 59.9293 46.6658 59.6718 46.7251 59.3944C46.7844 59.117 46.8041 58.8199 46.8041 58.5425Z" fill="#F6EFFF"/>
<path d="M51.33 61.6526C51.2905 61.6724 51.2312 61.6724 51.1521 61.6922C51.0335 61.7121 50.8754 61.7319 50.6382 61.7319C50.2034 61.7319 49.9069 61.5932 49.7093 61.3356C49.5116 61.0781 49.4326 60.7017 49.4326 60.2064V52.7573H50.401V60.147C50.401 60.3649 50.4406 60.5234 50.5196 60.6224C50.5987 60.7215 50.737 60.7809 50.9347 60.7809H51.2509C51.2905 60.7809 51.3102 60.7809 51.33 60.7611V61.6526Z" fill="#F6EFFF"/>
<path d="M57.3782 58.8795H53.3066C53.3066 59.1766 53.3461 59.454 53.4449 59.7313C53.5438 60.0087 53.6821 60.2464 53.86 60.4446C54.1367 60.7417 54.4925 60.8804 54.9273 60.8804C55.4017 60.8804 55.7574 60.7417 55.9946 60.4644C56.0737 60.3653 56.1527 60.2861 56.1923 60.187C56.2516 60.0879 56.2911 59.9493 56.3306 59.7908H57.2794C57.2398 60.1078 57.141 60.4049 56.9829 60.6625C56.8248 60.9398 56.6271 61.1578 56.3899 61.3361C56.1923 61.4747 55.9551 61.5936 55.6982 61.6729C55.4412 61.7521 55.1843 61.7917 54.9076 61.7917C54.4925 61.7917 54.1367 61.7125 53.8007 61.5342C53.4845 61.3757 53.2078 61.1379 52.9904 60.8408C52.7532 60.5436 52.5753 60.187 52.4567 59.7908C52.3381 59.3945 52.2788 58.9785 52.2788 58.5228C52.2788 58.1464 52.3183 57.7898 52.3776 57.453C52.4369 57.1162 52.5555 56.8191 52.7136 56.5219C52.9113 56.1455 53.2078 55.8285 53.5833 55.5908C53.9588 55.353 54.3937 55.2144 54.8878 55.2144C55.2633 55.2144 55.5993 55.2936 55.876 55.4323C56.1725 55.571 56.4295 55.7691 56.6271 56.0266C56.8643 56.304 57.0422 56.6408 57.1805 57.0172C57.3189 57.3936 57.3782 57.8096 57.3584 58.2257L57.3782 58.8795ZM56.3899 57.9879C56.3899 57.7502 56.3504 57.5125 56.2911 57.2945C56.2318 57.0766 56.133 56.8785 56.0342 56.72C55.9156 56.5417 55.7575 56.403 55.5598 56.304C55.3622 56.2049 55.1447 56.1455 54.8878 56.1455C54.6308 56.1455 54.3937 56.2049 54.196 56.304C53.9984 56.403 53.8402 56.5417 53.7019 56.72C53.5635 56.8983 53.4647 57.0964 53.4054 57.3144C53.3461 57.5323 53.3066 57.7502 53.3066 57.9879H56.3899Z" fill="#F6EFFF"/>
<path d="M61.7073 61.6528V52.916H67.1031V53.9264H62.7153V56.6009H66.5695V57.6311H62.7153V60.6424H67.1031V61.6528H61.7073Z" fill="#F6EFFF"/>
<path d="M72.4397 61.653V57.6908C72.4397 57.2153 72.3408 56.8587 72.1432 56.6012C71.9455 56.3436 71.6293 56.2049 71.1747 56.2049C70.898 56.2049 70.641 56.2842 70.4434 56.4625C70.226 56.6408 70.0679 56.8785 69.9295 57.1559C69.8307 57.3936 69.7714 57.6512 69.7516 57.9483C69.7319 58.2455 69.7319 58.503 69.7319 58.7408V61.6332H68.7634V55.3927H69.6133L69.6923 56.3238C69.7714 56.1455 69.8702 55.987 70.0086 55.8483C70.1469 55.7096 70.2853 55.5908 70.4434 55.5115C70.6015 55.4125 70.7794 55.353 70.9375 55.2936C71.1154 55.254 71.2735 55.2144 71.4316 55.2144C72.0839 55.2144 72.5978 55.4125 72.9338 55.8285C73.2698 56.2247 73.4279 56.7993 73.4279 57.5125V61.6134H72.4397V61.653Z" fill="#F6EFFF"/>
<path d="M80.0686 58.8795H75.997C75.997 59.1766 76.0366 59.454 76.1354 59.7313C76.2342 60.0087 76.3726 60.2464 76.5504 60.4446C76.8271 60.7417 77.1829 60.8804 77.6178 60.8804C78.0921 60.8804 78.4479 60.7417 78.6851 60.4644C78.7641 60.3653 78.8432 60.2861 78.8827 60.187C78.942 60.0879 78.9815 59.9493 79.0211 59.7908H79.9698C79.9303 60.1078 79.8314 60.4049 79.6733 60.6625C79.5152 60.9398 79.3175 61.1578 79.0804 61.3361C78.8827 61.4747 78.6455 61.5936 78.3886 61.6729C78.1316 61.7521 77.8747 61.7917 77.598 61.7917C77.1829 61.7917 76.8272 61.7125 76.4911 61.5342C76.1749 61.3757 75.8982 61.1379 75.6808 60.8408C75.4436 60.5436 75.2657 60.187 75.1471 59.7908C75.0285 59.3945 74.9692 58.9785 74.9692 58.5228C74.9692 58.1464 75.0088 57.7898 75.0681 57.453C75.1274 57.1162 75.246 56.8191 75.4041 56.5219C75.6017 56.1455 75.8982 55.8285 76.2737 55.5908C76.6493 55.353 77.0841 55.2144 77.5782 55.2144C77.9538 55.2144 78.2898 55.2936 78.5665 55.4323C78.8629 55.571 79.1199 55.7691 79.3175 56.0266C79.5547 56.304 79.7326 56.6408 79.871 57.0172C80.0093 57.3936 80.0686 57.8096 80.0488 58.2257L80.0686 58.8795ZM79.0804 57.9879C79.0804 57.7502 79.0408 57.5125 78.9815 57.2945C78.9222 57.0766 78.8234 56.8785 78.7246 56.72C78.606 56.5417 78.4479 56.403 78.2502 56.304C78.0526 56.2049 77.8352 56.1455 77.5782 56.1455C77.3213 56.1455 77.0841 56.2049 76.8864 56.304C76.6888 56.403 76.5307 56.5417 76.3923 56.72C76.254 56.8983 76.1551 57.0964 76.0958 57.3144C76.0366 57.5323 75.997 57.7502 75.997 57.9879H79.0804Z" fill="#F6EFFF"/>
<path d="M84.8323 56.4427C84.7532 56.4228 84.6544 56.4228 84.5556 56.403C84.4567 56.403 84.3777 56.3832 84.2789 56.3832C84.0417 56.3832 83.844 56.4228 83.6661 56.5219C83.4883 56.621 83.3301 56.7398 83.1918 56.8785C83.0732 56.9974 82.9941 57.1361 82.9151 57.2945C82.836 57.453 82.7965 57.6313 82.757 57.8096C82.7174 57.9879 82.6977 58.1662 82.6977 58.3445C82.6779 58.5228 82.6779 58.7011 82.6779 58.8596V61.6332H81.7094V55.3927H82.5593L82.6384 56.4823C82.7965 56.086 83.0337 55.8087 83.3499 55.6304C83.6661 55.4521 84.0022 55.353 84.3777 55.353C84.5358 55.353 84.6742 55.3728 84.8323 55.3927V56.4427Z" fill="#F6EFFF"/>
<path d="M90.8802 62.5838C90.8802 62.8611 90.8407 63.0989 90.7418 63.297C90.643 63.5149 90.5244 63.6932 90.3861 63.8319C90.2477 63.9706 90.0896 64.1093 89.8919 64.1885C89.714 64.2876 89.5164 64.3668 89.299 64.4064C89.1013 64.4659 88.8839 64.5055 88.6665 64.5253C88.4491 64.5451 88.2514 64.5649 88.034 64.5649C87.8364 64.5649 87.6387 64.5451 87.4411 64.5253C87.2434 64.5055 87.0458 64.4659 86.8481 64.4064C86.6505 64.347 86.4726 64.2876 86.2947 64.1885C86.1168 64.0894 85.9587 63.9706 85.8203 63.8319C85.7018 63.6932 85.6029 63.5347 85.5239 63.3564C85.4448 63.1781 85.4053 62.9602 85.4053 62.7225C85.4053 62.3857 85.4843 62.1083 85.6425 61.8706C85.8006 61.6328 85.9982 61.4545 86.2156 61.3357C86.018 61.2564 85.8599 61.1177 85.7215 60.9196C85.6029 60.7215 85.5239 60.5234 85.5239 60.2857C85.5239 60.0083 85.6029 59.7706 85.7413 59.5526C85.8796 59.3545 86.0773 59.196 86.2947 59.0772C86.0773 58.8791 85.9192 58.6215 85.8006 58.3442C85.682 58.047 85.6227 57.7696 85.6227 57.4725C85.6227 57.1357 85.6622 56.8385 85.761 56.6008C85.8599 56.363 85.9982 56.1451 86.1563 55.9668C86.354 55.7489 86.5912 55.5706 86.8679 55.4517C87.1446 55.3328 87.4806 55.2734 87.8561 55.2734C88.1328 55.2734 88.37 55.313 88.5874 55.3725C88.8049 55.4319 89.0025 55.5309 89.1804 55.6498C89.2792 55.3725 89.4373 55.1545 89.635 54.996C89.8524 54.8375 90.0896 54.7583 90.3663 54.7583C90.4058 54.7583 90.4651 54.7583 90.5047 54.7583C90.5639 54.7583 90.6035 54.7781 90.643 54.7781V55.63C90.6035 55.63 90.5837 55.6102 90.5442 55.6102C90.5047 55.6102 90.4651 55.6102 90.4256 55.6102C90.2279 55.6102 90.0698 55.6696 89.9512 55.7687C89.8326 55.8677 89.7536 56.0064 89.714 56.1847C89.8326 56.3432 89.9315 56.5413 89.9908 56.7394C90.0501 56.9574 90.0896 57.1951 90.0896 57.4725C90.0896 57.7696 90.0501 58.047 89.9512 58.3045C89.8524 58.5621 89.7338 58.78 89.5757 58.9781C89.378 59.196 89.1409 59.3743 88.8642 59.513C88.5874 59.6517 88.2514 59.7111 87.8561 59.7111C87.6585 59.7111 87.5004 59.6913 87.362 59.6715C87.2237 59.6517 87.0655 59.5923 86.8877 59.5328C86.7888 59.5725 86.6702 59.6319 86.5714 59.7309C86.4726 59.83 86.4133 59.9489 86.3935 60.0876C86.3935 60.2262 86.4133 60.3451 86.4528 60.4045C86.5121 60.4838 86.5714 60.5432 86.6702 60.5828C86.7493 60.6225 86.8481 60.6621 86.9667 60.6621C87.0655 60.6819 87.1644 60.6819 87.2632 60.6819C87.362 60.6819 87.4608 60.7017 87.5992 60.6819C87.7375 60.6819 87.8561 60.6819 87.9747 60.6819H88.4096C88.7456 60.6819 89.1013 60.7215 89.4373 60.8206C89.7931 60.9196 90.0698 61.0781 90.307 61.3357C90.4454 61.4743 90.5442 61.6527 90.643 61.8508C90.8407 62.0885 90.8802 62.3262 90.8802 62.5838ZM89.9512 62.5838C89.9512 62.3262 89.8919 62.1281 89.7733 61.9894C89.6548 61.8508 89.4966 61.7517 89.3187 61.6923C89.1409 61.6328 88.9432 61.613 88.7258 61.5932C88.5084 61.5932 88.3107 61.5932 88.1328 61.5932H87.0853C86.8877 61.6526 86.7098 61.7715 86.5714 61.9498C86.4331 62.1281 86.354 62.3262 86.354 62.564C86.354 62.8215 86.4331 63.0394 86.5912 63.2177C86.69 63.3168 86.7888 63.396 86.9074 63.4555C87.026 63.5149 87.1644 63.5545 87.3027 63.5942C87.4411 63.614 87.5794 63.6338 87.7178 63.6536C87.8561 63.6536 87.9945 63.6734 88.1131 63.6734C88.2317 63.6734 88.37 63.6734 88.5084 63.6536C88.6467 63.6536 88.8049 63.6338 88.9432 63.5942C89.0816 63.5545 89.2199 63.5149 89.3583 63.4555C89.4966 63.396 89.5955 63.3168 89.6943 63.2177C89.8722 63.0593 89.9512 62.8413 89.9512 62.5838ZM89.2792 57.4725C89.2792 57.0762 89.1606 56.7592 88.9234 56.4819C88.6863 56.2243 88.37 56.0857 87.955 56.0857C87.5597 56.0857 87.2434 56.2243 87.0062 56.4819C86.7691 56.7394 86.6505 57.0762 86.6505 57.4725C86.6505 57.8687 86.7691 58.2055 87.0062 58.463C87.2434 58.7206 87.5597 58.8593 87.9747 58.8593C88.37 58.8593 88.6863 58.7206 88.9234 58.463C89.1606 58.2055 89.2792 57.8687 89.2792 57.4725Z" fill="#F6EFFF"/>
<path d="M94.1413 62.9407C94.003 63.3369 93.8251 63.6737 93.5879 63.9115C93.3507 64.1492 93.0147 64.2681 92.5799 64.2681C92.3427 64.2681 92.1451 64.2483 91.987 64.2086C91.8288 64.169 91.73 64.1492 91.7103 64.1294V63.1982C91.7695 63.2181 91.8486 63.2379 91.9079 63.2577C91.9672 63.2775 92.0463 63.2775 92.1253 63.2973C92.2044 63.2973 92.3032 63.3171 92.402 63.3171C92.5997 63.3171 92.7776 63.2775 92.9357 63.1784C93.074 63.0794 93.1926 62.9209 93.2717 62.6832L93.6275 61.6332L91.3347 55.3926H92.4218L94.1216 60.3058L95.7423 55.3926H96.7503L94.1413 62.9407Z" fill="#F6EFFF"/>
<path d="M106.514 59.216C106.514 59.5726 106.454 59.8698 106.336 60.1472C106.217 60.4047 106.079 60.6424 105.901 60.8604C105.664 61.1179 105.387 61.316 105.012 61.4547C104.656 61.5934 104.261 61.6528 103.865 61.6528H100.604V52.916H103.826C104.201 52.916 104.577 52.9754 104.933 53.1141C105.288 53.2528 105.585 53.4509 105.802 53.7085C105.96 53.9066 106.099 54.1047 106.178 54.3424C106.277 54.5802 106.316 54.8575 106.316 55.1547C106.316 55.5707 106.217 55.967 106.02 56.3236C105.822 56.6802 105.525 56.9377 105.15 57.0962C105.348 57.1755 105.545 57.2745 105.703 57.4132C105.861 57.5519 106.02 57.7302 106.138 57.9085C106.257 58.0868 106.336 58.3047 106.415 58.5226C106.494 58.7604 106.514 58.9981 106.514 59.216ZM105.288 55.2736C105.288 55.0358 105.249 54.8377 105.17 54.6792C105.091 54.5009 104.992 54.3622 104.853 54.2434C104.715 54.1245 104.557 54.0453 104.379 53.9858C104.201 53.9264 104.023 53.9066 103.826 53.9066H101.592V56.6604H103.865C104.3 56.6604 104.636 56.5613 104.893 56.3434C105.17 56.1255 105.288 55.7689 105.288 55.2736ZM105.486 59.1368C105.486 58.899 105.446 58.6811 105.367 58.483C105.288 58.2849 105.17 58.1264 105.031 58.0075C104.893 57.8689 104.715 57.7698 104.517 57.7104C104.32 57.6311 104.122 57.6113 103.905 57.6113H101.612V60.6424H103.885C104.102 60.6424 104.32 60.6226 104.517 60.5632C104.715 60.5038 104.893 60.4245 105.031 60.2858C105.17 60.167 105.288 60.0085 105.367 59.8104C105.427 59.6321 105.486 59.4141 105.486 59.1368Z" fill="#F6EFFF"/>
<path d="M111.812 61.6532L111.732 60.7023C111.574 61.0589 111.337 61.3363 111.021 61.5146C110.705 61.6929 110.369 61.7919 110.033 61.7919C109.38 61.7919 108.886 61.5938 108.55 61.1778C108.214 60.7815 108.056 60.207 108.056 59.4938V55.3929H109.025V59.3353C109.025 59.8108 109.124 60.1674 109.301 60.4249C109.479 60.6825 109.796 60.8212 110.25 60.8212C110.448 60.8212 110.626 60.7815 110.784 60.6825C110.942 60.6032 111.08 60.4844 111.219 60.3457C111.396 60.1476 111.535 59.89 111.594 59.5731C111.653 59.2561 111.693 58.9391 111.693 58.6221V55.373H112.661V61.6136H111.812V61.6532Z" fill="#F6EFFF"/>
<path d="M116.673 62.9407C116.535 63.3369 116.357 63.6737 116.12 63.9115C115.883 64.1492 115.547 64.2681 115.112 64.2681C114.875 64.2681 114.677 64.2483 114.519 64.2086C114.361 64.169 114.262 64.1492 114.242 64.1294V63.1982C114.301 63.2181 114.38 63.2379 114.44 63.2577C114.499 63.2775 114.578 63.2775 114.657 63.2973C114.736 63.2973 114.835 63.3171 114.934 63.3171C115.132 63.3171 115.309 63.2775 115.468 63.1784C115.606 63.0794 115.724 62.9209 115.804 62.6832L116.159 61.6332L113.867 55.3926H114.954L116.653 60.3058L118.274 55.3926H119.282L116.673 62.9407Z" fill="#F6EFFF"/>
<path d="M124.916 58.8795H120.844C120.844 59.1766 120.884 59.454 120.982 59.7313C121.081 60.0087 121.22 60.2464 121.398 60.4446C121.674 60.7417 122.03 60.8804 122.465 60.8804C122.939 60.8804 123.295 60.7417 123.532 60.4644C123.611 60.3653 123.69 60.2861 123.73 60.187C123.789 60.0879 123.829 59.9493 123.868 59.7908H124.817C124.777 60.1078 124.679 60.4049 124.52 60.6625C124.362 60.9398 124.165 61.1578 123.927 61.3361C123.73 61.4747 123.493 61.5936 123.236 61.6729C122.979 61.7521 122.722 61.7917 122.445 61.7917C122.03 61.7917 121.674 61.7125 121.338 61.5342C121.022 61.3757 120.745 61.1379 120.528 60.8408C120.291 60.5436 120.113 60.187 119.994 59.7908C119.876 59.3945 119.816 58.9785 119.816 58.5228C119.816 58.1464 119.856 57.7898 119.915 57.453C119.974 57.1162 120.093 56.8191 120.251 56.5219C120.449 56.1455 120.745 55.8285 121.121 55.5908C121.496 55.353 121.931 55.2144 122.425 55.2144C122.801 55.2144 123.137 55.2936 123.414 55.4323C123.71 55.571 123.967 55.7691 124.165 56.0266C124.402 56.304 124.58 56.6408 124.718 57.0172C124.856 57.3936 124.916 57.8096 124.896 58.2257L124.916 58.8795ZM123.947 57.9879C123.947 57.7502 123.908 57.5125 123.848 57.2945C123.789 57.0766 123.69 56.8785 123.591 56.72C123.473 56.5417 123.315 56.403 123.117 56.304C122.919 56.2049 122.702 56.1455 122.445 56.1455C122.188 56.1455 121.951 56.2049 121.753 56.304C121.556 56.403 121.398 56.5417 121.259 56.72C121.121 56.8983 121.022 57.0964 120.963 57.3144C120.903 57.5323 120.864 57.7502 120.864 57.9879H123.947Z" fill="#F6EFFF"/>
<path d="M129.679 56.4427C129.6 56.4228 129.501 56.4228 129.402 56.403C129.303 56.403 129.224 56.3832 129.125 56.3832C128.888 56.3832 128.691 56.4228 128.513 56.5219C128.335 56.621 128.177 56.7398 128.038 56.8785C127.92 56.9974 127.841 57.1361 127.762 57.2945C127.683 57.453 127.643 57.6313 127.603 57.8096C127.564 57.9879 127.544 58.1662 127.544 58.3445C127.524 58.5228 127.524 58.7011 127.524 58.8596V61.6332H126.556V55.3927H127.406L127.485 56.4823C127.643 56.086 127.88 55.8087 128.196 55.6304C128.513 55.4521 128.849 55.353 129.224 55.353C129.382 55.353 129.521 55.3728 129.679 55.3927V56.4427Z" fill="#F6EFFF"/>
<path d="M135.094 59.8499C135.094 60.1273 135.055 60.365 134.976 60.5631C134.897 60.7811 134.778 60.9594 134.64 61.1179C134.422 61.3556 134.145 61.5339 133.809 61.6528C133.473 61.7716 133.137 61.8113 132.742 61.8113C132.386 61.8113 132.031 61.7518 131.714 61.6528C131.398 61.5537 131.121 61.3754 130.864 61.098C130.687 60.8999 130.548 60.682 130.449 60.4443C130.351 60.1867 130.311 59.9292 130.311 59.6716H131.28C131.28 59.8896 131.339 60.0679 131.418 60.2263C131.497 60.3848 131.616 60.5235 131.754 60.6424C131.892 60.7414 132.05 60.8207 132.228 60.8603C132.426 60.8999 132.604 60.9197 132.782 60.9197C132.979 60.9197 133.177 60.8999 133.355 60.8603C133.533 60.8207 133.691 60.7216 133.849 60.583C133.928 60.5235 134.007 60.4245 134.047 60.3056C134.106 60.1867 134.126 60.048 134.126 59.9094C134.126 59.6716 134.047 59.4735 133.889 59.315C133.73 59.1565 133.513 59.0575 133.216 59.0179C133.157 59.0179 133.078 58.998 132.96 58.9782C132.861 58.9584 132.742 58.9386 132.624 58.9188C132.505 58.899 132.386 58.8792 132.248 58.8792C132.129 58.8594 132.011 58.8396 131.912 58.8396C131.477 58.7603 131.141 58.582 130.884 58.3046C130.627 58.0273 130.509 57.6311 130.509 57.1556C130.509 56.9179 130.548 56.6801 130.647 56.4622C130.746 56.2443 130.845 56.066 130.983 55.9273C131.181 55.7094 131.418 55.5509 131.695 55.4122C131.971 55.2735 132.307 55.2339 132.683 55.2339C133.078 55.2339 133.414 55.2933 133.75 55.432C134.066 55.5707 134.323 55.7688 134.521 56.0263C134.659 56.1848 134.758 56.3631 134.817 56.5612C134.897 56.7594 134.916 56.9773 134.916 57.2348H133.948C133.948 57.0763 133.908 56.9179 133.849 56.7792C133.79 56.6405 133.711 56.5414 133.632 56.4622C133.394 56.2443 133.098 56.1254 132.683 56.1254C132.564 56.1254 132.465 56.1254 132.367 56.1452C132.268 56.1452 132.149 56.1848 132.011 56.2641C131.833 56.3433 131.695 56.4622 131.576 56.6207C131.477 56.7792 131.418 56.9377 131.418 57.116C131.418 57.3735 131.477 57.5716 131.616 57.6905C131.754 57.8094 131.952 57.8886 132.189 57.9282C132.347 57.948 132.544 57.9877 132.762 58.0075C132.979 58.0273 133.256 58.0867 133.572 58.1462C133.987 58.2254 134.323 58.4037 134.62 58.7207C134.956 58.998 135.094 59.3745 135.094 59.8499Z" fill="#F6EFFF"/>
<path d="M144.265 61.6528L143.613 59.5726H140.095L139.443 61.6528H138.415L141.261 52.916H142.447L145.313 61.6528H144.265ZM141.834 54.0056L140.411 58.5424H143.277L141.834 54.0056Z" fill="#F6EFFF"/>
<path d="M148.257 61.6526C148.218 61.6724 148.159 61.6724 148.08 61.6922C147.961 61.7121 147.803 61.7319 147.566 61.7319C147.131 61.7319 146.834 61.5932 146.637 61.3356C146.439 61.0781 146.36 60.7017 146.36 60.2064V52.7573H147.328V60.147C147.328 60.3649 147.368 60.5234 147.447 60.6224C147.526 60.7215 147.664 60.7809 147.862 60.7809H148.178C148.218 60.7809 148.238 60.7809 148.257 60.7611V61.6526Z" fill="#F6EFFF"/>
<path d="M151.578 61.6526C151.539 61.6724 151.479 61.6724 151.4 61.6922C151.282 61.7121 151.124 61.7319 150.886 61.7319C150.452 61.7319 150.155 61.5932 149.957 61.3356C149.76 61.0781 149.681 60.7017 149.681 60.2064V52.7573H150.649V60.147C150.649 60.3649 150.689 60.5234 150.768 60.6224C150.847 60.7215 150.985 60.7809 151.183 60.7809H151.499C151.539 60.7809 151.558 60.7809 151.578 60.7611V61.6526Z" fill="#F6EFFF"/>
<path d="M152.982 53.9856V52.7573H154.108V53.9856H152.982ZM153.041 61.6526V55.4121H154.029V61.6526H153.041Z" fill="#F6EFFF"/>
<path d="M160.986 61.5933C160.887 61.6527 160.769 61.6923 160.67 61.7121C160.571 61.7319 160.452 61.7518 160.334 61.7518C160.077 61.7518 159.86 61.6527 159.721 61.4744C159.563 61.2961 159.504 61.0584 159.504 60.8008H159.484C159.326 61.1178 159.069 61.3555 158.733 61.5536C158.397 61.7319 158.041 61.831 157.626 61.831C157.29 61.831 156.994 61.7716 156.756 61.6725C156.519 61.5734 156.302 61.415 156.144 61.2367C155.986 61.0584 155.867 60.8404 155.768 60.6225C155.689 60.3848 155.65 60.1668 155.65 59.9291C155.65 59.731 155.689 59.5131 155.748 59.2951C155.808 59.0772 155.926 58.8791 156.084 58.681C156.243 58.5027 156.46 58.3442 156.717 58.2055C156.974 58.0668 157.31 57.9876 157.705 57.9678L159.464 57.8489V57.3933C159.464 57.2348 159.444 57.0763 159.405 56.898C159.365 56.7197 159.286 56.581 159.168 56.4423C159.069 56.3433 158.95 56.264 158.792 56.2046C158.654 56.1451 158.456 56.1253 158.219 56.1253C157.962 56.1253 157.745 56.1649 157.567 56.2244C157.409 56.3036 157.27 56.3829 157.172 56.4819C156.974 56.68 156.895 56.9376 156.895 57.2348H155.946C155.946 56.9376 156.005 56.6999 156.084 56.4819C156.163 56.264 156.282 56.0857 156.44 55.9272C156.638 55.7093 156.895 55.531 157.211 55.4319C157.527 55.3131 157.863 55.2734 158.219 55.2734C158.772 55.2734 159.227 55.3923 159.563 55.6102C159.899 55.8282 160.116 56.1253 160.255 56.4621C160.373 56.7593 160.433 57.0763 160.433 57.4329V60.4442C160.433 60.6027 160.452 60.7216 160.512 60.781C160.571 60.8404 160.65 60.8602 160.749 60.8602C160.769 60.8602 160.789 60.8602 160.828 60.8602C160.868 60.8602 160.887 60.8602 160.907 60.8404L161.006 60.8206V61.5933H160.986ZM159.444 58.6414L157.903 58.7404C157.764 58.7404 157.606 58.78 157.468 58.8197C157.31 58.8593 157.171 58.9385 157.053 59.0178C156.934 59.097 156.835 59.2159 156.756 59.3546C156.677 59.4933 156.638 59.6716 156.638 59.8697C156.638 60.147 156.717 60.4046 156.895 60.6225C157.073 60.8404 157.369 60.9593 157.764 60.9593C157.982 60.9593 158.199 60.9197 158.397 60.8404C158.614 60.7612 158.792 60.6225 158.931 60.464C159.108 60.2659 159.227 60.048 159.306 59.8102C159.385 59.5725 159.425 59.315 159.425 59.0376V58.6414H159.444Z" fill="#F6EFFF"/>
<path d="M166.225 61.653V57.6908C166.225 57.2153 166.126 56.8587 165.928 56.6012C165.731 56.3436 165.414 56.2049 164.96 56.2049C164.683 56.2049 164.426 56.2842 164.228 56.4625C164.011 56.6408 163.853 56.8785 163.715 57.1559C163.616 57.3936 163.556 57.6512 163.537 57.9483C163.517 58.2455 163.517 58.503 163.517 58.7408V61.6332H162.548V55.3927H163.398L163.477 56.3238C163.556 56.1455 163.655 55.987 163.794 55.8483C163.932 55.7096 164.07 55.5908 164.228 55.5115C164.387 55.4125 164.564 55.353 164.723 55.2936C164.9 55.254 165.059 55.2144 165.217 55.2144C165.869 55.2144 166.383 55.4125 166.719 55.8285C167.055 56.2247 167.213 56.7993 167.213 57.5125V61.6134H166.225V61.653Z" fill="#F6EFFF"/>
<path d="M173.676 59.5728C173.656 59.9096 173.577 60.2068 173.478 60.4643C173.359 60.7218 173.201 60.9596 173.004 61.1577C172.806 61.3756 172.569 61.5341 172.292 61.653C172.015 61.7718 171.699 61.8313 171.343 61.8313C170.81 61.8313 170.395 61.7124 170.059 61.4945C169.723 61.2766 169.446 60.9992 169.248 60.6624C169.09 60.4247 168.972 60.1275 168.893 59.7709C168.814 59.4341 168.774 59.0181 168.774 58.5426C168.774 58.0671 168.814 57.6709 168.893 57.3143C168.972 56.9775 169.09 56.6803 169.248 56.4228C169.446 56.086 169.723 55.8086 170.059 55.5907C170.395 55.3728 170.83 55.2539 171.343 55.2539C171.679 55.2539 171.996 55.3133 172.272 55.4322C172.549 55.5511 172.786 55.7096 172.984 55.9275C173.182 56.1256 173.34 56.3633 173.458 56.6209C173.577 56.8784 173.656 57.1756 173.676 57.5322H172.687C172.668 57.3143 172.608 57.136 172.549 56.9775C172.47 56.819 172.391 56.6803 172.272 56.5615C172.154 56.4426 172.015 56.3633 171.857 56.2841C171.699 56.2049 171.521 56.185 171.324 56.185C171.106 56.185 170.909 56.2247 170.75 56.3039C170.592 56.3832 170.454 56.4822 170.316 56.6011C170.078 56.819 169.94 57.0964 169.861 57.453C169.782 57.8096 169.742 58.186 169.742 58.5624C169.742 58.9388 169.782 59.3152 169.861 59.6718C169.94 60.0284 170.098 60.3058 170.316 60.5237C170.454 60.6426 170.592 60.7417 170.75 60.8209C170.909 60.9001 171.106 60.9398 171.324 60.9398C171.521 60.9398 171.699 60.9001 171.877 60.8209C172.055 60.7417 172.193 60.6426 172.312 60.5039C172.411 60.3851 172.51 60.2662 172.569 60.1077C172.628 59.969 172.668 59.7907 172.707 59.5728H173.676Z" fill="#F6EFFF"/>
<path d="M179.901 58.8795H175.83C175.83 59.1766 175.869 59.454 175.968 59.7313C176.067 60.0087 176.205 60.2464 176.383 60.4446C176.66 60.7417 177.016 60.8804 177.451 60.8804C177.925 60.8804 178.281 60.7417 178.518 60.4644C178.597 60.3653 178.676 60.2861 178.716 60.187C178.775 60.0879 178.814 59.9493 178.854 59.7908H179.803C179.763 60.1078 179.664 60.4049 179.506 60.6625C179.348 60.9398 179.15 61.1578 178.913 61.3361C178.716 61.4747 178.478 61.5936 178.221 61.6729C177.965 61.7521 177.708 61.7917 177.431 61.7917C177.016 61.7917 176.66 61.7125 176.324 61.5342C176.008 61.3757 175.731 61.1379 175.514 60.8408C175.276 60.5436 175.099 60.187 174.98 59.7908C174.861 59.3945 174.802 58.9785 174.802 58.5228C174.802 58.1464 174.842 57.7898 174.901 57.453C174.96 57.1162 175.079 56.8191 175.237 56.5219C175.435 56.1455 175.731 55.8285 176.107 55.5908C176.482 55.353 176.917 55.2144 177.411 55.2144C177.787 55.2144 178.123 55.2936 178.399 55.4323C178.696 55.571 178.953 55.7691 179.15 56.0266C179.388 56.304 179.565 56.6408 179.704 57.0172C179.842 57.3936 179.901 57.8096 179.882 58.2257L179.901 58.8795ZM178.913 57.9879C178.913 57.7502 178.874 57.5125 178.814 57.2945C178.755 57.0766 178.656 56.8785 178.557 56.72C178.439 56.5417 178.281 56.403 178.083 56.304C177.885 56.2049 177.668 56.1455 177.411 56.1455C177.154 56.1455 176.917 56.2049 176.719 56.304C176.522 56.403 176.364 56.5417 176.225 56.72C176.087 56.8983 175.988 57.0964 175.929 57.3144C175.869 57.5323 175.83 57.7502 175.83 57.9879H178.913Z" fill="#F6EFFF"/>
</svg>
