<svg width="34" height="62" viewBox="0 0 34 62" fill="none" xmlns="http://www.w3.org/2000/svg">
<path d="M27.9956 7.10651H26.9257V4.87521C26.9239 2.18703 24.7344 0 22.0409 0H12.0957C10.9655 0 9.92569 0.389592 9.09707 1.03773C7.95439 1.93025 7.21626 3.31684 7.21626 4.87521V7.10651H6.00616C2.69346 7.10651 0 9.79469 0 13.0991V56.0074C0 58.8638 2.01566 61.258 4.70024 61.853C5.12076 61.9469 5.55547 62 6.00438 62H27.9956C31.3065 62 34 59.3118 34 56.0074V13.0991C34 9.79469 31.3065 7.10651 27.9956 7.10651ZM8.53637 4.87521C8.53637 2.91308 10.1333 1.31753 12.0957 1.31753H22.0427C24.0069 1.31753 25.6056 2.91308 25.6056 4.87521V7.10651H8.53637V4.87521ZM32.6799 56.0074C32.6799 58.5858 30.5791 60.6825 27.9956 60.6825H6.00438C3.42094 60.6825 1.32011 58.5858 1.32011 56.0074V13.0991C1.32011 10.5208 3.42094 8.42404 6.00438 8.42404H27.9956C30.5791 8.42404 32.6799 10.5208 32.6799 13.0991V56.0074Z" fill="#00D08A"/>
<path d="M25.265 11.4678H8.73519C6.2032 11.4678 4.14496 13.5238 4.14496 16.0508V53.0638C4.14496 55.5908 6.20497 57.6468 8.73519 57.6468H25.2632C27.7952 57.6468 29.8534 55.5908 29.8534 53.0638V16.049C29.8552 13.522 27.7952 11.4678 25.265 11.4678ZM28.5351 27.3543H20.8149C20.4494 27.3543 20.1549 27.65 20.1549 28.013C20.1549 28.3761 20.4512 28.6718 20.8149 28.6718H28.5351V41.7019H22.332C21.9665 41.7019 21.6719 41.9976 21.6719 42.3606C21.6719 42.7237 21.9683 43.0194 22.332 43.0194H28.5351V53.062C28.5351 54.863 27.0677 56.3275 25.265 56.3275H8.73519C6.93245 56.3275 5.46507 54.863 5.46507 53.062V43.0194H14.0724C14.4379 43.0194 14.7325 42.7237 14.7325 42.3606C14.7325 41.9976 14.4362 41.7019 14.0724 41.7019H5.46507V28.6718H12.9883C13.3538 28.6718 13.6484 28.3761 13.6484 28.013C13.6484 27.65 13.352 27.3543 12.9883 27.3543H5.46507V16.049C5.46507 14.248 6.93245 12.7835 8.73519 12.7835H25.2632C27.066 12.7835 28.5333 14.248 28.5333 16.049V27.3543H28.5351Z" fill="#00D08A"/>
<path d="M19.4929 24.927C19.6366 24.4117 19.3971 23.8964 18.9109 23.675C18.4212 23.4519 17.8765 23.6095 17.5642 24.0806L9.50158 37.5728C9.28511 37.8987 9.26559 38.3166 9.4519 38.6602C9.63643 39.0055 9.99662 39.2197 10.387 39.2197L16.8367 39.2304L14.853 47.4543C14.7217 47.9625 14.9648 48.4672 15.4456 48.6851C15.5911 48.7506 15.742 48.7825 15.8892 48.7825C16.2334 48.7825 16.5652 48.6107 16.7799 48.2884L24.8355 35.3061C25.0555 34.9803 25.0768 34.5624 24.8905 34.2153C24.7042 33.8682 24.3457 33.6521 23.9501 33.6521H17.3353L19.4929 24.927ZM23.4941 34.9714L16.5067 46.2342L18.1905 39.2499C18.2757 38.9293 18.2083 38.5946 18.0042 38.3308C17.802 38.0687 17.495 37.9164 17.1632 37.9164L10.8394 37.9058L17.8073 26.2446L15.9833 33.6238C15.8928 33.9461 15.9584 34.2843 16.1607 34.5517C16.363 34.8191 16.6735 34.9714 17.0088 34.9714H23.4941Z" fill="#00D08A"/>
</svg>
