<svg width="33" height="33" viewBox="0 0 33 33" fill="none" xmlns="http://www.w3.org/2000/svg">
<g clip-path="url(#clip0_7718_45985)">
<path d="M27.6378 12.0413V8.02753H24.9619V12.0413H20.9482V14.7171H24.9619V18.7309H27.6378V14.7171H31.6515V12.0413H27.6378ZM12.9206 16.055C15.8775 16.055 18.2723 13.6602 18.2723 10.7034C18.2723 7.74656 15.8775 5.35168 12.9206 5.35168C9.96385 5.35168 7.56897 7.74656 7.56897 10.7034C7.56897 13.6602 9.96385 16.055 12.9206 16.055ZM12.9206 8.02753C14.3924 8.02753 15.5965 9.23165 15.5965 10.7034C15.5965 12.1751 14.3924 13.3792 12.9206 13.3792C11.4489 13.3792 10.2448 12.1751 10.2448 10.7034C10.2448 9.23165 11.4489 8.02753 12.9206 8.02753ZM21.47 19.4801C19.2223 18.3295 16.3056 17.393 12.9206 17.393C9.53571 17.393 6.61904 18.3295 4.37134 19.4801C3.03342 20.1625 2.21729 21.5405 2.21729 23.039V26.7584H23.624V23.039C23.624 21.5405 22.8079 20.1625 21.47 19.4801ZM20.9482 24.0826H4.89313V23.039C4.89313 22.5306 5.16071 22.0757 5.58885 21.8616C7.18097 21.0455 9.74978 20.0688 12.9206 20.0688C16.0915 20.0688 18.6603 21.0455 20.2525 21.8616C20.6806 22.0757 20.9482 22.5306 20.9482 23.039V24.0826Z" fill="#00D08A"/>
</g>
<defs>
<clipPath id="clip0_7718_45985">
<rect width="32.1101" height="32.1101" fill="white" transform="translate(0.879395)"/>
</clipPath>
</defs>
</svg>
