<svg width="45" height="52" viewBox="0 0 45 52" fill="none" xmlns="http://www.w3.org/2000/svg">
<path fill-rule="evenodd" clip-rule="evenodd" d="M41.6688 17.0413L4.71546 37.9315L22.3922 48.0863C22.4187 48.1015 22.4513 48.1015 22.4777 48.0863L41.6257 37.0864C41.6523 37.0711 41.6688 37.0427 41.6688 37.0119V17.0413ZM3.20117 35.3414L40.4457 14.2865L22.4777 3.96454C22.4513 3.94932 22.4187 3.94932 22.3922 3.96454L3.24426 14.9644C3.21761 14.9797 3.20117 15.0081 3.20117 15.0389V35.3414ZM20.8978 1.36322C21.8496 0.816427 23.0203 0.816427 23.9721 1.36322L43.1201 12.3631C44.0781 12.9135 44.6688 13.934 44.6688 15.0389V15.0834L44.781 15.2819L44.6688 15.3454V37.0119C44.6688 38.1168 44.0781 39.1373 43.1201 39.6877L23.9721 50.6876C23.0203 51.2344 21.8496 51.2344 20.8978 50.6876L1.74989 39.6877C0.79186 39.1373 0.201172 38.1168 0.201172 37.0119V15.0389C0.201172 13.934 0.791861 12.9135 1.74989 12.3631L20.8978 1.36322Z" fill="url(#paint0_linear_7643_43458)"/>
<defs>
<linearGradient id="paint0_linear_7643_43458" x1="22.4911" y1="51.0977" x2="22.4911" y2="0.953126" gradientUnits="userSpaceOnUse">
<stop stop-color="#4480DB"/>
<stop offset="1" stop-color="#7FD9A2"/>
</linearGradient>
</defs>
</svg>
