<svg width="255" height="90" viewBox="0 0 255 90" fill="none" xmlns="http://www.w3.org/2000/svg">
<path d="M78.2115 24.8247C81.993 24.8247 84.8937 25.4889 86.9059 26.8249C88.9181 28.1608 89.9356 30.2365 89.9432 33.0594C90.004 34.584 89.5788 36.086 88.7207 37.3465C87.8095 38.5164 86.5946 39.4071 85.205 39.9354C85.7137 40.5619 86.2453 41.2714 86.8072 42.0865C87.3691 42.9017 87.9158 43.7395 88.4625 44.6226C89.0093 45.5057 89.5256 46.4114 90.042 47.37C90.5583 48.3286 91.0215 49.2645 91.4619 50.1702H85.1291C84.6583 49.3551 84.1951 48.5248 83.7243 47.6719C83.2535 46.819 82.7675 46.0416 82.2512 45.2189C81.7348 44.3962 81.264 43.7093 80.7705 42.9545C80.2769 42.1997 79.7985 41.5959 79.3201 41.0223H76.5182V50.1702H70.8459V25.4738C72.0989 25.2323 73.3669 25.0587 74.6426 24.9681C75.9942 24.9077 77.1712 24.8247 78.2115 24.8247ZM78.5304 29.6327C78.1204 29.6327 77.7711 29.6327 77.4218 29.6327C77.0725 29.6327 76.7839 29.6779 76.4954 29.7157V36.5087H78.0976C80.2313 36.5087 81.75 36.2596 82.6536 35.7539C83.5952 35.1878 84.1343 34.1387 84.0356 33.0443C84.1191 31.9725 83.5724 30.9535 82.6308 30.4252C81.3552 29.8289 79.9504 29.5572 78.538 29.6327H78.5304Z" fill="#F6EFFF"/>
<path d="M96.5723 50.1549V25.1113H113.589V29.8438H102.245V34.765H112.321V39.3918H102.245V45.43H114.394V50.1549H96.5723Z" fill="#F6EFFF"/>
<path d="M118.099 36.939H128.647V41.8148H118.099V36.939Z" fill="#F6EFFF"/>
<path d="M140.834 45.8604C141.494 45.8755 142.163 45.8075 142.808 45.6566C143.256 45.5584 143.689 45.3773 144.069 45.1207C144.365 44.9169 144.593 44.6301 144.722 44.298C144.851 43.9659 144.911 43.6036 144.904 43.2488C144.889 42.411 144.448 41.6411 143.734 41.2034C142.474 40.4486 141.13 39.8599 139.718 39.4447C138.89 39.1579 138.07 38.8258 137.25 38.456C136.445 38.0937 135.693 37.6182 135.025 37.037C133.552 35.7991 132.732 33.9499 132.8 32.0328C132.785 30.9534 133.005 29.8817 133.453 28.9004C133.878 27.9796 134.516 27.172 135.313 26.538C136.179 25.8511 137.166 25.3379 138.229 25.0284C139.482 24.6586 140.781 24.485 142.087 24.5076C143.575 24.4774 145.056 24.6586 146.491 25.0511C147.539 25.3454 148.556 25.7455 149.528 26.2436L147.896 30.6893C147.144 30.2968 146.362 29.9798 145.549 29.7232C144.539 29.4288 143.491 29.2854 142.444 29.308C141.434 29.2326 140.431 29.4288 139.52 29.8666C138.935 30.2364 138.594 30.8931 138.632 31.5799C138.617 31.995 138.73 32.3951 138.958 32.7423C139.201 33.0895 139.513 33.3838 139.877 33.5952C140.317 33.8669 140.781 34.0933 141.259 34.282C141.783 34.4858 142.36 34.6972 142.983 34.9085C144.296 35.3916 145.428 35.8671 146.392 36.335C147.288 36.7502 148.116 37.3087 148.83 37.988C149.467 38.6069 149.953 39.3617 150.265 40.192C150.599 41.1807 150.758 42.2223 150.728 43.2639C150.842 45.3622 149.923 47.3926 148.26 48.6983C146.62 49.9965 144.129 50.6306 140.811 50.6306C139.794 50.6381 138.776 50.5777 137.774 50.4343C136.969 50.3211 136.179 50.1626 135.397 49.9513C134.789 49.7852 134.197 49.5739 133.62 49.3323C133.119 49.1059 132.709 48.9097 132.36 48.7134L133.962 44.2376C134.85 44.698 135.777 45.0678 136.741 45.3396C138.07 45.7245 139.452 45.9056 140.834 45.8604Z" fill="#F6EFFF"/>
<path d="M174.138 40.6222C174.154 42.0185 173.926 43.3998 173.478 44.7206C173.083 45.8981 172.453 46.985 171.61 47.9058C170.775 48.7813 169.772 49.4833 168.656 49.9512C166.181 50.9098 163.424 50.9098 160.949 49.9512C159.825 49.4908 158.815 48.7889 157.987 47.9058C157.137 46.985 156.484 45.8981 156.066 44.7206C155.595 43.4073 155.36 42.0185 155.375 40.6222C155.36 39.2258 155.603 37.837 156.089 36.5312C156.939 34.199 158.731 32.3196 161.04 31.3686C162.232 30.8704 163.508 30.6138 164.799 30.6138C166.105 30.6138 167.395 30.8704 168.595 31.3686C169.719 31.829 170.729 32.5158 171.564 33.3914C172.415 34.2971 173.075 35.3613 173.493 36.5312C173.941 37.8521 174.154 39.2334 174.138 40.6222ZM168.61 40.6222C168.686 39.2409 168.337 37.8748 167.608 36.6973C166.424 35.1274 164.183 34.8028 162.604 35.9803C162.331 36.184 162.088 36.4256 161.883 36.6973C161.139 37.8672 160.782 39.2409 160.858 40.6222C160.789 42.011 161.146 43.3922 161.883 44.5772C163.007 46.1472 165.209 46.517 166.788 45.3924C167.107 45.1659 167.38 44.8942 167.608 44.5772C168.337 43.3922 168.686 42.011 168.61 40.6222Z" fill="#F6EFFF"/>
<path d="M196.129 49.521C194.959 49.838 193.775 50.0947 192.575 50.2758C191.064 50.5022 189.545 50.6155 188.019 50.6155C186.637 50.6532 185.263 50.4343 183.964 49.9663C182.962 49.589 182.081 48.9625 181.405 48.1398C180.752 47.3171 180.297 46.366 180.061 45.3471C179.78 44.1696 179.651 42.9695 179.659 41.7619V31.195H185.073V41.0977C184.982 42.3959 185.217 43.6941 185.764 44.8716C186.22 45.6264 187.085 46.0264 188.346 46.0264C188.733 46.0264 189.143 46.0264 189.576 45.9736C189.971 45.9509 190.358 45.9056 190.745 45.8377V31.1572H196.159L196.129 49.521Z" fill="#F6EFFF"/>
<path d="M214.247 35.9198C213.753 35.799 213.191 35.6783 212.53 35.55C211.839 35.4066 211.126 35.3386 210.419 35.3462C210.009 35.3537 209.599 35.3839 209.197 35.4368C208.832 35.4669 208.476 35.5349 208.126 35.633V50.155H202.743V32.161C203.874 31.7836 205.021 31.4591 206.182 31.2024C207.633 30.8854 209.113 30.7345 210.594 30.7496C210.883 30.7496 211.24 30.7496 211.65 30.8024C212.06 30.8552 212.47 30.893 212.887 30.9458C213.305 30.9986 213.707 31.0817 214.117 31.1722C214.482 31.2402 214.831 31.3458 215.173 31.4817L214.247 35.9198Z" fill="#F6EFFF"/>
<path d="M218.271 40.6523C218.263 39.3238 218.491 38.0105 218.947 36.7651C219.372 35.5877 220.032 34.5008 220.891 33.58C221.771 32.6591 222.827 31.9195 224.004 31.4213C225.317 30.8703 226.73 30.6061 228.15 30.6288C229.091 30.6212 230.033 30.7118 230.952 30.9005C231.795 31.0816 232.622 31.3307 233.42 31.6553L232.296 35.9575C231.749 35.7537 231.195 35.5801 230.625 35.4443C229.949 35.3009 229.251 35.2329 228.56 35.248C227.193 35.1575 225.864 35.716 224.983 36.7576C224.148 37.8822 223.738 39.2635 223.806 40.6598C223.715 42.0712 224.103 43.4751 224.915 44.6375C225.652 45.581 226.942 46.0565 228.788 46.0565C229.494 46.0489 230.2 45.9886 230.899 45.8753C231.605 45.7697 232.303 45.5734 232.964 45.3017L233.723 49.7172C232.956 50.0191 232.167 50.2455 231.354 50.3965C230.329 50.5927 229.281 50.6908 228.233 50.6833C226.699 50.7286 225.166 50.472 223.73 49.9285C222.546 49.4605 221.483 48.736 220.617 47.8151C219.797 46.9018 219.182 45.8225 218.833 44.6526C218.43 43.3544 218.24 42.0033 218.271 40.6523Z" fill="#F6EFFF"/>
<path d="M237.042 40.811C237.004 39.2939 237.262 37.7919 237.801 36.3729C238.264 35.1879 238.97 34.1085 239.874 33.2103C240.702 32.3725 241.696 31.7234 242.797 31.2932C243.883 30.863 245.038 30.6441 246.199 30.6441C248.599 30.5233 250.945 31.4215 252.638 33.1198C254.218 34.7652 255.008 37.1956 255 40.4034C255 40.7129 255 41.0525 254.962 41.4299C254.924 41.8073 254.962 42.1394 254.886 42.4262H242.6C242.699 43.4904 243.276 44.4641 244.164 45.0679C245.265 45.7623 246.564 46.1095 247.87 46.0416C248.849 46.0416 249.829 45.951 250.793 45.7623C251.598 45.6265 252.388 45.4 253.14 45.0906L253.861 49.4683C253.489 49.6419 253.102 49.7853 252.699 49.8985C252.168 50.057 251.621 50.1778 251.074 50.2759C250.474 50.3816 249.837 50.4722 249.161 50.5401C248.485 50.6156 247.809 50.6458 247.126 50.6458C245.592 50.6835 244.066 50.4269 242.63 49.891C241.438 49.4381 240.36 48.7286 239.472 47.8153C238.629 46.9171 237.998 45.8529 237.619 44.6905C237.224 43.4376 237.034 42.1243 237.042 40.811ZM249.761 38.7429C249.738 38.29 249.662 37.8371 249.525 37.4069C249.396 36.9842 249.191 36.5842 248.903 36.2446C248.614 35.8974 248.25 35.6181 247.847 35.4143C247.353 35.1803 246.814 35.0671 246.268 35.0897C245.729 35.0746 245.197 35.1803 244.703 35.3992C244.278 35.5879 243.906 35.8747 243.61 36.2295C243.321 36.5767 243.086 36.9767 242.934 37.3994C242.775 37.8371 242.653 38.2976 242.585 38.758H249.761V38.7429Z" fill="#F6EFFF"/>
<path d="M70.9219 71.0247V62.7222H76.5789V64.2921H72.7822V65.93H76.1309V67.4395H72.8126V69.4397H76.8599V71.0097H70.9219V71.0247Z" fill="#F6EFFF"/>
<path d="M83.4281 70.8058C83.0408 70.9115 82.646 70.9945 82.2435 71.0473C81.7424 71.1228 81.2336 71.1605 80.7248 71.1605C80.2692 71.1756 79.8061 71.1002 79.3808 70.9417C79.0467 70.8133 78.7582 70.602 78.5228 70.3303C78.3102 70.0586 78.1583 69.7416 78.0824 69.4019C77.9912 69.0094 77.9457 68.6094 77.9457 68.2094V64.6845H79.7301V67.9905C79.6997 68.4207 79.7833 68.8434 79.9655 69.2359C80.1629 69.5076 80.4895 69.6585 80.8236 69.6208H81.2336H81.6209V64.6694H83.4205L83.4281 70.8058Z" fill="#F6EFFF"/>
<path d="M88.8422 66.2849C88.6904 66.2396 88.4853 66.2094 88.2727 66.1641C88.0449 66.1188 87.8095 66.0962 87.5741 66.0962C87.4374 66.0962 87.3084 66.1113 87.1717 66.1339C87.0502 66.1415 86.9363 66.1641 86.8224 66.1943V71.0249H85.0455V65.0395C85.4176 64.9112 85.8049 64.7979 86.1921 64.7149C86.6781 64.6092 87.1717 64.564 87.6652 64.564H88.007L88.417 64.6017L88.827 64.6696C88.9485 64.6923 89.0624 64.7225 89.1763 64.7678L88.8422 66.2849Z" fill="#F6EFFF"/>
<path d="M95.8204 67.8549C95.828 68.3154 95.7521 68.7758 95.6002 69.2135C95.4635 69.606 95.2433 69.9683 94.9624 70.2778C94.689 70.5721 94.3473 70.8061 93.9752 70.9571C93.5652 71.1231 93.1248 71.2062 92.6844 71.2062C92.244 71.2137 91.8036 71.1231 91.4011 70.9571C91.029 70.8061 90.6873 70.5721 90.414 70.2778C90.1254 69.9683 89.9052 69.606 89.7685 69.2135C89.4572 68.338 89.4572 67.3719 89.7685 66.4963C89.9128 66.1038 90.1406 65.7491 90.4291 65.4472C90.7101 65.1604 91.0442 64.9264 91.4163 64.7679C91.8111 64.6094 92.2364 64.5264 92.6616 64.5264C93.0944 64.5188 93.5272 64.6018 93.9297 64.7679C94.6966 65.0924 95.2889 65.7189 95.5623 66.4963C95.7445 66.9266 95.828 67.387 95.8204 67.8549ZM93.9828 67.8549C94.0056 67.3945 93.8917 66.9416 93.6487 66.5492C93.4437 66.2397 93.0868 66.0586 92.7072 66.0737C92.3275 66.0586 91.963 66.2397 91.7504 66.5492C91.3024 67.3643 91.3024 68.3531 91.7504 69.1683C91.963 69.4853 92.3275 69.674 92.7072 69.6589C93.0868 69.674 93.4437 69.4853 93.6487 69.1683C93.8917 68.7758 94.0056 68.3154 93.9828 67.8549Z" fill="#F6EFFF"/>
<path d="M103.004 67.8625C103.011 68.3153 102.943 68.7682 102.822 69.206C102.715 69.5834 102.533 69.9306 102.29 70.24C102.055 70.5268 101.759 70.7608 101.424 70.9193C101.045 71.0854 100.635 71.1609 100.225 71.1609C99.9893 71.1609 99.7539 71.1382 99.5185 71.0929C99.2983 71.0476 99.0933 70.9722 98.8882 70.8816V73.2591H97.0886V64.9113C97.2557 64.866 97.4303 64.8132 97.6429 64.7754C97.8555 64.7377 98.0758 64.6999 98.296 64.6698C98.5162 64.6396 98.7667 64.6094 99.0021 64.5867C99.2375 64.5641 99.4653 64.5867 99.6779 64.5867C100.156 64.5792 100.627 64.6547 101.075 64.8207C101.872 65.1 102.495 65.7264 102.768 66.519C102.92 66.9492 103.004 67.4021 103.004 67.8625ZM101.166 67.9078C101.189 67.4398 101.06 66.9718 100.787 66.5869C100.521 66.2472 100.111 66.0585 99.6779 66.0887C99.5261 66.0812 99.3818 66.0812 99.2299 66.0887H98.8958V69.3192C99.0325 69.4022 99.1844 69.4701 99.3438 69.5003C99.5261 69.5381 99.7083 69.5607 99.8981 69.5607C100.733 69.6362 101.166 69.0626 101.166 67.9304V67.9078Z" fill="#F6EFFF"/>
<path d="M103.968 67.9301C103.961 67.4319 104.044 66.9337 104.226 66.4658C104.378 66.0733 104.606 65.711 104.902 65.4091C105.183 65.1374 105.517 64.9185 105.882 64.7675C106.239 64.6241 106.626 64.5486 107.013 64.5486C107.81 64.5109 108.593 64.8053 109.154 65.3714C109.709 66.0507 109.982 66.9111 109.914 67.7866C109.921 67.8999 109.921 68.0206 109.914 68.1338C109.914 68.2546 109.914 68.3603 109.914 68.4659H105.821C105.859 68.8207 106.049 69.1377 106.345 69.3339C106.709 69.5755 107.142 69.6887 107.583 69.6585C107.909 69.6585 108.236 69.6283 108.562 69.5679C108.82 69.5226 109.079 69.4472 109.322 69.349L109.565 70.7982C109.435 70.8511 109.306 70.9039 109.177 70.9416L108.646 71.0699C108.441 71.1077 108.236 71.1379 108.008 71.1605C107.78 71.1681 107.56 71.1681 107.332 71.1605C106.816 71.1756 106.299 71.0926 105.813 70.9114C105.419 70.7605 105.054 70.5265 104.758 70.2246C104.477 69.9302 104.264 69.5679 104.143 69.183C104.014 68.7754 103.953 68.3527 103.968 67.9301ZM108.198 67.2508C108.183 67.0998 108.16 66.9488 108.114 66.8054C108.076 66.662 108.008 66.5337 107.909 66.4205C107.81 66.3073 107.697 66.2092 107.56 66.1412C107.4 66.0582 107.218 66.0205 107.036 66.028C106.861 66.028 106.679 66.0582 106.52 66.1337C106.375 66.1941 106.246 66.2846 106.148 66.3979C106.049 66.5111 105.973 66.6394 105.927 66.7828C105.874 66.9262 105.836 67.0847 105.813 67.2357H108.198V67.2508Z" fill="#F6EFFF"/>
<path d="M113.498 64.5412C113.953 64.5261 114.401 64.5865 114.834 64.7148C115.161 64.8205 115.449 64.9941 115.692 65.2356C115.912 65.4696 116.064 65.7489 116.148 66.0508C116.239 66.398 116.277 66.7603 116.277 67.1226V70.8512C116.026 70.904 115.669 70.972 115.199 71.0475C114.652 71.1305 114.09 71.1682 113.536 71.1607C113.156 71.1682 112.784 71.1305 112.412 71.0475C112.101 70.9871 111.804 70.8663 111.539 70.6927C111.303 70.5342 111.106 70.3078 110.984 70.0511C110.848 69.7492 110.779 69.4171 110.795 69.085C110.787 68.7529 110.863 68.4284 111.022 68.1415C111.159 67.8849 111.372 67.6811 111.622 67.5377C111.88 67.3792 112.169 67.266 112.473 67.2056C113.004 67.0924 113.559 67.0698 114.098 67.1377C114.25 67.1528 114.401 67.183 114.546 67.2132V67.0471C114.568 66.7678 114.462 66.4886 114.265 66.2923C113.991 66.081 113.642 65.9829 113.3 66.0206C112.997 66.0206 112.693 66.0433 112.389 66.0885C112.131 66.1263 111.873 66.1867 111.63 66.2772L111.394 64.8356C111.501 64.8356 111.63 64.7677 111.789 64.7375L112.298 64.6394C112.495 64.6016 112.693 64.579 112.89 64.5639C113.088 64.5337 113.293 64.5261 113.498 64.5412ZM113.642 69.7794C113.824 69.7794 113.991 69.7794 114.158 69.7794H114.546V68.4208C114.439 68.3906 114.333 68.3755 114.219 68.3755H113.824C113.665 68.3604 113.505 68.3604 113.346 68.3755C113.209 68.3982 113.08 68.4359 112.951 68.4887C112.845 68.5416 112.754 68.6246 112.685 68.7227C112.617 68.8284 112.587 68.9567 112.587 69.085C112.564 69.319 112.67 69.5454 112.875 69.6737C113.118 69.7643 113.384 69.8021 113.642 69.7794Z" fill="#F6EFFF"/>
<path d="M117.78 64.9113C118.175 64.8056 118.57 64.7301 118.973 64.6697C119.474 64.5943 119.982 64.5565 120.491 64.5641C120.954 64.549 121.41 64.6169 121.843 64.7679C122.169 64.8962 122.465 65.1075 122.693 65.3717C122.914 65.6359 123.065 65.9529 123.141 66.285C123.232 66.6699 123.278 67.0699 123.27 67.47V71.0401H121.494V67.6889C121.524 67.2662 121.448 66.8435 121.258 66.4586C121.061 66.1944 120.734 66.0585 120.408 66.0963H119.99C119.846 66.0963 119.717 66.0963 119.603 66.1416V71.0174H117.803L117.78 64.9113Z" fill="#F6EFFF"/>
<path d="M133.468 67.8625C133.476 68.3153 133.415 68.7682 133.294 69.206C133.18 69.5758 132.997 69.9306 132.762 70.24C132.527 70.5268 132.231 70.7608 131.889 70.9193C131.509 71.0854 131.099 71.1684 130.689 71.1609C130.454 71.1609 130.218 71.1382 129.991 71.0929C129.77 71.0476 129.558 70.9722 129.353 70.8816V73.2591H127.568V64.9113C127.735 64.866 127.918 64.8132 128.123 64.7754C128.328 64.7377 128.548 64.6999 128.783 64.6698C129.019 64.6396 129.246 64.6094 129.482 64.5867C129.717 64.5641 129.953 64.5867 130.173 64.5867C130.651 64.5792 131.122 64.6547 131.57 64.8207C131.965 64.9566 132.322 65.1905 132.61 65.4849C132.891 65.7793 133.111 66.134 133.256 66.519C133.408 66.9492 133.483 67.4021 133.468 67.8625ZM131.638 67.9078C131.661 67.4398 131.532 66.9718 131.259 66.5869C130.993 66.2472 130.575 66.0585 130.142 66.0887C129.998 66.0812 129.846 66.0812 129.702 66.0887C129.588 66.0812 129.482 66.0812 129.368 66.0887V69.3192C129.505 69.4022 129.649 69.4626 129.808 69.5003C129.991 69.5381 130.18 69.5607 130.37 69.5607C131.213 69.6362 131.638 69.0626 131.638 67.9304V67.9078Z" fill="#F6EFFF"/>
<path d="M137.288 71.1457C136.855 71.1532 136.422 71.0928 136.005 70.9796C135.716 70.8966 135.458 70.7456 135.245 70.5418C135.055 70.3531 134.919 70.1116 134.85 69.855C134.782 69.5606 134.752 69.2512 134.752 68.9492V61.9826L136.551 61.6958V68.5869C136.551 68.7304 136.567 68.8738 136.589 69.0172C136.604 69.1304 136.65 69.2361 136.718 69.3342C136.802 69.4323 136.908 69.5078 137.022 69.5606C137.189 69.621 137.364 69.6587 137.546 69.6663L137.288 71.1457Z" fill="#F6EFFF"/>
<path d="M140.91 64.5412C141.366 64.5261 141.814 64.5865 142.246 64.7148C142.565 64.8205 142.861 65.0017 143.097 65.2356C143.317 65.4621 143.476 65.7413 143.552 66.0508C143.644 66.398 143.689 66.7603 143.689 67.1226V70.8512C143.431 70.904 143.082 70.972 142.611 71.0475C142.057 71.1305 141.502 71.1682 140.94 71.1607C140.561 71.1607 140.189 71.1229 139.816 71.0475C139.505 70.9871 139.217 70.8663 138.951 70.6927C138.715 70.5342 138.518 70.3078 138.397 70.0511C138.26 69.7492 138.191 69.4171 138.207 69.085C138.199 68.7605 138.275 68.4284 138.427 68.1415C138.571 67.8925 138.776 67.6811 139.027 67.5377C139.293 67.3792 139.581 67.266 139.885 67.2056C140.416 67.0924 140.971 67.0698 141.51 67.1377C141.662 67.1528 141.814 67.183 141.958 67.2132V67.0471C141.981 66.7678 141.874 66.4886 141.677 66.2923C141.403 66.081 141.054 65.9829 140.712 66.0206C140.409 66.0206 140.105 66.0433 139.801 66.0885C139.543 66.1187 139.285 66.1867 139.042 66.2772L138.807 64.8356C138.936 64.7979 139.065 64.7601 139.201 64.7375L139.71 64.6394C139.9 64.6016 140.097 64.579 140.295 64.5639C140.5 64.5337 140.705 64.5261 140.91 64.5412ZM141.054 69.7794C141.229 69.7794 141.396 69.7794 141.563 69.7794H141.958V68.4208C141.851 68.3906 141.745 68.3755 141.631 68.3755H141.229C141.069 68.3604 140.91 68.3604 140.75 68.3755C140.614 68.3982 140.485 68.4359 140.363 68.4887C140.257 68.5416 140.166 68.6246 140.097 68.7227C140.029 68.8284 139.991 68.9567 139.999 69.085C139.976 69.319 140.09 69.5454 140.287 69.6737C140.53 69.7719 140.796 69.8096 141.054 69.7794Z" fill="#F6EFFF"/>
<path d="M145.132 63.1223L146.939 62.8354V64.7073H149.103V66.2169H146.939V68.4812C146.924 68.7982 146.992 69.1077 147.137 69.3869C147.311 69.6209 147.6 69.7492 147.896 69.719C148.101 69.719 148.306 69.6964 148.503 69.6587C148.693 69.6285 148.883 69.5832 149.065 69.5152L149.323 70.9116C149.088 71.0097 148.845 71.0852 148.602 71.1456C148.283 71.2135 147.949 71.2437 147.623 71.2437C147.205 71.2588 146.787 71.1909 146.4 71.0399C146.104 70.9191 145.846 70.7304 145.641 70.4889C145.436 70.2398 145.299 69.9455 145.231 69.6285C145.155 69.2586 145.117 68.8888 145.117 68.5114V63.1223H145.132Z" fill="#F6EFFF"/>
<path d="M153.196 61.6958C153.507 61.6958 153.826 61.726 154.13 61.7939C154.358 61.8467 154.578 61.9147 154.791 61.9977L154.434 63.4016C154.267 63.3336 154.092 63.2733 153.91 63.2355C153.735 63.1978 153.56 63.1751 153.386 63.1751C153.196 63.1751 153.006 63.2053 152.831 63.2657C152.695 63.3185 152.573 63.4016 152.475 63.5072C152.383 63.6129 152.323 63.7488 152.3 63.8846C152.262 64.0356 152.239 64.1941 152.239 64.3526V64.6621H154.464V66.1716H152.239V71.0022H150.44V64.3526C150.402 63.6356 150.652 62.9412 151.131 62.4053C151.692 61.8996 152.437 61.6429 153.196 61.6958Z" fill="#F6EFFF"/>
<path d="M161.268 67.8547C161.275 68.3151 161.199 68.7755 161.047 69.2133C160.911 69.6058 160.698 69.968 160.417 70.2775C160.151 70.5643 159.825 70.7908 159.46 70.9493C159.05 71.1153 158.61 71.1983 158.17 71.1983C157.729 71.2059 157.296 71.1153 156.894 70.9493C156.522 70.7983 156.18 70.5643 155.907 70.27C155.618 69.968 155.398 69.6058 155.261 69.2057C154.95 68.3302 154.95 67.3641 155.261 66.4885C155.406 66.096 155.626 65.7413 155.914 65.4394C156.195 65.1525 156.529 64.9261 156.902 64.7601C157.296 64.6016 157.722 64.5185 158.147 64.5185C158.58 64.511 159.012 64.594 159.415 64.7601C159.787 64.9186 160.129 65.145 160.41 65.4394C161.002 66.1036 161.321 66.964 161.306 67.8471L161.268 67.8547ZM159.438 67.8547C159.46 67.3942 159.347 66.9414 159.104 66.5489C158.891 66.2394 158.534 66.0583 158.154 66.0734C157.775 66.0583 157.41 66.2394 157.198 66.5489C156.75 67.3641 156.75 68.3528 157.198 69.168C157.41 69.485 157.775 69.6737 158.154 69.6586C158.534 69.6737 158.899 69.485 159.104 69.168C159.354 68.7755 159.483 68.3151 159.46 67.8547H159.438Z" fill="#F6EFFF"/>
<path d="M166.37 66.2849C166.219 66.2396 166.029 66.2094 165.808 66.1641C165.581 66.1188 165.345 66.0962 165.11 66.0962C164.973 66.0962 164.829 66.1113 164.692 66.1339C164.571 66.1415 164.449 66.1641 164.335 66.1943V71.0249H162.536V65.0395C162.908 64.9112 163.295 64.7979 163.682 64.7149C164.161 64.6092 164.654 64.564 165.148 64.564H165.505L165.915 64.6017L166.332 64.6696C166.454 64.6923 166.568 64.73 166.682 64.7678L166.37 66.2849Z" fill="#F6EFFF"/>
<path d="M171.025 67.6662C171.056 67.2435 170.972 66.8284 170.797 66.4434C170.638 66.1868 170.342 66.0434 170.038 66.0736H169.681C169.56 66.0736 169.453 66.0736 169.339 66.1189V70.9948H167.54V64.9112L168.071 64.7829C168.284 64.7376 168.497 64.6923 168.724 64.6622C168.952 64.632 169.195 64.5942 169.438 64.5716C169.681 64.5489 169.917 64.5716 170.152 64.5716C170.532 64.5565 170.919 64.6169 171.276 64.7452C171.534 64.8433 171.777 64.9867 171.989 65.1679C172.255 64.9716 172.559 64.8282 172.878 64.7376C173.174 64.6395 173.485 64.5867 173.797 64.5791C174.222 64.564 174.647 64.632 175.042 64.7905C175.346 64.9188 175.604 65.1226 175.801 65.3867C175.999 65.6585 176.135 65.9755 176.196 66.3076C176.28 66.6925 176.318 67.0926 176.31 67.485V71.025H174.51V67.6813C174.541 67.2586 174.465 66.8359 174.29 66.451C174.123 66.2019 173.835 66.0585 173.531 66.0887C173.394 66.0962 173.258 66.1113 173.128 66.1491C172.977 66.1868 172.832 66.2472 172.696 66.3302C172.749 66.5265 172.787 66.7227 172.802 66.919C172.802 67.1152 172.802 67.3341 172.802 67.5681V71.0174H171.002V67.6662H171.025Z" fill="#F6EFFF"/>
<path d="M183.364 61.6958C183.676 61.6958 183.995 61.726 184.298 61.7939C184.519 61.8467 184.739 61.9147 184.951 61.9977L184.602 63.4016C184.435 63.3336 184.26 63.2733 184.078 63.2355C183.904 63.1978 183.729 63.1751 183.554 63.1751C183.364 63.1751 183.175 63.2053 183 63.2657C182.863 63.3185 182.742 63.4016 182.643 63.5072C182.552 63.6205 182.491 63.7488 182.461 63.8846C182.43 64.0356 182.408 64.1941 182.408 64.3526V64.6621H184.632V66.1716H182.408V71.0022H180.608V64.3526C180.57 63.6356 180.821 62.9412 181.299 62.4053C181.861 61.8996 182.605 61.6429 183.364 61.6958Z" fill="#F6EFFF"/>
<path d="M191.451 67.8549C191.451 68.3154 191.375 68.7758 191.223 69.2135C191.087 69.606 190.874 69.9683 190.593 70.2778C190.32 70.5721 189.978 70.8061 189.606 70.9571C189.196 71.1231 188.756 71.2062 188.315 71.2062C187.875 71.2137 187.434 71.1231 187.032 70.9571C186.66 70.8061 186.318 70.5721 186.045 70.2778C185.756 69.9683 185.536 69.606 185.399 69.2135C185.088 68.338 185.088 67.3719 185.399 66.4963C185.544 66.1114 185.771 65.7491 186.052 65.4472C186.333 65.1604 186.675 64.9264 187.047 64.7679C187.442 64.6094 187.867 64.5264 188.292 64.5264C188.725 64.5188 189.158 64.6018 189.561 64.7679C189.933 64.9264 190.267 65.1604 190.548 65.4472C190.836 65.7491 191.056 66.1038 191.193 66.4963C191.368 66.9266 191.459 67.387 191.451 67.8549ZM189.606 67.8549C189.629 67.3945 189.515 66.9416 189.272 66.5492C189.059 66.2397 188.702 66.0586 188.323 66.0737C187.943 66.0586 187.579 66.2397 187.366 66.5492C186.918 67.3643 186.918 68.3531 187.366 69.1683C187.579 69.4853 187.943 69.674 188.323 69.6589C188.702 69.674 189.067 69.4853 189.272 69.1683C189.515 68.7758 189.629 68.3154 189.606 67.8549Z" fill="#F6EFFF"/>
<path d="M196.554 66.2846C196.387 66.2393 196.197 66.2091 195.984 66.1638C195.757 66.1185 195.521 66.0959 195.286 66.0959C195.149 66.0959 195.02 66.111 194.883 66.1336C194.762 66.1412 194.64 66.1638 194.527 66.194V71.0246H192.727V65.0392C193.099 64.9109 193.486 64.7977 193.874 64.7147C194.352 64.609 194.845 64.5561 195.339 64.5637H195.696L196.106 64.6014C196.243 64.6014 196.387 64.6467 196.516 64.6694C196.637 64.692 196.759 64.7297 196.873 64.7675L196.554 66.2846Z" fill="#F6EFFF"/>
<path d="M200.176 67.8624C200.176 67.4246 200.252 66.9868 200.404 66.5717C200.548 66.1792 200.761 65.8245 201.042 65.515C201.33 65.198 201.679 64.9414 202.067 64.7602C202.507 64.5791 202.978 64.4885 203.449 64.496C203.76 64.496 204.071 64.5262 204.383 64.5866C204.664 64.647 204.937 64.73 205.203 64.8432L204.823 66.2698C204.641 66.1943 204.459 66.1415 204.269 66.1037C204.049 66.0509 203.821 66.0207 203.593 66.0207C203.137 65.9905 202.697 66.1717 202.401 66.5189C202.127 66.8962 201.991 67.3567 202.014 67.8171C201.983 68.285 202.112 68.7455 202.378 69.1379C202.712 69.4851 203.19 69.6587 203.669 69.6059C203.904 69.6059 204.14 69.5833 204.367 69.5455C204.603 69.5078 204.838 69.4474 205.058 69.3644L205.317 70.8287C205.074 70.9268 204.815 71.0098 204.557 71.0626C204.216 71.1306 203.874 71.1683 203.525 71.1608C203.008 71.1759 202.492 71.0928 202.006 70.9117C201.216 70.6098 200.616 69.9607 200.381 69.1606C200.252 68.7379 200.183 68.3001 200.176 67.8624Z" fill="#F6EFFF"/>
<path d="M212.052 67.8549C212.06 68.3154 211.984 68.7758 211.832 69.2135C211.695 69.606 211.475 69.9683 211.194 70.2778C210.921 70.5721 210.579 70.8061 210.207 70.9571C209.797 71.1231 209.356 71.2062 208.916 71.2062C208.476 71.2137 208.043 71.1231 207.64 70.9571C207.268 70.8061 206.926 70.5721 206.653 70.2778C206.365 69.9759 206.144 69.6136 206.008 69.2135C205.696 68.338 205.696 67.3719 206.008 66.4963C206.152 66.1038 206.372 65.7491 206.661 65.4472C206.942 65.1604 207.276 64.9339 207.648 64.7679C208.043 64.6094 208.468 64.5264 208.893 64.5264C209.326 64.5188 209.759 64.6018 210.161 64.7679C210.533 64.9264 210.875 65.1528 211.156 65.4472C211.437 65.7491 211.657 66.1114 211.801 66.4963C211.976 66.9266 212.06 67.387 212.052 67.8549ZM210.222 67.8549C210.245 67.3945 210.131 66.9416 209.888 66.5492C209.675 66.2397 209.318 66.0586 208.939 66.0737C208.559 66.0586 208.195 66.2397 207.982 66.5492C207.534 67.3643 207.534 68.3531 207.982 69.1683C208.195 69.4853 208.559 69.674 208.939 69.6589C209.318 69.674 209.683 69.4853 209.888 69.1683C210.131 68.7758 210.245 68.3154 210.222 67.8549Z" fill="#F6EFFF"/>
<path d="M217.17 66.2846C217.003 66.2393 216.821 66.2091 216.608 66.1638C216.373 66.1185 216.137 66.0959 215.902 66.0959C215.773 66.0959 215.636 66.111 215.507 66.1336C215.386 66.1412 215.264 66.1638 215.15 66.194V71.0246H213.373V65.0392C213.745 64.9109 214.125 64.7977 214.512 64.7147C214.998 64.609 215.492 64.5561 215.985 64.5637H216.342L216.752 64.6014L217.162 64.6694C217.284 64.692 217.405 64.7297 217.519 64.7675L217.17 66.2846Z" fill="#F6EFFF"/>
<path d="M224.216 67.8625C224.224 68.3153 224.163 68.7682 224.042 69.206C223.928 69.5758 223.746 69.9306 223.51 70.24C223.275 70.5268 222.979 70.7608 222.637 70.9193C222.257 71.0854 221.847 71.1684 221.437 71.1609C221.202 71.1609 220.967 71.1382 220.739 71.0929C220.519 71.0476 220.306 70.9722 220.101 70.8816V73.2591H218.301V64.9113C218.468 64.866 218.651 64.8132 218.856 64.7754C219.061 64.7377 219.281 64.6999 219.516 64.6698C219.752 64.6396 219.979 64.6094 220.215 64.5867C220.45 64.5641 220.686 64.5867 220.906 64.5867C221.384 64.5792 221.855 64.6547 222.303 64.8207C222.698 64.9566 223.055 65.1905 223.343 65.4849C223.632 65.7793 223.852 66.134 223.989 66.519C224.148 66.9492 224.224 67.4021 224.216 67.8625ZM222.386 67.9078C222.409 67.4398 222.28 66.9718 222.007 66.5869C221.741 66.2472 221.323 66.0585 220.891 66.0887C220.746 66.0812 220.594 66.0812 220.45 66.0887C220.336 66.0812 220.23 66.0812 220.116 66.0887V69.3192C220.253 69.4022 220.405 69.4701 220.564 69.5003C220.746 69.5381 220.929 69.5607 221.118 69.5607C221.954 69.6362 222.386 69.0626 222.386 67.9304V67.9078Z" fill="#F6EFFF"/>
<path d="M231.438 67.8547C231.446 68.3151 231.37 68.7755 231.21 69.2133C231.073 69.6058 230.861 69.9681 230.58 70.2775C230.306 70.5719 229.965 70.8059 229.593 70.9568C229.183 71.1229 228.742 71.2059 228.302 71.2059C227.869 71.2059 227.436 71.1153 227.041 70.9493C226.669 70.7983 226.328 70.5643 226.054 70.27C225.766 69.9605 225.545 69.5982 225.409 69.2057C225.097 68.3302 225.097 67.3641 225.409 66.4885C225.553 66.1036 225.781 65.7413 226.062 65.4394C226.343 65.1525 226.684 64.9186 227.057 64.7601C227.451 64.594 227.877 64.511 228.309 64.5185C228.742 64.511 229.175 64.594 229.578 64.7601C230.344 65.0771 230.944 65.7035 231.21 66.4885C231.37 66.9263 231.446 67.3867 231.438 67.8547ZM229.6 67.8547C229.623 67.3943 229.509 66.9414 229.266 66.5489C229.061 66.2394 228.704 66.0583 228.325 66.0734C227.945 66.0583 227.58 66.2319 227.368 66.5489C226.92 67.3641 226.92 68.3528 227.368 69.168C227.58 69.485 227.937 69.6737 228.325 69.6586C228.704 69.6737 229.061 69.485 229.266 69.168C229.509 68.7755 229.623 68.3151 229.6 67.8547Z" fill="#F6EFFF"/>
<path d="M236.541 66.2849C236.381 66.2396 236.184 66.2094 235.971 66.1641C235.743 66.1188 235.508 66.0962 235.272 66.0962C235.136 66.0962 235.007 66.1113 234.87 66.1339C234.749 66.1415 234.627 66.1641 234.513 66.1943V71.0249H232.714V65.0395C233.086 64.9112 233.473 64.7979 233.86 64.7149C234.338 64.6092 234.832 64.564 235.326 64.564H235.675L236.085 64.6017L236.495 64.6696C236.609 64.6923 236.723 64.7225 236.837 64.7678L236.541 66.2849Z" fill="#F6EFFF"/>
<path d="M239.851 64.5415C240.307 64.5264 240.755 64.5868 241.188 64.7151C241.507 64.8208 241.803 65.0019 242.046 65.2359C242.266 65.4699 242.418 65.7492 242.501 66.0511C242.592 66.3983 242.63 66.7606 242.63 67.1229V70.8515C242.38 70.9043 242.023 70.9722 241.552 71.0477C241.005 71.1307 240.443 71.1685 239.889 71.1609C239.51 71.1685 239.137 71.1307 238.765 71.0477C238.454 70.9873 238.158 70.8666 237.9 70.693C237.657 70.5345 237.459 70.3156 237.338 70.0514C237.201 69.7495 237.133 69.4174 237.148 69.0853C237.14 68.7532 237.216 68.4286 237.376 68.1418C237.512 67.8852 237.725 67.6814 237.976 67.538C238.241 67.3795 238.53 67.2663 238.834 67.2059C239.16 67.138 239.494 67.1002 239.828 67.1002C240.033 67.0851 240.246 67.0851 240.451 67.1002C240.603 67.1153 240.755 67.1379 240.899 67.1757V67.0096C240.922 66.7304 240.816 66.4511 240.618 66.2549C240.345 66.0435 239.995 65.9454 239.654 65.9831C239.35 65.9831 239.046 66.0058 238.743 66.0511C238.484 66.0888 238.226 66.1492 237.983 66.2398L237.755 64.7981C237.885 64.7604 238.014 64.7227 238.143 64.7L238.651 64.6019C238.849 64.5641 239.046 64.5415 239.244 64.5264C239.449 64.5113 239.646 64.5189 239.851 64.5415ZM239.995 69.7797C240.178 69.7797 240.345 69.7797 240.512 69.7797H240.899V68.4211C240.793 68.3909 240.686 68.3758 240.573 68.3758H240.178C240.018 68.3607 239.859 68.3607 239.699 68.3758C239.563 68.3909 239.434 68.4362 239.312 68.489C239.077 68.5947 238.932 68.8287 238.94 69.0853C238.917 69.3193 239.024 69.5457 239.221 69.674C239.472 69.7646 239.73 69.7948 239.995 69.7797Z" fill="#F6EFFF"/>
<path d="M244.081 63.1223L245.88 62.8354V64.7073H248.052V66.2169H245.88V68.4812C245.865 68.7982 245.933 69.1077 246.078 69.3869C246.268 69.636 246.571 69.7568 246.883 69.719C247.088 69.719 247.285 69.6964 247.483 69.6587C247.672 69.6285 247.855 69.5832 248.037 69.5152L248.295 70.9116C248.06 71.0022 247.817 71.0852 247.574 71.1456C247.255 71.2135 246.921 71.2437 246.594 71.2437C246.176 71.2588 245.759 71.1909 245.372 71.0399C245.075 70.9191 244.817 70.7304 244.612 70.4889C244.407 70.2398 244.271 69.9455 244.21 69.6285C244.134 69.2586 244.096 68.8888 244.103 68.5114V63.1223H244.081Z" fill="#F6EFFF"/>
<path d="M248.834 67.9304C248.811 67.4171 248.887 66.9039 249.062 66.4208C249.222 66.0283 249.449 65.6736 249.745 65.3641C250.026 65.0848 250.353 64.8659 250.717 64.7225C251.082 64.5791 251.469 64.5036 251.856 64.5036C252.654 64.4659 253.428 64.7678 253.99 65.3264C254.544 66.0057 254.818 66.8661 254.749 67.7417C254.757 67.8549 254.757 67.9756 254.749 68.0889C254.749 68.2096 254.749 68.3153 254.749 68.421H250.664C250.695 68.7757 250.884 69.0927 251.181 69.289C251.553 69.5229 251.986 69.6362 252.418 69.6135C252.745 69.6135 253.071 69.5833 253.398 69.5229C253.656 69.4777 253.914 69.4022 254.157 69.3041L254.408 70.7532C254.301 70.7532 254.18 70.8514 254.013 70.8966L253.481 71.025C253.284 71.0627 253.071 71.0929 252.851 71.1155C252.631 71.1382 252.388 71.1155 252.168 71.1155C251.651 71.1306 251.135 71.0476 250.649 70.8665C250.254 70.7155 249.89 70.4815 249.594 70.1796C249.305 69.8852 249.1 69.5305 248.979 69.138C248.865 68.7455 248.811 68.3379 248.834 67.9304ZM253.071 67.2511C253.064 67.1001 253.041 66.9491 252.995 66.8057C252.957 66.6623 252.889 66.534 252.798 66.4208C252.699 66.3 252.578 66.2095 252.441 66.1415C252.282 66.0585 252.099 66.0208 251.917 66.0283C251.735 66.0283 251.56 66.0585 251.393 66.134C251.257 66.1944 251.127 66.2849 251.029 66.3981C250.93 66.5114 250.854 66.6397 250.809 66.7831C250.755 66.9265 250.717 67.0775 250.695 67.236H253.071V67.2511Z" fill="#F6EFFF"/>
<path d="M74.635 83.0259C74.468 82.9807 74.2782 82.9429 74.0655 82.9052C73.8377 82.8599 73.6023 82.8373 73.3669 82.8373C73.2303 82.8297 73.1012 82.8297 72.9645 82.8373C72.843 82.8523 72.7291 82.875 72.6152 82.9052V87.7358H70.808V81.7428C71.1345 81.6372 71.5142 81.5239 71.9546 81.4258C72.433 81.3126 72.9265 81.2598 73.4201 81.2673H73.777L74.1946 81.3126C74.3237 81.3126 74.468 81.3579 74.6047 81.3805C74.7262 81.4032 74.8477 81.4409 74.9616 81.4786L74.635 83.0259Z" fill="#F6EFFF"/>
<path d="M75.3564 84.6563C75.3412 84.143 75.4323 83.6298 75.6146 83.1467C75.7665 82.7542 76.0018 82.3919 76.3056 82.0976C76.5865 81.8183 76.9206 81.5994 77.2851 81.456C77.642 81.3126 78.0293 81.2371 78.4165 81.2371C79.2138 81.1994 79.9884 81.4937 80.5503 82.0523C81.1046 82.7316 81.378 83.5996 81.3096 84.4751C81.3096 84.5733 81.3096 84.694 81.3096 84.8148C81.3096 84.9355 81.3096 85.0488 81.3096 85.1469H77.2168C77.2472 85.5016 77.4446 85.8262 77.7407 86.0224C78.1052 86.2489 78.538 86.3621 78.9709 86.3394C79.2974 86.3394 79.6239 86.3092 79.9504 86.2564C80.2086 86.2111 80.4668 86.1357 80.7097 86.03L80.9527 87.4792C80.8312 87.5395 80.7021 87.5848 80.5655 87.6226L80.0263 87.7584C79.8289 87.7584 79.6163 87.8264 79.3961 87.8415C79.1683 87.8565 78.9405 87.8565 78.7127 87.8415C78.1963 87.8565 77.68 87.766 77.194 87.5848C76.7992 87.4339 76.4347 87.1999 76.1385 86.898C75.8652 86.6036 75.6526 86.2489 75.5311 85.8639C75.402 85.479 75.3412 85.0639 75.3564 84.6563ZM79.5859 83.9694C79.5707 83.8185 79.548 83.6751 79.51 83.5317C79.4644 83.3882 79.3961 83.2524 79.305 83.1392C79.2063 83.026 79.0848 82.9278 78.9481 82.8674C78.7886 82.7844 78.6064 82.7467 78.4241 82.7542C78.2495 82.7467 78.0672 82.7844 77.9078 82.8523C77.7711 82.9127 77.642 83.0033 77.5357 83.1165C77.437 83.2297 77.3611 83.3656 77.3155 83.509C77.2623 83.6524 77.2244 83.8109 77.2016 83.9619H79.5859V83.9694Z" fill="#F6EFFF"/>
<path d="M82.6005 81.6595C82.9878 81.5539 83.3826 81.4708 83.785 81.418C84.2862 81.3425 84.795 81.3048 85.3037 81.3048C85.7593 81.2897 86.2149 81.3576 86.6477 81.5161C86.9818 81.6369 87.278 81.8482 87.5058 82.1124C87.726 82.3841 87.8703 82.6936 87.9462 83.0332C88.0449 83.4182 88.0905 83.8107 88.0829 84.2107V87.7808H86.2833V84.4371C86.3212 84.0144 86.2377 83.5918 86.0479 83.2068C85.8428 82.9427 85.5239 82.8068 85.1898 82.8445H84.7798C84.6507 82.8521 84.5216 82.8672 84.3925 82.8898V87.7581H82.5929L82.6005 81.6595Z" fill="#F6EFFF"/>
<path d="M89.3054 84.6563C89.2903 84.143 89.3738 83.6298 89.556 83.1467C89.7155 82.7542 89.9509 82.3995 90.247 82.0976C90.528 81.8183 90.8621 81.5994 91.2266 81.456C91.5835 81.3126 91.9707 81.2371 92.358 81.2371C93.1553 81.1994 93.9298 81.4937 94.4993 82.0523C95.0536 82.7316 95.327 83.5996 95.2586 84.4751C95.2662 84.5883 95.2662 84.7016 95.2586 84.8148C95.2586 84.9355 95.2586 85.0488 95.2586 85.1469H91.1658C91.1962 85.5016 91.3936 85.8262 91.6898 86.0224C92.0618 86.2489 92.4947 86.3621 92.9275 86.3394C93.254 86.3394 93.5805 86.3092 93.8994 86.2564C94.1576 86.2111 94.4158 86.1356 94.6588 86.03L94.9169 87.5546C94.7954 87.615 94.6664 87.6603 94.5297 87.698L93.9981 87.8339C93.7931 87.8339 93.5805 87.9018 93.3603 87.9169C93.1325 87.9245 92.9123 87.9245 92.6845 87.9169C92.1681 87.932 91.6518 87.8415 91.1658 87.6603C90.7634 87.5093 90.4065 87.2754 90.1028 86.9735C89.8294 86.6791 89.6244 86.3243 89.4953 85.9394C89.351 85.5243 89.2827 85.0941 89.3054 84.6563ZM93.5274 83.9694C93.5198 83.8185 93.497 83.6751 93.4514 83.5317C93.4059 83.3882 93.3451 83.2599 93.254 83.1392C93.1553 83.0259 93.0338 82.9278 92.8971 82.8674C92.7376 82.7844 92.5554 82.7467 92.3732 82.7542C92.1909 82.7467 92.0163 82.7844 91.8492 82.8523C91.7125 82.9203 91.5911 83.0033 91.4847 83.1165C91.386 83.2297 91.3101 83.3656 91.2569 83.509C91.2038 83.6524 91.1734 83.8109 91.1506 83.9619H93.5274V83.9694Z" fill="#F6EFFF"/>
<path d="M100.422 84.1355C100.27 84.7469 100.088 85.3507 99.9134 85.947C99.7387 86.5432 99.5337 87.1546 99.3363 87.7584H97.9543C97.81 87.4263 97.6506 87.0036 97.4911 86.5583C97.3317 86.113 97.1418 85.5847 96.9672 85.0488C96.7925 84.5129 96.5951 83.9166 96.4053 83.2977C96.2154 82.6788 96.0332 82.0598 95.851 81.4409H97.7569C97.8176 81.7277 97.886 82.0523 97.9619 82.3919C98.0378 82.7316 98.1214 83.0788 98.2125 83.4411C98.3036 83.8034 98.3871 84.1959 98.4783 84.528C98.5694 84.8601 98.6681 85.2827 98.7668 85.5771C98.8655 85.2224 98.9794 84.8676 99.0781 84.4902C99.1768 84.1128 99.2756 83.7354 99.3667 83.4109C99.4578 83.0863 99.5413 82.7165 99.6324 82.3693C99.7236 82.0221 99.7919 81.7277 99.8526 81.4409H101.159C101.227 81.7277 101.288 82.0372 101.379 82.3693C101.47 82.7014 101.546 83.0486 101.637 83.4109C101.728 83.7732 101.812 84.1657 101.91 84.4902C102.009 84.8148 102.115 85.245 102.214 85.5771C102.313 85.245 102.404 84.8903 102.503 84.528C102.601 84.1657 102.693 83.7732 102.784 83.4411C102.875 83.109 102.951 82.7391 103.027 82.3919L103.239 81.4409H105.115C104.94 82.0749 104.75 82.6939 104.561 83.2977C104.371 83.9015 104.181 84.4902 104.006 85.0488C103.832 85.6073 103.649 86.1055 103.467 86.5583C103.285 87.0112 103.133 87.4188 102.989 87.7584H101.592C101.394 87.1546 101.189 86.5432 100.999 85.947C100.779 85.3507 100.582 84.7469 100.422 84.1355Z" fill="#F6EFFF"/>
<path d="M108.076 81.2823C108.524 81.2673 108.972 81.3352 109.405 81.4635C109.731 81.5616 110.028 81.7428 110.263 81.9843C110.483 82.2107 110.635 82.4975 110.719 82.7995C110.817 83.1466 110.863 83.5089 110.855 83.8712V87.5923C110.597 87.6527 110.24 87.7206 109.777 87.7961C109.223 87.8791 108.668 87.9093 108.106 87.9018C107.727 87.9093 107.355 87.8716 106.983 87.7961C106.671 87.7357 106.375 87.6149 106.117 87.4413C105.874 87.2828 105.677 87.064 105.548 86.7998C105.411 86.4979 105.342 86.1582 105.358 85.8261C105.35 85.5016 105.426 85.177 105.578 84.8902C105.715 84.6336 105.927 84.4222 106.178 84.2788C106.444 84.1279 106.732 84.0146 107.036 83.9467C107.362 83.8788 107.704 83.8486 108.038 83.8486C108.243 83.8335 108.456 83.8335 108.661 83.8486C108.813 83.8637 108.957 83.8939 109.101 83.9316V83.7807C109.124 83.5014 109.025 83.2221 108.828 83.0259C108.554 82.8145 108.205 82.7089 107.856 82.7466C107.552 82.7466 107.248 82.7693 106.945 82.8146C106.687 82.8523 106.436 82.9202 106.185 83.0032L105.95 81.5692C106.064 81.5465 106.185 81.5239 106.307 81.5163L106.816 81.4107L107.408 81.3352C107.628 81.2899 107.848 81.2748 108.076 81.2823ZM108.22 86.5205H108.729H109.116V85.1544C109.01 85.1393 108.904 85.1393 108.797 85.1544H108.395C108.236 85.1393 108.076 85.1393 107.917 85.1544C107.78 85.1695 107.651 85.2072 107.529 85.2676C107.423 85.3129 107.324 85.3959 107.264 85.494C107.195 85.6072 107.157 85.7355 107.157 85.8639C107.135 86.0978 107.248 86.3243 107.453 86.445C107.696 86.5281 107.962 86.5583 108.22 86.5205Z" fill="#F6EFFF"/>
<path d="M118.259 84.6106C118.266 85.0786 118.191 85.539 118.039 85.9843C117.894 86.3768 117.674 86.7316 117.393 87.0335C117.097 87.3278 116.74 87.5543 116.345 87.6977C115.897 87.8562 115.427 87.9317 114.948 87.9241C114.72 87.9241 114.5 87.9241 114.265 87.9241L113.566 87.8486C113.331 87.8486 113.118 87.7807 112.913 87.7354L112.382 87.5543V78.7233L114.189 78.4365V81.5915C114.394 81.5009 114.599 81.433 114.819 81.3877C115.047 81.3424 115.282 81.3122 115.518 81.3122C115.928 81.3047 116.338 81.3802 116.717 81.5462C117.059 81.6972 117.355 81.9236 117.591 82.2104C117.834 82.5199 118.016 82.8671 118.122 83.2445C118.228 83.6898 118.274 84.1502 118.259 84.6106ZM116.421 84.5653C116.421 83.4181 116.004 82.8293 115.146 82.8293C114.956 82.8293 114.774 82.852 114.591 82.8973C114.439 82.935 114.288 82.9954 114.143 83.0709V86.3315C114.257 86.3542 114.363 86.3693 114.477 86.3768C114.629 86.3844 114.774 86.3844 114.925 86.3768C115.358 86.407 115.776 86.2183 116.034 85.8711C116.3 85.4786 116.436 85.0107 116.421 84.5351V84.5653Z" fill="#F6EFFF"/>
<path d="M122.071 87.8942C121.638 87.8942 121.213 87.8338 120.795 87.7281C120.507 87.6451 120.248 87.4866 120.036 87.2828C119.846 87.0941 119.709 86.8601 119.649 86.6035C119.58 86.3091 119.542 85.9997 119.55 85.6978V78.7312L121.349 78.4443V85.3279C121.349 85.4713 121.365 85.6148 121.387 85.7582C121.395 85.8789 121.441 85.9921 121.516 86.0827C121.6 86.1808 121.706 86.2563 121.82 86.3016C121.987 86.362 122.162 86.3997 122.337 86.4148L122.071 87.8942Z" fill="#F6EFFF"/>
<path d="M122.929 84.6563C122.914 84.143 123.005 83.6298 123.187 83.1467C123.339 82.7542 123.567 82.3995 123.863 82.0976C124.144 81.8183 124.478 81.5994 124.842 81.456C125.199 81.3126 125.586 81.2371 125.974 81.2371C126.771 81.1994 127.553 81.4937 128.123 82.0523C128.677 82.7316 128.95 83.5996 128.882 84.4751C128.89 84.5883 128.89 84.7016 128.882 84.8148C128.882 84.9355 128.882 85.0488 128.882 85.1469H124.797C124.812 85.5092 124.994 85.8413 125.29 86.0451C125.662 86.2791 126.095 86.3847 126.528 86.3621C126.855 86.3621 127.181 86.3319 127.508 86.2791C127.766 86.2338 128.024 86.1583 128.267 86.0526L128.518 87.5018C128.388 87.5622 128.259 87.6075 128.123 87.6452L127.591 87.7811C127.394 87.7811 127.181 87.849 126.961 87.8641C126.741 87.8792 126.498 87.8641 126.278 87.8641C125.761 87.8792 125.245 87.7886 124.759 87.6075C124.364 87.4565 123.999 87.2225 123.703 86.9206C123.422 86.6263 123.21 86.2715 123.088 85.8866C122.959 85.4865 122.906 85.0714 122.929 84.6563ZM127.166 83.9694C127.158 83.8185 127.128 83.6751 127.09 83.5316C127.052 83.3882 126.976 83.2524 126.877 83.1392C126.779 83.0259 126.657 82.9354 126.52 82.8674C126.361 82.7844 126.179 82.7467 125.997 82.7542C125.814 82.7467 125.64 82.7844 125.473 82.8523C125.336 82.9203 125.214 83.0033 125.108 83.1165C125.009 83.2297 124.933 83.3656 124.888 83.509C124.827 83.6524 124.789 83.8034 124.774 83.9619H127.166V83.9694Z" fill="#F6EFFF"/>
<path d="M132.648 84.6563C132.633 84.143 132.724 83.6298 132.906 83.1467C133.058 82.7542 133.286 82.3995 133.582 82.0976C133.863 81.8183 134.197 81.5994 134.562 81.456C134.919 81.3126 135.306 81.2371 135.693 81.2371C136.491 81.1994 137.265 81.4937 137.827 82.0523C138.389 82.7316 138.655 83.5996 138.586 84.4751C138.586 84.5733 138.586 84.694 138.586 84.8148C138.579 84.928 138.579 85.0337 138.586 85.1469H134.493C134.524 85.5016 134.721 85.8262 135.017 86.0224C135.389 86.2489 135.815 86.3621 136.248 86.3394C136.574 86.3394 136.901 86.3092 137.227 86.2564C137.485 86.2111 137.743 86.1357 137.986 86.03L138.229 87.4792C138.108 87.5395 137.979 87.5848 137.842 87.6226L137.303 87.7584C137.106 87.7584 136.893 87.8264 136.673 87.8415C136.445 87.849 136.225 87.849 135.997 87.8415C135.481 87.8565 134.964 87.766 134.478 87.5848C134.083 87.4339 133.719 87.1999 133.423 86.898C133.142 86.6036 132.937 86.2489 132.815 85.8639C132.694 85.4714 132.633 85.0639 132.648 84.6563ZM136.885 83.9694C136.87 83.8185 136.847 83.6751 136.809 83.5317C136.764 83.3882 136.696 83.2524 136.604 83.1392C136.506 83.0184 136.384 82.9278 136.248 82.8674C136.088 82.7844 135.913 82.7467 135.731 82.7542C135.549 82.7467 135.374 82.7844 135.207 82.8523C135.071 82.9203 134.941 83.0109 134.835 83.1165C134.736 83.2297 134.661 83.3656 134.615 83.509C134.562 83.6524 134.524 83.8109 134.501 83.9619H136.885V83.9694Z" fill="#F6EFFF"/>
<path d="M139.9 81.6595C140.287 81.5539 140.682 81.4708 141.084 81.418C141.586 81.3425 142.094 81.3048 142.603 81.3048C143.059 81.2897 143.514 81.3576 143.947 81.5161C144.281 81.6369 144.577 81.8482 144.805 82.1124C145.018 82.3841 145.177 82.6936 145.253 83.0332C145.344 83.4182 145.382 83.8182 145.382 84.2107V87.7808H143.59V84.4371C143.628 84.0144 143.545 83.5918 143.355 83.2068C143.157 82.9427 142.831 82.8068 142.497 82.8445H142.087C141.958 82.8521 141.829 82.8672 141.7 82.8898V87.7581H139.9V81.6595Z" fill="#F6EFFF"/>
<path d="M146.59 84.6563C146.575 84.143 146.666 83.6298 146.848 83.1467C147 82.7542 147.235 82.3919 147.539 82.0976C147.82 81.8183 148.154 81.5994 148.518 81.456C148.875 81.3126 149.263 81.2371 149.65 81.2371C150.447 81.1994 151.222 81.4937 151.784 82.0523C152.338 82.7316 152.611 83.5996 152.543 84.4751C152.543 84.5732 152.543 84.694 152.543 84.8148C152.543 84.9355 152.543 85.0488 152.543 85.1469H148.45C148.48 85.5016 148.678 85.8262 148.974 86.0224C149.338 86.2489 149.771 86.3621 150.204 86.3394C150.531 86.3394 150.857 86.3092 151.184 86.2564C151.442 86.2111 151.7 86.1357 151.943 86.03L152.186 87.4792C152.064 87.5395 151.935 87.5848 151.799 87.6226L151.26 87.7584C151.062 87.7584 150.85 87.8264 150.629 87.8415C150.409 87.8565 150.174 87.8415 149.946 87.8415C149.43 87.8565 148.913 87.766 148.427 87.5848C148.032 87.4339 147.668 87.1999 147.372 86.898C147.091 86.6036 146.886 86.2489 146.764 85.8639C146.635 85.479 146.575 85.0639 146.59 84.6563ZM150.827 83.9694C150.819 83.8185 150.796 83.6751 150.751 83.5317C150.705 83.3882 150.645 83.2599 150.553 83.1392C150.455 83.026 150.333 82.9278 150.197 82.8674C150.037 82.7844 149.855 82.7467 149.673 82.7542C149.49 82.7467 149.316 82.7844 149.149 82.8523C149.012 82.9203 148.89 83.0033 148.784 83.1165C148.685 83.2373 148.61 83.3656 148.556 83.509C148.503 83.6524 148.473 83.8109 148.45 83.9619H150.827V83.9694Z" fill="#F6EFFF"/>
<path d="M157.668 83.0259C157.509 82.9807 157.312 82.9429 157.099 82.9052C156.871 82.8599 156.636 82.8373 156.4 82.8373C156.264 82.8297 156.135 82.8297 155.998 82.8373L155.641 82.9052V87.7358H153.841V81.7428C154.221 81.6145 154.601 81.5088 154.988 81.4258C155.466 81.3126 155.96 81.2598 156.454 81.2673H156.803L157.213 81.3126L157.623 81.3805C157.737 81.4032 157.851 81.4334 157.965 81.4786L157.668 83.0259Z" fill="#F6EFFF"/>
<path d="M164.191 86.9733C164.259 87.796 163.986 88.6187 163.432 89.2376C162.741 89.7886 161.867 90.0603 160.987 89.9924C160.599 89.9924 160.212 89.9547 159.832 89.8867C159.468 89.8339 159.103 89.7433 158.754 89.615L159.065 88.1055C159.354 88.2111 159.65 88.3017 159.954 88.3696C160.303 88.4376 160.652 88.4753 161.009 88.4678C161.404 88.5055 161.799 88.3847 162.103 88.1356C162.323 87.9017 162.437 87.5922 162.422 87.2752V87.0412C162.232 87.1318 162.027 87.1997 161.822 87.2375C161.602 87.2828 161.381 87.3054 161.154 87.3054C160.402 87.3658 159.665 87.0865 159.134 86.5506C158.633 85.9392 158.382 85.1694 158.428 84.3844C158.428 83.9466 158.504 83.5164 158.655 83.1088C158.936 82.3465 159.544 81.7578 160.311 81.4936C160.751 81.3426 161.214 81.2672 161.678 81.2747C161.898 81.2672 162.126 81.2672 162.346 81.2747C162.581 81.2747 162.801 81.2747 163.037 81.3502L163.682 81.4558L164.221 81.5917V86.8752L164.191 86.9733ZM160.22 84.3995C160.22 85.4033 160.63 85.9091 161.442 85.9091C161.617 85.9091 161.792 85.8864 161.966 85.8487C162.11 85.8109 162.247 85.7581 162.376 85.6826V82.8145C162.27 82.7918 162.171 82.7767 162.065 82.7692H161.647C161.237 82.739 160.835 82.9126 160.577 83.2296C160.334 83.5692 160.204 83.9844 160.22 84.3995Z" fill="#F6EFFF"/>
<path d="M171.23 81.4485C170.866 82.6637 170.471 83.8185 170.099 84.8752C169.727 85.9319 169.263 86.9735 168.8 87.9849C168.656 88.3019 168.489 88.6114 168.284 88.8982C168.132 89.1322 167.95 89.3435 167.73 89.5171C167.525 89.6832 167.289 89.8039 167.039 89.887C166.75 89.9624 166.446 90.0002 166.15 89.9926C165.892 89.9926 165.641 89.97 165.391 89.9172C165.186 89.8719 164.988 89.8115 164.799 89.7436L165.11 88.317C165.277 88.3699 165.444 88.4152 165.611 88.4453C165.763 88.4604 165.915 88.4604 166.067 88.4453C166.348 88.4604 166.621 88.3699 166.826 88.1887C167.031 87.9698 167.183 87.7132 167.274 87.4339C166.856 86.6339 166.446 85.7281 166.036 84.7318C165.588 83.6374 165.201 82.5128 164.882 81.373H166.796C166.872 81.6825 166.97 82.0297 167.084 82.392C167.198 82.7543 167.304 83.1468 167.426 83.494C167.547 83.8412 167.669 84.2488 167.798 84.5809C167.927 84.913 168.041 85.2526 168.147 85.5394C168.254 85.2526 168.36 84.9356 168.474 84.5809C168.588 84.2261 168.694 83.8261 168.808 83.494C168.922 83.1619 169.021 82.7392 169.119 82.392L169.393 81.373L171.23 81.4485Z" fill="#F6EFFF"/>
<path d="M176.667 86.4828C176.91 86.4979 177.145 86.4601 177.373 86.3771C177.51 86.3092 177.593 86.1582 177.586 86.0072C177.571 85.8412 177.464 85.6978 177.312 85.6299C177.054 85.4789 176.789 85.3581 176.508 85.26C176.249 85.1694 175.999 85.0638 175.748 84.943C175.536 84.8373 175.338 84.7015 175.164 84.5354C174.996 84.3769 174.867 84.1807 174.784 83.9693C174.693 83.7278 174.647 83.4712 174.655 83.2146C174.632 82.6711 174.883 82.1428 175.315 81.8107C175.847 81.4408 176.492 81.2597 177.145 81.2899C177.517 81.2899 177.89 81.3276 178.254 81.388C178.543 81.4408 178.824 81.5163 179.097 81.6144L178.786 83.0032C178.573 82.9277 178.353 82.8749 178.11 82.8145C177.836 82.7541 177.555 82.7315 177.275 82.7315C176.705 82.7315 176.432 82.8825 176.432 83.1919C176.416 83.2523 176.416 83.3202 176.432 83.3806C176.462 83.4485 176.515 83.5014 176.576 83.5467C176.667 83.6146 176.773 83.675 176.88 83.7127C177.039 83.7882 177.199 83.8561 177.358 83.909C177.692 84.0297 178.026 84.1731 178.338 84.3392C178.558 84.4675 178.763 84.6184 178.945 84.7996C179.089 84.9506 179.196 85.1392 179.256 85.3355C179.317 85.5619 179.348 85.8035 179.348 86.0374C179.378 86.6035 179.105 87.1394 178.634 87.4489C178.026 87.7961 177.335 87.9621 176.637 87.9244C176.158 87.9395 175.687 87.8867 175.224 87.781C174.966 87.7131 174.716 87.6376 174.465 87.5395L174.769 86.0752C175.072 86.2035 175.384 86.3016 175.71 86.362C176.022 86.4526 176.341 86.4979 176.667 86.4828Z" fill="#F6EFFF"/>
<path d="M186.531 84.6034C186.538 85.0638 186.462 85.5243 186.31 85.962C186.174 86.3545 185.961 86.7168 185.68 87.0187C185.407 87.3206 185.065 87.5546 184.685 87.7056C184.275 87.8716 183.835 87.9546 183.395 87.9471C182.954 87.9546 182.521 87.8716 182.119 87.7056C181.739 87.5546 181.405 87.3206 181.132 87.0187C180.843 86.7168 180.623 86.3545 180.486 85.962C180.327 85.5243 180.243 85.0638 180.251 84.6034C180.243 84.1355 180.327 83.675 180.486 83.2373C180.767 82.4598 181.367 81.8334 182.134 81.5164C182.939 81.1918 183.835 81.1918 184.64 81.5164C185.012 81.6673 185.354 81.9013 185.635 82.1881C185.916 82.49 186.136 82.8523 186.28 83.2373C186.455 83.675 186.538 84.1355 186.531 84.6034ZM184.701 84.6034C184.723 84.143 184.61 83.6901 184.367 83.2976C184.162 82.9806 183.797 82.7995 183.417 82.8221C183.038 82.807 182.673 82.9806 182.461 83.2976C182.218 83.6901 182.104 84.143 182.134 84.6034C182.111 85.0638 182.225 85.5243 182.461 85.9167C182.673 86.2262 183.038 86.4149 183.417 86.3998C183.797 86.4149 184.154 86.2337 184.367 85.9167C184.61 85.5243 184.723 85.0638 184.701 84.6034Z" fill="#F6EFFF"/>
<path d="M193.236 87.5546C192.848 87.6527 192.454 87.7357 192.059 87.7961C191.557 87.8716 191.049 87.9093 190.54 87.9018C190.077 87.9244 189.621 87.849 189.188 87.6829C188.862 87.5546 188.566 87.3508 188.338 87.0791C188.125 86.7998 187.973 86.4904 187.89 86.1507C187.799 85.7582 187.753 85.3506 187.761 84.9506V81.4258H189.56V84.7317C189.53 85.1619 189.606 85.5922 189.788 85.9847C189.986 86.2564 190.312 86.4073 190.646 86.3696C190.783 86.3696 190.912 86.3696 191.056 86.3696C191.201 86.3696 191.337 86.3696 191.451 86.3243V81.4409H193.251V87.5546H193.236Z" fill="#F6EFFF"/>
<path d="M198.642 83.0259C198.452 82.9731 198.263 82.9354 198.073 82.9052C197.845 82.8599 197.61 82.8373 197.374 82.8373C197.237 82.8297 197.101 82.8297 196.964 82.8373C196.843 82.8523 196.721 82.875 196.607 82.9052V87.7358H194.808V81.7428C195.187 81.6145 195.567 81.5088 195.954 81.4258C196.433 81.3126 196.926 81.2598 197.42 81.2673H197.777L198.187 81.3126L198.597 81.3805C198.718 81.4032 198.84 81.4409 198.954 81.4786L198.642 83.0259Z" fill="#F6EFFF"/>
<path d="M199.363 84.6106C199.363 84.1729 199.439 83.7351 199.591 83.32C199.735 82.9275 199.948 82.5652 200.237 82.2557C200.518 81.9387 200.867 81.6821 201.254 81.5009C201.695 81.3198 202.165 81.2292 202.636 81.2368C202.947 81.2368 203.259 81.267 203.57 81.3198C203.851 81.3802 204.124 81.4707 204.39 81.5764L204.011 83.003C203.828 82.9275 203.646 82.8746 203.456 82.8369C203.236 82.7841 203.008 82.7614 202.78 82.7614C202.325 82.7312 201.884 82.9124 201.588 83.2596C201.315 83.6294 201.178 84.0898 201.201 84.5502C201.171 85.0182 201.3 85.4862 201.566 85.8787C201.9 86.2183 202.378 86.3919 202.856 86.3391C203.092 86.3391 203.327 86.3164 203.555 86.2862C203.79 86.241 204.018 86.1806 204.246 86.0976L204.504 87.5694C204.261 87.6675 204.003 87.7505 203.745 87.8034C203.403 87.8713 203.046 87.9015 202.697 87.9015C202.181 87.9166 201.664 87.826 201.178 87.6449C200.389 87.358 199.781 86.7089 199.553 85.9013C199.432 85.4786 199.371 85.0484 199.363 84.6106Z" fill="#F6EFFF"/>
<path d="M207.564 79.6143C207.572 79.9011 207.45 80.1728 207.238 80.3691C207.033 80.5578 206.759 80.6634 206.478 80.6559C206.198 80.6634 205.924 80.5578 205.719 80.3691C205.507 80.1728 205.393 79.9011 205.4 79.6143C205.385 79.3275 205.507 79.0482 205.719 78.8595C206.152 78.4746 206.805 78.4746 207.238 78.8595C207.45 79.0482 207.572 79.3275 207.564 79.6143ZM207.397 87.7735H205.59V81.4484H207.397V87.7735Z" fill="#F6EFFF"/>
<path d="M208.977 81.6595C209.364 81.5539 209.759 81.4708 210.161 81.418C210.662 81.3425 211.171 81.3048 211.68 81.3048C212.135 81.2897 212.591 81.3576 213.024 81.5161C213.358 81.6369 213.654 81.8482 213.882 82.1124C214.102 82.3841 214.246 82.6936 214.322 83.0332C214.421 83.4182 214.467 83.8107 214.459 84.2107V87.7808H212.659V84.4371C212.697 84.0144 212.614 83.5918 212.424 83.2068C212.219 82.9427 211.892 82.8068 211.566 82.8445H211.156C211.027 82.8521 210.898 82.8672 210.769 82.8898V87.7581H208.969L208.977 81.6595Z" fill="#F6EFFF"/>
<path d="M221.46 86.9735C221.529 87.7962 221.255 88.6189 220.701 89.2379C220.017 89.7964 219.137 90.0606 218.256 89.9926C217.869 89.9926 217.481 89.9549 217.102 89.887C216.737 89.8341 216.373 89.7436 216.023 89.6153L216.335 88.1057C216.623 88.2189 216.919 88.3019 217.223 88.3699C217.572 88.4378 217.922 88.4755 218.279 88.468C218.673 88.5057 219.061 88.385 219.364 88.1359C219.585 87.9019 219.699 87.5924 219.691 87.2754V87.0415C219.501 87.132 219.296 87.2 219.091 87.2377C218.871 87.283 218.651 87.3056 218.423 87.3056C217.671 87.3585 216.927 87.0867 216.395 86.5508C215.902 85.9395 215.651 85.1696 215.697 84.3846C215.689 83.9469 215.765 83.5166 215.917 83.109C216.061 82.7392 216.274 82.4071 216.555 82.1278C216.843 81.8486 217.193 81.6297 217.58 81.4938C218.02 81.3429 218.484 81.2674 218.947 81.2749C219.167 81.2749 219.387 81.2749 219.615 81.2749C219.843 81.2749 220.071 81.2749 220.298 81.3504L220.944 81.4561L221.506 81.5919V86.8754L221.46 86.9735ZM217.504 84.3997C217.504 85.4036 217.914 85.9093 218.727 85.9093C218.901 85.9093 219.076 85.8866 219.251 85.8489C219.395 85.8112 219.531 85.7508 219.661 85.6828V82.8147C219.554 82.792 219.456 82.7769 219.349 82.7694H218.924C218.514 82.7392 218.119 82.9128 217.861 83.2298C217.618 83.5695 217.496 83.9846 217.504 84.3997Z" fill="#F6EFFF"/>
<path d="M14.8442 49.6326L1.36924 26.4286L41.7943 49.6256L14.8442 49.6326Z" fill="#F6EFFF" stroke="#2D1155"/>
<path d="M14.0565 48.2688L0.578216 25.0662L14.0565 1.85665V48.2688Z" fill="#F6EFFF" stroke="#2D1155"/>
<path d="M1.36948 23.7037L14.8443 0.5H41.7939L1.36948 23.7037Z" fill="#F6EFFF" stroke="#2D1155"/>
<path d="M16.4323 0.5H43.3817L56.8634 23.7035L16.4323 0.5Z" fill="#F6EFFF" stroke="#2D1155"/>
<path d="M44.1697 1.8563L57.6552 25.0663L44.1767 48.2693L44.1697 1.8563Z" fill="#F6EFFF" stroke="#2D1155"/>
<path d="M57.0884 26.2592L43.105 49.8944L29.1144 42.016L57.0884 26.2592Z" fill="#F6EFFF" stroke="#2D1155"/>
</svg>
