<svg width="308" height="60" viewBox="0 0 308 60" fill="none" xmlns="http://www.w3.org/2000/svg">
<path d="M28.1216 19.1438C27.0457 20.0781 25.6867 20.6161 24.271 20.6869C26.0689 22.4989 27.3713 24.7357 28.065 27.1989C28.7587 26.9724 29.424 26.7035 30.0611 26.3637C30.5424 26.123 31.0096 25.8541 31.4768 25.5709C34.2515 23.7022 36.2334 20.8851 37.0545 17.6573C37.7765 14.2173 41.1599 12.023 44.5858 12.7591C48.0259 13.4811 50.2202 16.8646 49.4841 20.2905C49.1868 21.7061 48.4082 22.9802 47.2756 23.9004C49.7955 24.311 52.1738 25.3586 54.1699 26.9441C58.5302 20.8851 57.157 12.4335 51.0838 8.07326C46.9783 5.11451 41.5705 4.70396 37.0686 6.99735C36.5732 7.23801 36.106 7.50699 35.653 7.80428C32.7792 9.72959 30.7548 12.6742 29.9903 16.0435C29.6647 17.2468 28.9852 18.3227 28.065 19.1438" fill="#F6EFFF"/>
<path d="M34.9026 29.662C37.2951 31.5166 40.2396 32.5217 43.2692 32.4934C43.6373 32.5075 43.9912 32.5075 44.3592 32.4934H44.8406C48.3656 32.4792 51.2252 35.3247 51.2252 38.8497C51.2252 42.3747 48.3939 45.2344 44.8689 45.2344C43.6373 45.2344 42.4339 44.8805 41.4005 44.2151C41.7827 46.735 41.5138 49.3257 40.636 51.7181C47.7427 54.0257 55.3731 50.1326 57.6948 43.0259C58.1195 41.6811 58.3461 40.2795 58.3461 38.8639C58.3602 35.2681 56.9304 31.8138 54.3822 29.2798C53.9999 28.9117 53.6036 28.5578 53.1789 28.2322C50.8005 26.3494 47.8418 25.3301 44.8123 25.3301H43.8921C43.6939 25.3442 43.5098 25.3442 43.3116 25.3301C42.1791 25.3442 41.0607 25.0328 40.0981 24.4524C38.8806 23.7445 37.9321 22.6545 37.3942 21.3521C36.205 23.603 34.4779 25.5141 32.3685 26.9298C32.7932 27.5102 33.2746 28.0623 33.7842 28.572" fill="#F6EFFF"/>
<path d="M20.3072 44.853C18.212 45.9148 15.8903 46.4527 13.5403 46.4527H12.9315C12.9174 53.9133 18.9623 59.9865 26.4229 60.0007C31.5334 60.0148 36.2051 57.141 38.5127 52.5826C38.7392 52.1012 38.9657 51.6199 39.1497 51.1669C40.2964 48.01 40.2398 44.5274 38.9799 41.413V41.2997C37.9181 38.709 38.6684 35.722 40.8344 33.9524C38.3145 33.5418 35.9503 32.4942 33.9542 30.8945C33.5295 31.4891 33.1473 32.0978 32.8217 32.7491C31.8449 34.6461 31.3352 36.7554 31.3211 38.8931C31.3211 40.6485 31.6608 42.3756 32.3262 44.0036V44.1169C33.7277 47.3446 32.2554 51.082 29.0277 52.4835C25.8 53.885 22.0626 52.4127 20.6611 49.185C20.293 48.3356 20.109 47.4154 20.1373 46.4952C20.1231 45.9431 20.1798 45.391 20.3072 44.853Z" fill="#F6EFFF"/>
<path d="M18.0711 16.9353C18.5949 18.0962 19.4443 19.0871 20.5343 19.7667C23.4506 21.5362 25.5883 24.3393 26.5226 27.6095C26.8624 28.8128 27.0464 30.0586 27.0323 31.3044H26.4235C24.0735 31.3044 21.766 31.8423 19.6708 32.9041C19.784 32.3803 19.8407 31.8565 19.8265 31.3185C19.8407 30.4408 19.6566 29.5772 19.3027 28.7845C18.7789 27.6095 17.9012 26.6185 16.8111 25.9531H16.7262C13.8665 24.1694 11.7714 21.3947 10.8512 18.1528C10.5114 16.9636 10.3415 15.732 10.3415 14.4862C10.2991 7.02563 16.3157 0.938259 23.7904 0.895789C28.179 0.867476 32.2986 2.97682 34.8468 6.53015C32.7374 7.97413 31.0103 9.9136 29.8494 12.1928C28.7169 8.866 25.0928 7.08226 21.766 8.2148C18.4392 9.34733 16.6554 12.9714 17.788 16.2983C17.8446 16.4681 17.9154 16.638 17.9861 16.8079L18.0994 17.0627L18.0711 16.9353Z" fill="#F6EFFF"/>
<path d="M13.0307 44.8241C12.4927 44.7958 11.9689 44.7533 11.4451 44.6684C4.0695 43.5217 -0.984439 36.6132 0.162252 29.2376C0.94087 24.1978 4.4942 20.0357 9.34994 18.4502C10.0436 20.9276 11.346 23.1785 13.1439 25.0047C9.61892 25.1038 6.85837 28.0343 6.95746 31.5593C7.05656 35.0843 9.98699 37.8449 13.512 37.7458C13.7244 37.7316 13.9509 37.7174 14.1632 37.675C15.4373 37.5617 16.6406 37.0662 17.6174 36.2593C20.0666 34.1783 23.181 33.0316 26.3946 33.0316H26.9042C27.4422 33.0457 27.966 33.1024 28.4898 33.1873C29.1976 33.3006 29.8913 33.4563 30.5708 33.6828C29.9621 35.3674 29.6365 37.137 29.6365 38.9349C29.6648 39.6852 29.7356 40.4355 29.8771 41.1717C28.8579 40.5205 27.6687 40.1666 26.4512 40.1666H25.8283C24.5118 40.294 23.2518 40.8461 22.2608 41.7238C19.8259 43.7765 16.7397 44.909 13.5545 44.8949H13.0448" fill="#F6EFFF"/>
<path d="M44.8272 43.6207C47.462 43.6207 49.598 41.4847 49.598 38.8499C49.598 36.2151 47.462 34.0791 44.8272 34.0791C42.1924 34.0791 40.0564 36.2151 40.0564 38.8499C40.0564 41.4847 42.1924 43.6207 44.8272 43.6207Z" fill="#F6EFFF"/>
<path d="M43.2551 23.8014C45.8899 23.8014 48.0259 21.6654 48.0259 19.0306C48.0259 16.3957 45.8899 14.2598 43.2551 14.2598C40.6202 14.2598 38.4843 16.3957 38.4843 19.0306C38.4843 21.6654 40.6202 23.8014 43.2551 23.8014Z" fill="#F6EFFF"/>
<path d="M26.4507 51.2228C29.0856 51.2228 31.2215 49.0868 31.2215 46.452C31.2215 43.8171 29.0856 41.6812 26.4507 41.6812C23.8159 41.6812 21.6799 43.8171 21.6799 46.452C21.6799 49.0868 23.8159 51.2228 26.4507 51.2228Z" fill="#F6EFFF"/>
<path d="M13.5401 36.1173C16.1749 36.1173 18.3109 33.9813 18.3109 31.3465C18.3109 28.7116 16.1749 26.5757 13.5401 26.5757C10.9052 26.5757 8.76929 28.7116 8.76929 31.3465C8.76929 33.9813 10.9052 36.1173 13.5401 36.1173Z" fill="#F6EFFF"/>
<path d="M23.9031 19.1295C26.538 19.1295 28.6739 16.9935 28.6739 14.3587C28.6739 11.7239 26.538 9.58789 23.9031 9.58789C21.2683 9.58789 19.1323 11.7239 19.1323 14.3587C19.1323 16.9935 21.2683 19.1295 23.9031 19.1295Z" fill="#F6EFFF"/>
<path d="M84.6216 8.37015H79.2845V6.52979H92.1388V8.37015H86.7734V23.6311H84.6216V8.37015Z" fill="#F6EFFF"/>
<path d="M94.771 6.52979H96.9228V13.6081H105.304V6.52979H107.427V23.6311H105.304V15.5193H96.9228V23.6311H94.771V6.52979Z" fill="#F6EFFF"/>
<path d="M111.845 18.9877V6.52979H121.485V8.37015H114.011V13.6081H120.778V15.5051H114.011V19.1576C114.011 20.9413 114.903 21.7482 116.318 21.7482H121.5V23.6169H116.502C113.459 23.6311 111.845 22.1871 111.845 18.9877Z" fill="#F6EFFF"/>
<path d="M131.424 6.52979H133.547V23.6311H131.424V6.52979Z" fill="#F6EFFF"/>
<path d="M137.978 6.52979H139.394L148.694 19.2708V6.52979H150.832V23.6311H149.416L140.158 10.9467V23.6877H137.978V6.52979Z" fill="#F6EFFF"/>
<path d="M158.831 8.37015H153.479V6.52979H166.32V8.37015H160.968V23.6311H158.831V8.37015Z" fill="#F6EFFF"/>
<path d="M168.967 18.9877V6.52979H178.607V8.37015H171.118V13.6081H177.885V15.5051H171.118V19.1576C171.118 20.9413 172.01 21.7482 173.426 21.7482H178.607V23.6169H173.61C170.566 23.6311 168.967 22.1871 168.967 18.9877Z" fill="#F6EFFF"/>
<path d="M182.316 6.52979H187.851C191.404 6.52979 193.004 8.12949 193.004 11.7253C193.217 13.8771 191.942 15.8874 189.904 16.6093C191.801 18.563 193.245 20.913 194.151 23.4895V23.6735H191.942C191.093 21.2669 189.72 19.0726 187.922 17.2464H184.51V23.6735H182.387L182.316 6.52979ZM187.299 15.3777C189.054 15.6042 190.654 14.3726 190.895 12.6313C190.937 12.334 190.937 12.0367 190.881 11.7253C190.881 9.2054 189.989 8.41262 187.667 8.41262H184.439V15.3777H187.299Z" fill="#F6EFFF"/>
<path d="M197.45 6.52979H198.865L208.166 19.2708V6.52979H210.29V23.6311H208.874L199.587 10.89V23.6311H197.45V6.52979Z" fill="#F6EFFF"/>
<path d="M213.093 23.5178C213.829 20.4741 214.353 18.7895 215.061 16.4395C216.08 13.056 217.326 9.74335 218.813 6.52979H221.644C223.145 9.7292 224.39 13.0419 225.381 16.4395C226.117 18.8319 226.641 20.5166 227.349 23.5178V23.7019H225.226C224.815 21.9889 224.504 20.7573 224.15 19.4548H216.264C215.925 20.7148 215.627 21.9464 215.217 23.7019H213.065L213.093 23.5178ZM216.845 17.6286H223.683C223.555 17.2606 223.47 16.8217 223.329 16.397C222.564 13.6223 221.545 10.9325 220.299 8.34184C219.039 10.9325 218.02 13.6223 217.255 16.397C217.071 16.7509 216.944 17.1898 216.845 17.5578V17.6286Z" fill="#F6EFFF"/>
<path d="M232.317 8.37015H226.966V6.52979H239.806V8.37015H234.469V23.6311H232.317V8.37015Z" fill="#F6EFFF"/>
<path d="M242.468 6.52979H244.592V23.6311H242.468V6.52979Z" fill="#F6EFFF"/>
<path d="M248.13 15.7745V14.3589C248.13 9.3474 250.622 6.30371 255.209 6.30371C259.795 6.30371 262.358 9.13505 262.358 14.3589V15.7745C262.358 20.7718 259.838 23.8155 255.209 23.8155C250.579 23.8155 248.13 20.9559 248.13 15.7745ZM260.263 15.7745V14.3589C260.263 10.1119 258.578 8.18655 255.265 8.18655C251.953 8.18655 250.254 10.0552 250.254 14.3589V15.7745C250.254 20.0215 251.967 21.9469 255.265 21.9469C258.564 21.9469 260.263 20.064 260.263 15.7745Z" fill="#F6EFFF"/>
<path d="M265.94 6.52979H267.355L276.656 19.2708V6.52979H278.78V23.6311H277.364L268.077 10.89V23.6311H265.94V6.52979Z" fill="#F6EFFF"/>
<path d="M281.583 23.5178C282.319 20.4741 282.842 18.7895 283.55 16.4395C284.57 13.056 285.815 9.74335 287.302 6.52979H290.133C291.634 9.7292 292.88 13.0419 293.871 16.4395C294.607 18.8319 295.13 20.5166 295.838 23.5178V23.7019H293.715C293.304 21.9889 292.979 20.7573 292.639 19.4548H284.754C284.414 20.7148 284.117 21.9464 283.706 23.7019H281.583V23.5178ZM285.334 17.6286H292.129C292.002 17.2606 291.917 16.8217 291.775 16.397C291.025 13.6081 290.034 10.89 288.802 8.27106C287.542 10.8617 286.523 13.5515 285.759 16.3262C285.561 16.7509 285.433 17.1898 285.334 17.5578V17.6286Z" fill="#F6EFFF"/>
<path d="M298.713 18.9877V6.52979H300.865V19.2708C300.865 21.0545 301.757 21.8615 303.173 21.8615H308V23.7302H303.357C301.092 24.0275 298.997 22.4277 298.699 20.1627C298.657 19.7804 298.657 19.3841 298.713 18.9877Z" fill="#F6EFFF"/>
<path d="M79.2845 30.9219H86.8301C91.7 30.9219 93.9084 33.102 93.9084 38.0002C94.1915 40.9307 92.4361 43.6771 89.6614 44.668C92.2096 47.3436 94.1491 50.543 95.3241 54.0539V54.2946H92.3087C91.1337 51.0102 89.265 48.0232 86.8159 45.5457H82.1159V54.2946H79.2845V30.9219ZM86.0798 42.9834C89.7322 42.9834 90.978 40.9023 90.978 38.0002C90.978 34.5743 89.7605 33.4842 86.5752 33.4842H82.1159V42.9834H86.0798Z" fill="#F6EFFF"/>
<path d="M99.9096 47.9665V30.9785H113.061V33.4276H102.84V40.6475H112.056V43.2382H102.84V48.2214C102.84 50.6563 104.058 51.7464 105.983 51.7464H113.061V54.2946H106.181C102.09 54.2946 99.9096 52.341 99.9096 47.9665Z" fill="#F6EFFF"/>
<path d="M116.898 44.0739V41.1434C116.898 34.3199 121.258 30.6675 128.081 30.6675C129.922 30.6816 131.748 31.0497 133.447 31.7575V36.9955H130.757V33.5979C129.723 33.3431 128.648 33.2157 127.586 33.2298C123.226 33.2298 119.785 35.4383 119.785 41.1434V44.0739C119.785 49.1844 122.475 51.9875 127.119 51.9875H128.534C130.12 51.9167 131.677 51.5911 133.149 51.0248H133.404V53.4597C131.861 54.1251 130.205 54.4932 128.534 54.5498H127.119C120.04 54.5498 116.898 50.1471 116.898 44.0739Z" fill="#F6EFFF"/>
<path d="M145.537 53.5872V51.0248H145.821C147.718 51.5628 149.671 51.8884 151.639 51.9875H152.602C155.532 51.9875 157.5 50.8974 157.5 47.967C157.5 45.4187 156.197 44.6401 154.074 44.0739L150.931 43.2386C148.652 42.6157 145.821 41.1434 145.821 36.9955C145.821 33.2298 148.652 30.6675 153.352 30.6675H154.074C155.9 30.6958 157.712 31.0214 159.439 31.6443V34.1076H159.185C157.528 33.5979 155.815 33.3006 154.074 33.2298H153.352C150.422 33.2298 148.709 34.3199 148.709 36.9955C148.709 39.4305 150.266 40.0817 152.134 40.6479L155.164 41.5257C157.571 42.2052 160.402 43.451 160.402 47.967C160.402 51.9875 157.571 54.5498 152.602 54.5498H151.639C149.572 54.479 147.534 54.1534 145.537 53.5872Z" fill="#F6EFFF"/>
<path d="M170.072 33.4276H162.809V30.9219H180.335V33.4276H173.002V54.2379H170.072V33.4276Z" fill="#F6EFFF"/>
<path d="M179.698 54.0539C180.689 49.906 181.411 47.5985 182.373 44.3283C183.761 39.7415 185.474 35.268 187.484 30.9219H191.391C193.43 35.2538 195.143 39.7415 196.502 44.3283C197.493 47.5985 198.215 49.906 199.177 54.0539V54.2946H196.275C195.723 51.9587 195.284 50.2741 194.859 48.5611H184.044C183.577 50.2741 183.166 51.9587 182.628 54.2946H179.698V54.0539ZM184.808 46.0129H194.067C193.911 45.5033 193.784 44.9228 193.599 44.3283C192.552 40.5767 191.15 36.9243 189.452 33.4276C187.739 36.9526 186.351 40.6192 185.304 44.399C185.12 44.9228 184.936 45.5033 184.808 46.0129Z" fill="#F6EFFF"/>
<path d="M203.042 30.9219H204.968L217.709 48.2213V30.9219H220.54V54.2946H218.615L205.959 36.9951V54.2946H203.028L203.042 30.9219Z" fill="#F6EFFF"/>
<path d="M226.599 30.9219H233.592C240.67 30.9219 243.941 34.1921 243.941 40.6475V44.0734C243.941 50.1467 241.109 54.2946 234.031 54.2946H226.613L226.599 30.9219ZM234.017 51.7464C239.014 51.7464 240.968 49.184 240.968 44.0734V40.6475C240.968 35.537 238.419 33.4842 233.521 33.4842H229.529V51.7464H234.017Z" fill="#F6EFFF"/>
<path d="M246.744 54.0539C247.735 49.906 248.457 47.5985 249.42 44.3283C250.807 39.7415 252.506 35.268 254.53 30.9219H258.423C260.476 35.2538 262.175 39.7273 263.534 44.3283C264.539 47.5985 265.247 49.906 266.224 54.0539V54.2946H263.322C262.755 51.9587 262.317 50.2741 261.906 48.5611H251.161C250.694 50.2741 250.283 51.9587 249.745 54.2946H246.815L246.744 54.0539ZM251.855 46.0129H261.113C260.957 45.5033 260.83 44.9228 260.646 44.3283C259.598 40.5767 258.197 36.9243 256.498 33.4276C254.785 36.9526 253.398 40.6192 252.35 44.399C252.166 44.9228 251.996 45.5033 251.855 46.0129Z" fill="#F6EFFF"/>
<path d="M270.088 30.9219H277.619C282.489 30.9219 284.697 33.102 284.697 38.0002C284.966 40.9307 283.225 43.6771 280.45 44.668C282.998 47.3436 284.938 50.543 286.113 54.0539V54.2946H283.14C281.979 51.0102 280.096 48.0232 277.647 45.5457H273.004V54.2946H270.173L270.088 30.9219ZM276.883 42.9834C280.521 42.9834 281.767 40.9023 281.767 38.0002C281.767 34.5743 280.549 33.4842 277.378 33.4842H272.976V42.9834H276.883Z" fill="#F6EFFF"/>
<path d="M290.714 30.9219H297.637C304.715 30.9219 307.985 34.1921 307.985 40.6475V44.0734C307.985 50.1467 305.154 54.2946 298.075 54.2946H290.657L290.714 30.9219ZM298.132 51.7464C303.115 51.7464 305.083 49.184 305.083 44.0734V40.6475C305.083 35.537 302.535 33.4842 297.637 33.4842H293.644V51.7464H298.132Z" fill="#F6EFFF"/>
</svg>
