<svg width="64" height="64" viewBox="0 0 64 64" fill="none" xmlns="http://www.w3.org/2000/svg">
<path d="M32 64C41.6136 64 50.2574 59.725 56.1277 52.9892C56.1694 52.9371 56.2216 52.885 56.2633 52.8328C61.0805 47.2336 64 39.9557 64 32.0104C64 26.578 62.6341 21.4689 60.2463 16.9853C60.2255 16.9436 60.2046 16.9123 60.1942 16.8706C56.6699 10.3643 50.9873 5.203 44.0951 2.38775C44.043 2.36689 44.0013 2.34604 43.9492 2.33561C40.2581 0.834148 36.2229 0 32 0C28.9971 0 26.088 0.427501 23.3353 1.19909C23.2936 1.20951 23.2414 1.21994 23.1997 1.2408C13.4611 4.03519 5.60964 11.3236 2.06452 20.7181C2.05409 20.7494 2.03324 20.7911 2.02281 20.8224C0.719453 24.305 0 28.0691 0 32C0 49.6422 14.3578 64 32 64ZM23.7107 51.5191L25.4519 55.0121C25.5458 55.1893 25.5249 55.6272 25.4102 55.8045L23.7315 58.4842L16.7977 50.8726C16.5266 50.5702 16.172 49.9029 16.0886 49.5067L14.8895 44.0639C14.7123 43.261 14.1388 42.2079 13.5549 41.624L11.7302 39.7993C11.5529 39.622 11.3757 39.1215 11.407 38.8713L12.043 33.2304C12.0639 33.0635 12.0639 32.8967 12.0534 32.7195L14.2118 31.3535C14.3369 31.2805 14.6602 31.2805 14.7853 31.364L19.6859 34.6901C19.9466 34.8674 20.3115 35.3887 20.3949 35.7015C20.6556 36.7651 20.958 38.0684 20.9892 38.2874C20.9892 39.1528 20.9892 39.4865 27.5165 41.697L26.4738 45.19C26.3486 45.607 25.9524 46.3161 25.6605 46.6497L24.1173 48.4014C23.4083 49.2147 23.231 50.5494 23.7107 51.5191ZM55.3874 50.1844L54.2613 48.4119C54.1049 48.1616 53.9902 47.5569 54.0632 47.2649L55.1893 42.1036C55.3874 41.1861 55.1476 39.9557 54.6054 39.1945L49.7361 32.2398C49.1105 31.3327 47.8384 30.8739 46.7644 31.1554L44.1577 31.854C43.9596 31.9062 43.5425 31.8019 43.3965 31.6559L42.26 30.5819C42.0202 30.3526 41.7387 29.7791 41.7074 29.4454L41.478 27.1515C41.4571 26.8908 41.6344 26.3904 41.8117 26.2131L44.8876 23.1372C45.0127 23.0121 45.3881 22.9182 45.5653 22.9704L50.8205 24.5552C51.5399 24.7742 52.6556 24.8993 53.4063 24.8472L60.653 24.3467C61.3099 26.7866 61.6644 29.362 61.6644 32.0104C61.6435 38.8504 59.3079 45.1587 55.3874 50.1844ZM56.5239 15.3483L50.4555 13.3881C49.4128 13.044 48.1095 13.4506 47.4317 14.3265L45.2212 17.2147C45.0961 17.3816 44.679 17.5588 44.4809 17.5484L41.4259 17.2877C41.2173 17.2669 40.842 17.0166 40.7377 16.8394L40.2685 15.9531C40.1851 15.8071 40.2164 15.4213 40.3102 15.2753L42.5833 12.0013C43.1359 11.2089 43.334 9.95764 43.0629 9.02965L42.3956 6.78788C42.3434 6.61062 42.4373 6.23526 42.5728 6.09971L43.8449 4.82763C49.0062 7.07983 53.3959 10.7501 56.5239 15.3483ZM32 2.34604C32.4066 2.34604 32.8029 2.35647 33.2095 2.37732L29.8104 6.41251C29.654 6.6002 29.4663 6.69404 29.2682 6.70446C29.0909 6.72532 28.8824 6.61062 28.7155 6.42294L25.7543 3.01336C27.7667 2.57543 29.8521 2.34604 32 2.34604ZM23.2206 3.67025L26.9326 7.95569C27.5373 8.64386 28.3819 9.04008 29.2473 9.04008C29.2577 9.04008 29.2577 9.04008 29.2682 9.04008C30.1544 9.02965 30.999 8.623 31.5934 7.91398L36.0456 2.61714C37.912 2.87781 39.7159 3.30531 41.4467 3.88921L40.9045 4.43141C40.1642 5.17172 39.841 6.43337 40.1434 7.44477L40.8107 9.68654C40.8837 9.92636 40.8003 10.4477 40.6543 10.6562L38.3812 13.9303C37.7765 14.7957 37.6931 16.0991 38.1936 17.0375L38.6628 17.9238C39.132 18.8205 40.2164 19.5295 41.2173 19.6233L44.2724 19.884C44.3454 19.8944 44.4184 19.8944 44.4914 19.8944C45.4506 19.8944 46.5037 19.3939 47.0772 18.6432L49.2877 15.755C49.3503 15.6611 49.6109 15.5777 49.7256 15.6194L58.3278 18.4034C58.9325 19.5712 59.4643 20.7807 59.9127 22.0319L53.2186 22.4907C52.7599 22.522 51.9257 22.4282 51.4774 22.2926L46.2222 20.7077C45.2108 20.4053 43.9492 20.7286 43.2089 21.4689L40.1329 24.5448C39.4552 25.2225 39.0277 26.4216 39.1215 27.3809L39.3509 29.6748C39.4448 30.5611 39.9765 31.6559 40.623 32.2711L41.7595 33.3451C42.4998 34.0541 43.7615 34.3669 44.7416 34.1062L47.3483 33.4076C47.4526 33.3763 47.7237 33.4702 47.7863 33.564L52.6556 40.5187C52.8224 40.7481 52.9267 41.3112 52.8745 41.5927L51.7589 46.754C51.5608 47.6507 51.7797 48.8706 52.2698 49.6527L53.7921 52.0508C48.3702 57.942 40.6021 61.6331 31.9896 61.6331C29.5184 61.6331 27.1307 61.3307 24.8368 60.7573C25.0974 60.5904 25.3164 60.3715 25.4936 60.0899L27.4018 57.0349C27.944 56.1694 28.0065 54.8765 27.5477 53.9589L25.8065 50.466C25.7439 50.3513 25.7856 50.0385 25.8794 49.9446L27.4226 48.1929C27.9335 47.609 28.4966 46.608 28.7155 45.8573L29.7582 42.3643C30.1127 41.1861 29.4558 39.8931 28.288 39.4969C26.3695 38.84 24.1069 37.9954 23.2414 37.5888C23.158 37.1404 22.9912 36.3897 22.668 35.1281C22.449 34.2522 21.7504 33.2512 20.9997 32.7403L16.0991 29.4141C15.2128 28.8094 13.8677 28.7885 12.9606 29.362L11.0629 30.5611C11.0003 30.4985 10.9273 30.436 10.8544 30.3734L9.21733 29.0909C9.15477 29.0388 9.09221 28.9762 9.01922 28.9137L11.8553 21.0831L14.827 21.8651C16.0156 22.1779 17.2773 21.4793 17.6422 20.3011L19.1124 15.5673C19.1854 15.3483 19.5191 15.0042 19.738 14.9312L23.5751 13.6696C24.232 13.4506 24.7012 12.9814 24.868 12.3767C25.0349 11.7719 24.8785 11.1254 24.4301 10.6041L19.665 5.00489C20.8328 4.5044 22.0111 4.04562 23.2206 3.67025ZM17.538 6.12056L22.2509 11.6572L19.0186 12.7208C18.0802 13.0336 17.173 13.9407 16.8811 14.8895L15.4213 19.6129L12.4497 18.8309C11.261 18.5181 10.0098 19.175 9.60313 20.3324L7.40306 26.4842L4.44184 21.0622C6.97556 14.7123 11.6364 9.4363 17.538 6.12056ZM3.43043 24.086L6.06843 28.9345C6.18312 29.143 6.33952 29.3724 6.50635 29.5914C6.58977 29.9668 6.84001 30.3004 7.22581 30.4464C7.41349 30.6341 7.60117 30.8113 7.77843 30.9469L9.41544 32.2294C9.57185 32.3545 9.7491 32.7612 9.71782 32.9593L9.08179 38.6002C8.97752 39.5595 9.39459 40.7586 10.0828 41.4467L11.9075 43.2714C12.1786 43.5425 12.5331 44.189 12.6165 44.5644L13.8156 50.0072C13.9928 50.7996 14.535 51.8423 15.0772 52.4471L21.8025 59.8293C10.4581 55.6585 2.34604 44.752 2.34604 31.9791C2.34604 29.2577 2.73183 26.6093 3.43043 24.086Z" fill="#00D08A"/>
</svg>
