<svg width="138" height="40" viewBox="0 0 138 40" fill="none" xmlns="http://www.w3.org/2000/svg">
<g clip-path="url(#clip0)">
<path fill-rule="evenodd" clip-rule="evenodd" d="M19.8331 39.9994C8.89414 40.0415 -0.0559191 31.0081 -0.000229797 19.9052C0.0494928 8.93057 8.94983 -0.0667269 19.9624 -0.000614529C25.2296 0.0427823 30.2641 2.1916 33.9588 5.97332C37.6534 9.75503 39.7058 14.86 39.6645 20.1657C39.5809 31.0922 30.7482 40.0334 19.8331 39.9994Z" fill="#0090FF"/>
<path fill-rule="evenodd" clip-rule="evenodd" d="M22.2957 18.3836L27.4669 19.1188C27.6141 18.5899 27.7374 18.1392 27.8806 17.6243L22.5424 16.8229C23.1589 14.6192 23.6939 12.5116 24.3602 10.4461C24.581 9.76694 25.0703 9.12986 25.5715 8.60096C26.2278 7.90979 27.1367 8.06205 27.6936 8.82334C27.9114 9.15262 28.1562 9.4629 28.4255 9.75092C28.7815 10.0975 29.3066 10.2658 29.6646 9.92922C29.9013 9.70684 29.8933 9.18395 29.9152 8.79128C29.9152 8.63302 29.7382 8.4467 29.6109 8.30245C28.9904 7.59124 28.1491 7.34082 27.262 7.30075C25.2831 7.21661 23.863 8.23434 22.7472 9.77295C21.6314 11.3116 21.1561 13.0906 20.631 14.8616C20.4779 15.3785 20.3446 15.9034 20.1915 16.4643L14.5132 15.6369C14.4455 16.1538 14.3839 16.6386 14.3143 17.1555L19.8613 18.017C19.6107 19.0768 19.38 20.0645 19.1413 21.0782L13.8389 20.3309L13.64 21.8335L18.7774 22.6348C18.7894 22.7681 18.7894 22.9022 18.7774 23.0355C18.2344 25.3675 17.7312 27.7074 17.1226 30.0214C16.8322 31.1233 16.3648 32.1891 15.4539 32.9644C14.7061 33.6015 13.8847 33.4953 13.3218 32.7039C13.0672 32.3473 12.8544 31.9226 12.5262 31.6742C12.2796 31.4899 11.7307 31.3797 11.5537 31.5279C11.4118 31.663 11.2997 31.8266 11.2246 32.0082C11.1496 32.1897 11.1133 32.3851 11.1181 32.5817C11.136 32.8943 11.4363 33.2609 11.7148 33.4752C12.6396 34.1945 13.7295 34.2986 14.8334 34.0763C16.683 33.7076 17.9858 32.5457 18.7953 30.8989C19.4085 29.5877 19.9296 28.2347 20.3546 26.85C20.7523 25.6059 21.0368 24.3177 21.3828 23.0034L26.7946 23.8048C26.9438 23.2819 27.079 22.8031 27.2262 22.3002L21.6792 21.4809L22.3057 18.3836" fill="white"/>
<path d="M53.7383 28.6833V20.87H62.406V18.2937H53.7383V13.5556H62.939V10.9512H50.6555V28.6753L53.7383 28.6833ZM67.8217 13.8922V10.9512H64.9398V13.8842L67.8217 13.8922ZM67.8217 28.6833V15.531H64.9398V28.6833H67.8217ZM73.9595 28.6833V10.9512H71.0776V28.6753L73.9595 28.6833ZM83.0706 29.0019C86.42 29.0019 88.4109 26.8502 88.9936 24.7466H86.1614C85.6523 25.9948 84.4867 26.5817 82.9573 26.5817C81.3065 26.5817 79.608 25.3797 79.4131 22.9376H89.1467C89.4152 18.5301 86.8893 15.2365 82.8837 15.2365C79.1943 15.2365 76.4755 18.0412 76.4755 22.01C76.4755 25.7984 78.878 29.0019 83.0786 29.0019H83.0706ZM86.2012 20.8119H79.4131C79.6796 18.3417 81.5253 17.5103 82.8837 17.5103C84.5842 17.5103 86.1375 18.7645 86.2091 20.8119H86.2012ZM97.3649 29.0019C100.149 29.0019 102.85 27.2649 103.433 24.1937H100.627C100.229 25.9527 98.8546 26.5978 97.4206 26.5978C95.7221 26.5978 94.0713 25.2515 94.0713 22.1222C94.0713 18.9928 95.6743 17.6726 97.4942 17.6726C99.0714 17.6726 100.261 18.6523 100.529 20.0446H103.346C102.834 17.1357 100.362 15.2525 97.4942 15.2525C93.586 15.2525 91.0859 18.2356 91.0859 22.1482C91.0859 26.0609 93.586 29.0019 97.3729 29.0019H97.3649ZM111.558 29.0019C114.74 29.0019 117.99 26.8983 117.99 22.1322C117.99 17.3661 114.738 15.2365 111.558 15.2365C108.377 15.2365 105.124 17.3881 105.124 22.1322C105.124 26.8762 108.395 29.0019 111.566 29.0019H111.558ZM111.558 26.6298C109.712 26.6298 108.111 25.1874 108.111 22.1322C108.111 19.077 109.702 17.6085 111.558 17.6085C113.413 17.6085 115.004 19.099 115.004 22.1322C115.004 25.1653 113.409 26.6298 111.566 26.6298H111.558ZM123.455 13.8922V10.9512H120.575V13.8842L123.455 13.8922ZM123.455 28.6833V15.531H120.575V28.6833H123.455ZM129.593 28.6833V21.6914C129.593 19.3194 130.389 17.6085 132.628 17.6085C134.868 17.6085 135.104 19.3695 135.104 21.1285V28.6833H137.992V20.4193C137.992 17.2899 136.705 15.2365 133.551 15.2365C131.705 15.2365 130.345 15.9957 129.593 17.3641V15.531H126.713V28.6833H129.593Z" fill="black"/>
</g>
<defs>
<clipPath id="clip0">
<rect width="138" height="40" fill="white"/>
</clipPath>
</defs>
</svg>
