<svg width="94" height="63" viewBox="0 0 94 63" fill="none" xmlns="http://www.w3.org/2000/svg">
<g clip-path="url(#clip0_5783:35780)">
<path d="M77.3793 17.0488C77.7773 17.8802 78.1344 18.7424 78.4609 19.6045C86.9803 21.2776 91.7145 23.4638 91.7145 25.2805C91.7145 26.5327 89.4597 27.9594 85.2662 29.2834C83.9092 29.7145 82.338 30.1251 80.5831 30.5151C80.0321 30.6383 79.4608 30.7614 78.869 30.8743C78.6751 30.9154 78.4915 30.9565 78.2976 30.9872C77.9303 31.0591 77.5426 31.1309 77.1549 31.2028C76.7774 31.2746 76.3999 31.3362 76.0121 31.4081C74.5735 31.6544 73.0635 31.8802 71.4514 32.0957C71.5636 32.5576 71.6249 33.0298 71.6249 33.4916C71.6249 33.7996 71.5943 34.1075 71.5534 34.4051C73.0635 34.2101 74.5225 34.0048 75.9305 33.7688C76.3284 33.7072 76.7161 33.6353 77.0937 33.5635C77.4916 33.4916 77.8793 33.4198 78.2568 33.348C78.4507 33.3069 78.6445 33.2761 78.8384 33.235C79.4301 33.1221 80.0117 32.999 80.5729 32.8758C82.5114 32.455 84.2766 31.9828 85.8682 31.4696C90.9085 29.8377 94.0102 27.7746 94.0102 25.2702C94 21.5752 87.2456 18.8142 77.3793 17.0488Z" fill="#00D08A"/>
<path d="M16.9574 28.8724C17.3247 28.9443 17.7124 29.0059 18.0899 29.0674C18.396 25.3724 19.3755 21.8724 20.9263 18.7009C21.3446 17.8387 21.814 16.9971 22.3139 16.176C27.4358 7.86217 36.5777 2.29912 46.9949 2.29912C57.4122 2.29912 66.5642 7.85191 71.6759 16.176C72.1759 16.9868 72.6452 17.8284 73.0635 18.7009C74.6144 21.8827 75.5939 25.3827 75.8999 29.0674C76.2877 29.0059 76.6652 28.934 77.0325 28.8622C77.4202 28.7903 77.7977 28.7185 78.165 28.6466C77.8691 25.2903 77.0427 22.088 75.7775 19.1217C75.4102 18.2595 75.0021 17.4076 74.5634 16.5865C69.2782 6.72287 58.912 0 47.0051 0C35.0982 0 24.7218 6.72287 19.4265 16.5865C18.9878 17.4076 18.5796 18.2595 18.2123 19.1217C16.9472 22.088 16.1309 25.2903 15.8248 28.6466C16.2023 28.7287 16.5696 28.8006 16.9574 28.8724Z" fill="#00D08A"/>
<path d="M75.6448 36.1396C73.4308 50.0369 61.4321 60.6909 47.0051 60.6909C32.5781 60.6909 20.5794 50.0369 18.3653 36.1498C17.9572 36.0882 17.5695 36.0164 17.1716 35.9445C16.7737 35.8727 16.3758 35.8111 15.988 35.7393C18.049 51.1044 31.1701 63.0003 47.0051 63.0003C62.8401 63.0003 75.9611 51.1044 78.0221 35.7393C77.6344 35.8111 77.2467 35.883 76.8386 35.9548C76.4509 36.0061 76.0427 36.078 75.6448 36.1396Z" fill="#00D08A"/>
<path d="M13.4271 32.8963C13.9883 33.0195 14.5698 33.1427 15.1616 33.2556C15.3555 33.2966 15.5493 33.3274 15.7432 33.3685C16.1309 33.4403 16.5186 33.5122 16.9063 33.584C17.294 33.6558 17.6818 33.7174 18.0695 33.7893C19.9774 34.1075 21.9772 34.3846 24.0586 34.6207C24.1198 34.6309 24.1913 34.6309 24.2525 34.6412C24.2525 34.6309 24.2423 34.6207 24.2423 34.6104L24.1811 34.3435L23.6709 32.2394C21.6405 31.9931 19.7428 31.716 17.9776 31.4183C17.5899 31.3567 17.2124 31.2849 16.8349 31.2233C16.4472 31.1514 16.0595 31.0796 15.6922 31.0078C15.4983 30.9667 15.3147 30.9256 15.1208 30.8948C14.529 30.7717 13.9577 30.6588 13.4067 30.5356C12.0497 30.2277 10.805 29.9198 9.68262 29.5913C4.87702 28.1954 2.27526 26.6456 2.27526 25.301C2.27526 23.4843 6.99924 21.2878 15.5289 19.6251C15.8554 18.7526 16.2125 17.9007 16.6104 17.0693C6.76457 18.8142 0 21.5752 0 25.2907C0 27.9594 3.50982 30.1353 9.14187 31.8083C10.458 32.1881 11.8967 32.5576 13.4271 32.8963Z" fill="#00D08A"/>
<path d="M38.8733 37.0219H44.3217L43.4136 46.5571C43.3728 47.0087 43.6279 47.4295 44.0462 47.5937C44.1687 47.6348 44.2911 47.6656 44.4033 47.6656C44.7094 47.6656 45.0053 47.5219 45.1992 47.2653L56.198 32.4955C56.4224 32.1876 56.4632 31.7873 56.2898 31.4383C56.1163 31.0996 55.7797 30.884 55.3919 30.884H50.0864L52.127 21.472C52.229 21.0204 52.0045 20.5585 51.5964 20.3532C51.1781 20.148 50.6884 20.2609 50.3925 20.6098L38.1081 35.3694C37.8632 35.667 37.802 36.0879 37.9653 36.4368C38.1285 36.7961 38.4856 37.0219 38.8733 37.0219ZM49.3212 25.0336L47.8825 31.6744C47.8213 31.972 47.8927 32.2799 48.0764 32.516C48.2601 32.7521 48.5559 32.8958 48.8518 32.8958H53.4024L45.7399 43.1905L46.4133 36.1186C46.4439 35.8415 46.3521 35.5541 46.1582 35.3488C45.9644 35.1436 45.6991 35.0204 45.4236 35.0204H41.0159L49.3212 25.0336Z" fill="#00D08A"/>
</g>
<defs>
<clipPath id="clip0_5783:35780">
<rect width="94" height="63" fill="white"/>
</clipPath>
</defs>
</svg>
