<svg width="1282" height="785" viewBox="0 0 1282 785" fill="none" xmlns="http://www.w3.org/2000/svg">
<g opacity="0.15">
<path d="M239.8 297.078C216.27 295.433 197.78 306.7 196.176 307.72C177.894 319.196 180.455 335.15 180.663 336.274C182.038 343.647 186.889 346.25 183.578 350.832C179.789 356.06 170.523 356.747 155.947 361.746C143.703 365.953 140.35 368.868 127.336 375.471C84.316 397.256 61.5358 395.402 53.6648 409.065C47.064 420.478 56.4551 433.099 60.4531 433.141C63.514 433.182 62.6395 425.851 72.5719 417.749C75.6537 415.229 86.2734 407.378 103.119 405.149C112.51 403.92 112.677 405.899 129.772 404.878C140.496 404.233 142.87 403.316 154.01 402.629C165.671 401.921 168.753 402.587 177.769 402.358C204.943 401.609 208.816 394.694 227.702 395.923C243.173 396.922 241.591 401.65 255.334 401.796C267.349 401.921 278.531 397.401 300.894 388.363C312.951 383.489 314.408 382.156 315.137 380.677C318.365 374.242 305.579 369.535 297.979 358.684C291.337 349.208 296.376 346.084 293.127 335.733C288.609 321.3 270.056 299.202 239.8 297.078Z" fill="#703CBB"/>
<path d="M232.554 296.974C235.406 296.745 238.696 286.581 235.448 276.647C234.157 272.731 232.179 269.836 234.969 266.858C238.009 263.567 243.569 263.609 244.673 260.693C245.714 257.944 241.986 254.445 237.405 253.133C233.407 251.988 230.929 253.091 224.808 252.008C221.08 251.342 218.332 250.28 216.562 249.488C216.749 248.26 218.394 239.387 231.096 234.93C240.987 231.452 251.586 232.764 255.334 233.243C276.511 236.034 275.365 246.635 292.169 250.03C317.032 255.07 338.063 235.618 364.883 241.637C373.295 243.532 371.046 245.406 384.123 249.759C388.475 251.217 419.897 261.693 436.617 255.07C445.883 251.404 438.908 247.156 451.152 227.641C456.232 219.539 461.126 214.395 456.92 209.271C454.088 205.814 447.091 205.648 445.342 201.899C443.801 198.629 448.715 197.483 449.09 193.526C449.736 186.716 442.989 179.031 437.346 179.072C431.87 179.114 431.391 186.528 420.792 188.444C416.357 189.257 414.608 188.299 412.005 189.486C406.216 192.131 411.547 198.358 406.57 200.399C402.218 202.19 395.867 198.316 390.411 200.399C387.371 201.565 388.392 203.127 384.019 205.814C381.832 207.168 377.189 209.48 375.211 208.792C372.983 208.022 373.795 203.273 377.793 199.837C380.75 197.296 383.79 196.9 383.894 195.109C384.019 193.193 380.604 192.818 377.834 190.215C373.274 185.883 378.626 183.134 374.44 178.448C371.317 174.949 366.465 174.428 367.027 172.324C367.652 169.929 374.232 169.284 374.086 167.18C373.961 165.618 370.276 165.368 370.088 164.035C369.693 161.265 384.81 158.662 393.347 157.183C403.884 155.371 407.798 155.434 411.047 156.475C412.213 156.85 415.44 157.891 416.752 159.911C418.106 162.015 416.378 163.64 418.335 165.014C419.543 165.868 421.271 166.014 423.062 166.243C432.765 167.555 436.388 171.179 438.575 170.346C441.344 169.304 434.556 163.91 438.575 160.266C441.573 157.537 449.736 156.558 452.151 158.016C455.649 160.141 444.78 165.972 448.924 172.574C450.402 174.928 451.964 174.49 454.338 177.385C458.315 182.238 455.358 185.3 456.524 190.965C457.419 195.276 461.105 203.065 467.435 203.711C474.078 204.377 476.222 196.442 491.277 192.943C500.293 190.84 505.395 192.318 508.414 189.777C512.038 186.695 505.791 183.571 506.811 176.823C507.623 171.47 511.871 171.304 515.057 164.827C517.264 160.328 515.911 158.953 515.848 147.811C515.765 133.774 517.889 134.69 516.181 130.837C514.224 126.422 508.165 121.986 496.15 113.301C487.654 107.157 483.427 104.095 476.431 100.055C462.229 91.8281 455.129 87.7043 443.468 85.1218C431.474 82.4559 426.206 83.893 421.167 80.4565C416.065 76.9784 419.397 74.0627 416.003 65.8985C412.921 58.4841 405.633 49.9242 399.844 50.2158C396.533 50.3824 397.241 53.2773 390.786 56.9429C383.186 61.2749 377.147 60.1086 372.858 64.1698C370.671 66.2317 369.026 69.564 371.4 71.4801C373.399 73.0838 376.502 72.3132 380.604 74.3751C381.395 74.7708 385.039 76.6035 385.414 79.2902C385.747 81.6437 383.415 83.3931 380.271 85.7466C377.231 88.0167 374.003 90.4535 371.546 90.037C368.048 89.4538 371.608 84.1221 365.882 79.3111C361.197 75.3539 355.283 76.0204 352.639 72.2299C350.307 68.8976 354.138 67.3564 352.472 64.6697C349.12 59.2547 331.15 61.9414 317.886 56.4639C306.787 51.8611 311.41 46.6543 300.915 35.6577C298.541 33.1585 280.321 13.9768 252.439 13.2687C247.609 13.1437 237.78 12.2065 233.491 15.2889C231.866 16.4552 230.95 19.6417 229.18 25.9523C228.431 28.6598 227.848 30.9716 226.911 30.9924C225.932 31.0133 226.244 28.4516 223.392 26.4313C220.227 24.1612 212.98 22.4117 208.17 24.2862C203.86 25.9523 202.923 29.9719 205.109 32.4087C207.525 35.137 212.834 34.8246 215.208 38.032C216.312 39.5315 216.583 41.5517 215.292 42.0099C213.501 42.6347 208.087 40.4062 205.276 37.5321C203.818 36.0326 204.214 35.5327 203.006 35.1162C199.383 33.7833 191.616 36.8657 187.326 39.5107C185.494 40.6353 183.558 41.8225 182.308 43.7177C180.58 46.3628 181.121 48.987 183.766 54.0687C188.43 63.0244 191.699 64.274 190.387 65.7319C185.661 71.0011 137.747 61.1707 137.06 62.3787C136.581 63.2326 160.527 69.5432 175.832 71.8966C180.205 72.5631 183.849 72.9172 188.763 74.5C194.24 76.2703 195.551 77.749 199.258 77.7699C203.381 77.7907 204.422 75.9787 209.753 75.0623C213.938 74.3334 217.457 74.7499 221.705 75.2498C227.202 75.9163 240.383 77.4783 246.588 82.7059C248.962 84.7052 250.961 87.746 247.567 99.4924C241.882 119.174 232.804 123.048 234.969 134.773C236.323 142.104 240.3 142.875 238.363 147.374C234.469 156.433 217.374 155.559 204.922 165.014C196.322 171.533 204.026 172.304 193.282 199.733C191.574 204.086 188.284 211.979 186.972 222.976C186.577 226.35 186.369 228.016 186.494 229.411C187.514 241.512 200.611 244.344 210.731 257.965C216.104 265.192 212.814 264.921 223.829 285.123C229.035 294.662 231.096 297.078 232.554 296.974Z" fill="#703CBB"/>
<path d="M573.299 129.129C576.839 135.981 593.622 134.46 599.473 140.875C607.511 149.706 585.355 163.118 562.638 182.3C532.361 207.834 507.915 237.783 516.099 241.636C521.971 244.406 537.15 230.265 569.426 227.64C604.95 224.745 615.652 239.512 644.076 236.034C671.978 232.618 669.5 217.456 713.874 199.087C739.153 188.631 765.556 186.986 764.848 180.842C764.411 177.031 754.561 177.052 743.255 168.367C734.509 161.64 737.216 159.161 728.325 153.475C719.6 147.873 715.331 149.206 707.231 143.812C698.382 137.918 702.005 135.335 694.134 128.691C689.469 124.755 680.287 121.256 662.15 114.425C647.324 108.843 639.786 106.032 633.956 105.261C612.362 102.408 594.788 109.093 593.643 109.51C582.211 113.8 569.842 122.422 573.299 129.129Z" fill="#703CBB"/>
<path d="M796.291 346.354C796.561 341.606 797.582 322.986 787.566 314.447C777.967 306.242 755.395 304.888 742.964 305.492C717.227 306.741 711.958 317.551 688.678 316.697C671.666 316.072 664.774 309.928 656.695 312.781C647.574 315.989 653.529 324.736 640.203 332.379C639.141 332.983 633.977 335.878 625.669 337.42C622.899 337.94 609.302 340.46 603.367 336.857C597.599 333.358 602.326 326.006 604.346 322.861C610.614 313.114 622.108 309.532 619.859 307.179C618.006 305.242 608.906 306.262 595.621 307.741C583.711 309.074 577.755 309.72 575.256 311.657C569.718 315.947 578.588 320.466 576.235 331.255C574.444 339.398 567.864 343.834 566.532 344.688C564.2 346.209 556.453 351.249 549.082 350.291C540.337 349.145 540.566 340.689 533.569 340.21C527.635 339.815 520.368 345.438 519.035 350.853C517.994 354.998 519.972 360.829 526.781 363.162C535.818 366.265 543.897 359.954 561.68 360.912C572.071 361.475 586.334 364.536 588.833 369.868C589.499 371.305 588.833 371.867 583.023 384.426C580.941 388.946 579.733 391.653 582.045 392.819C584.127 393.861 588.146 393.215 590.499 392.84C596.829 391.82 599.349 389.633 600.473 390.029C603.055 390.966 589.666 402.691 594.663 405.711C598.349 407.94 608.406 403.15 614.049 405.711C620.109 408.46 612.384 415.687 619.859 421.394C624.398 424.851 630.729 424.851 630.52 426.434C630.229 428.704 616.756 431.891 605.304 429.787C584.648 425.997 578.88 406.503 579.15 405.795C579.15 405.795 579.171 405.732 579.13 405.732C578.671 405.524 572.945 411.022 569.426 410.585C566.094 410.168 568.614 404.941 562.971 399.005C558.765 394.61 553.892 393.84 554.246 391.361C554.704 388.112 565.449 388.342 566.532 385.384C567.739 382.031 556.016 377.866 546.167 374.367C534.756 370.305 527.905 371.617 523.553 367.64C520.721 365.078 520.888 362.516 517.098 361.662C514.391 361.058 513.204 362.12 507.395 362.599C500.169 363.203 498.275 361.87 492.361 362.516C487.613 363.016 485.989 364.182 481.866 365.411C470.684 368.723 463.709 365.848 452.777 367.473C443.469 368.847 437.93 372.513 431.454 376.803C426.727 379.927 408.965 391.674 413.838 403.212C415.275 406.607 424.832 412.23 443.885 423.373C458.982 432.182 465.437 435.473 464.25 439.618C463.063 443.72 455.942 443.283 448.737 449.136C438.263 457.654 446.759 463.923 437.097 469.858C428.56 475.107 419.002 472.004 411.402 477.981C407.425 481.105 409.548 482.355 404.613 489.186C401.199 493.914 399.095 494.809 392.973 500.953C383.999 509.95 379.522 514.449 380.376 517.74C382.146 524.654 398.471 530.861 413.817 531.465C433.286 532.214 436.951 523.342 463.271 521.384C482.178 519.989 486.593 524.092 497.213 520.822C512.601 516.073 507.416 506.16 522.429 501.224C532.341 497.954 537.401 501.37 563.637 500.391C575.256 499.953 599.744 499.037 601.931 493.955C604.096 488.915 583.19 482.188 584.481 481.084C585.626 480.105 601.347 486.041 624.711 489.769C648.615 493.559 653.321 490.706 654.279 490.04C658.652 486.999 653.883 481.48 656.695 480.793C658.86 480.272 662.567 483.313 671.229 488.623C678.767 493.247 681.432 492.956 682.369 495.059C684.222 499.141 676.789 501.078 677.996 505.972C678.975 509.971 684.306 510.409 684.785 513.803C685.347 517.885 678.1 520.135 672.187 524.446C659.443 533.693 659.839 547.251 663.941 548.23C668.022 549.209 673.561 537.296 690.594 533.401C706.295 529.819 724.619 534.651 738.591 539.837C736.862 543.044 734.28 548.085 731.802 554.395C726.701 567.37 726.701 573.66 719.205 575.659C712.583 577.43 707.669 573.868 702.234 575.93C698.07 577.534 697.778 582.803 697.382 593.279C697.132 599.673 697.507 604.338 697.799 607.087C698.34 612.357 698.611 614.981 699.34 616.793C703.983 628.498 725.222 635.433 726.493 634.704C727.68 634.017 709.647 627.206 709.522 616.501C709.48 613.544 710.876 614.127 713.395 604.192C714.79 598.715 714.79 596.882 717.268 594.112C720.871 590.072 723.765 590.697 726.472 587.114C729.887 582.595 726.118 580.512 729.866 576.201C732.573 573.077 737.612 570.599 739.569 571.161C742.38 571.973 735.717 578.305 740.548 582.366C745.025 586.135 758.372 587.052 763.807 584.053C768.555 581.429 764.432 577.388 769.617 572.285C773.011 568.953 778.112 566.1 780.278 566.683C783.068 567.433 778.841 573.306 782.693 574.806C785.754 575.993 789.919 572.848 796.749 572.848C805.245 572.848 807.223 577.68 815.656 579.846C829.17 583.303 851.117 577.826 860.737 569.495C868.296 562.934 865.589 556.915 871.399 556.061C876.854 555.27 885.912 559.602 886.912 565.017C887.828 569.911 876.833 572.494 878.666 574.806C880.186 576.722 889.015 577.305 893.7 575.076C898.51 572.806 895.074 569.432 899.509 566.121C905.527 561.643 920.874 560.997 925.205 564.163C927.995 566.204 924.497 568.641 926.662 570.036C933.388 574.41 977.304 557.248 979.99 559.394C981.531 560.622 967.808 566.891 969.807 568.641C971.14 569.807 979.198 568.662 984.841 566.121C990.526 563.559 995.961 558.602 994.045 554.083C991.734 548.605 980.24 547.626 980.948 544.835C981.697 541.961 994.587 540.212 1005.19 540.358C1021.84 540.587 1034.67 545.502 1040.08 547.626C1053.93 553.083 1053.08 556.27 1064.32 558.831C1077.4 561.809 1088.43 559.727 1089.04 561.351C1089.66 562.997 1078.57 566.079 1069.17 567.787C1055.58 570.244 1051.58 568.724 1043.48 570.869C1029.51 574.576 1021.64 584.407 1024.57 586.26C1028.09 588.489 1044.92 577.888 1074.5 575.909C1078.42 575.639 1100.93 572.848 1104.55 577.034C1106.16 578.888 1102.82 580.616 1104.55 582.074C1108.74 585.573 1131.06 578.034 1137.99 582.345C1141.6 584.594 1139.2 588.885 1140.91 589.072C1143.07 589.301 1144.26 581.97 1153.03 579.283C1153.69 579.075 1159.96 577.055 1165.21 578.471C1171.1 580.075 1172.93 585.302 1173.7 587.489C1174.89 590.863 1174.1 592.821 1176.29 593.467C1178.14 594.008 1179.68 592.883 1185.01 592.154C1191.26 591.301 1193.03 592.3 1194.71 591.405C1197.82 589.759 1193.49 585.448 1191.15 578.908C1188.78 572.202 1191.32 571.057 1189.86 566.6C1187.93 560.685 1182.16 558.686 1159.32 545.419C1139.12 533.693 1134.87 530.194 1136.06 526.383C1137.41 521.988 1144.78 520.343 1143.32 517.136C1141.62 513.387 1130.96 514.449 1126.35 510.138C1120.63 504.764 1133.04 499.224 1128.29 493.351C1123.46 487.374 1108.82 490.873 1096.31 482.709C1090.29 478.793 1088.91 474.899 1083.21 474.586C1077.07 474.253 1073.61 478.522 1070.11 477.668C1065.95 476.648 1065.03 469.171 1070.59 466.755C1074.75 464.943 1079.44 467.297 1083.19 465.63C1089.48 462.861 1086.52 451.76 1078.81 450.239C1073.4 449.177 1070.03 453.697 1062.82 453.322C1051.83 452.739 1039.83 441.159 1044.89 434.015C1049.73 427.184 1067.26 428.538 1071.55 421.977C1075.09 416.562 1058.6 411.876 1061.37 406.024C1063.05 402.462 1071.84 402.962 1072.51 400.15C1073.26 396.985 1064.03 392.507 1054.58 392.028C1045.66 391.57 1043.98 395.027 1035.19 395.381C1021.61 395.923 1019.22 387.967 1002.23 385.863C988.506 384.176 985.195 388.758 969.745 386.696C958.626 385.217 950.859 381.573 946.965 379.698C931.639 372.346 933.242 366.202 925.142 365.432C914.169 364.391 908.963 375.512 886.849 378.032C878.062 379.032 874.251 377.803 873.273 377.47C864.902 374.554 864.069 366.161 866.484 360.683C870.274 352.04 884.954 344.126 900.905 343.043C916.876 341.96 923.518 348.458 944.05 346.688C950.838 346.104 960.958 344.459 961.02 342.481C961.083 339.856 943.279 337.274 929.515 336.607C916.938 336.003 908.047 337.045 890.243 339.127C865.027 342.085 860.529 344.647 858.259 346.396C852.616 350.707 852.45 356.164 852.45 357.039C852.367 363.891 859.134 367.806 856.823 369.077C854.324 370.43 844.287 367.098 836.958 363.766C821.674 356.789 818.384 349.895 810.783 350.332C805.016 350.666 802.392 354.914 799.143 354.248C795.791 353.477 796.187 348.229 796.291 346.354Z" fill="#703CBB"/>
<path d="M524.822 535.214C516.972 539.838 505.145 546.815 489.278 546.794C486.696 546.794 481.261 546.773 480.22 545.294C478.679 543.087 489.174 540.796 496.045 533.173C499.648 529.195 499.377 526.925 502.834 526.258C507.415 525.384 510.226 528.924 518.659 529.424C526.655 529.903 532.006 527.196 533.193 528.112C534.797 529.32 526.197 534.402 524.822 535.214Z" fill="#703CBB"/>
<path d="M738.112 620.313C731.49 619.854 725.785 616.314 723.89 612.482C721.787 608.212 723.828 602.443 729.054 601.277C737.092 599.506 746.025 610.024 757.81 608.545C765.827 607.546 768.701 601.777 771.054 602.381C773.469 603.005 773.157 609.774 766.535 613.96C763.141 616.085 757.81 617.126 747.149 619.188C740.861 620.396 739.257 620.375 738.112 620.313Z" fill="#703CBB"/>
<path d="M781.756 661.925C781.277 659.905 791.709 659.03 792.75 655.948C794.083 651.97 778.154 648.638 779.507 645.68C780.548 643.348 792.147 641.557 798.893 644.181C805.744 646.867 800.83 651.491 807.951 661.342C811.887 666.799 815.406 668.153 817.009 673.651C817.384 674.942 819.258 681.919 815.072 682.981C812.47 683.648 807.764 681.982 805.702 679.816C802.933 676.9 806.181 674.338 803.433 672.901C800.663 671.464 796.374 673.609 793.084 672.151C789.669 670.631 792.771 667.59 788.877 664.883C785.9 662.842 782.048 663.154 781.756 661.925Z" fill="#703CBB"/>
<path d="M649.26 677.213C652.82 680.087 657.776 681.961 669.937 684.669C687.615 688.626 688.469 687.209 692.238 689.334C697.215 692.125 698.256 697.102 700.317 707.058C701.692 713.639 700.692 714.534 702.899 717.888C705.794 722.261 710.062 724.677 708.063 726.843C707.085 727.905 704.919 728.613 701.608 731.696C701.379 731.904 701.192 732.071 700.984 732.279C700.484 732.779 695.216 738.194 698.36 740.277C701.317 742.213 711.103 740.86 712.249 738.59C713.29 736.528 706.835 734.445 708.042 732.8C709.167 731.3 715.789 731.592 717.746 731.675C734.571 732.341 749.605 729.447 752.333 728.884C768.283 725.531 777.736 714.368 780.131 706.495C782.234 699.56 777.903 698.289 780.777 690.063C783.963 680.941 791.958 674.942 790.147 674.193C787.856 673.255 777.008 683.773 768.179 682.398C761.599 681.378 757.122 673.943 761.078 670.465C764.139 667.757 770.573 668.923 772.385 666.549C774.717 663.508 767.617 657.073 759.454 656.469C751.437 655.865 746.294 661.197 741.359 659.822C737.215 658.676 739.901 654.699 735.549 652.741C729.282 649.908 719.849 656.469 706.46 654.99C695.382 653.761 694.445 648.45 683.846 648.263C677.37 648.159 670.541 650.012 666.397 652.741C659.858 657.052 664.294 660.676 657.339 665.049C652.196 668.299 646.907 668.132 645.699 671.027C644.679 673.526 647.594 675.88 649.26 677.213Z" fill="#703CBB"/>
<path d="M525.322 119.882C510.829 120.028 498.564 108.907 481.698 93.578C470.87 83.7476 470.016 80.8319 461.333 77.3329C447.736 71.8763 439.053 74.7296 429.349 69.502C417.043 62.879 414.19 49.2581 423.04 44.5929C428.454 41.7396 434.617 44.1347 457.46 45.426C492.63 47.4254 502.333 43.1767 513.203 48.5084C525.051 54.3191 524.072 64.566 529.195 64.4618C533.984 64.3577 532.755 53.4444 541.397 51.8199C548.435 50.4869 558.076 56.0269 561.845 58.1929C569.008 62.2958 568.175 64.2536 575.65 67.8566C579.482 69.6894 579.274 68.9813 589.727 72.876C601.95 77.4162 604.407 79.2074 605.448 80.0404C608.967 82.8104 610.237 85.4763 611.257 87.6006C613.381 92.016 615.11 95.619 612.548 98.0766C608.259 102.18 596.64 98.3265 579.107 101.721C576.4 102.242 574.318 102.763 548.081 112.364C528.445 119.508 527.841 119.862 525.322 119.882Z" fill="#703CBB"/>
<path d="M771.406 777.244C760.683 777.306 757.143 775.953 750.084 777.244C747.793 777.66 744.462 778.306 743.941 779.66C743.379 781.201 746.502 783.305 750.084 783.95C754.977 784.846 758.226 782.617 766.555 781.534C771.865 780.847 776.529 781.097 778.84 781.159C784.421 781.326 784.65 781.805 789.189 781.909C794.374 782.013 803.994 781.617 805.014 779.493C805.618 778.264 802.724 777.66 801.141 775.39C797.789 770.579 804.681 764.643 804.369 764.56C804.098 764.498 801.787 770.038 794.02 773.516C789.835 775.39 785.149 776.161 783.026 776.494C778.694 777.202 775.3 777.223 771.406 777.244Z" fill="#703CBB"/>
<path d="M137.04 49.2988V62.3157L185.307 70.3549H194.365V58.0253L137.04 49.2988Z" fill="#703CBB"/>
<path d="M181.31 46.4251V33.4082L188.327 38.4692L181.31 46.4251Z" fill="#703CBB"/>
<path d="M203.943 16.3086V29.3255L221.893 32.4287L218.165 18.6204L203.943 16.3086Z" fill="#703CBB"/>
<path d="M370.214 68.5435V56.5264L382.771 58.255L378.127 68.5435H370.214Z" fill="#703CBB"/>
<path d="M417.878 53.6729V39.8438L426.727 44.3632L417.878 53.6729Z" fill="#703CBB"/>
<path d="M613.82 82.5596V95.6181L604.428 88.4119L613.82 82.5596Z" fill="#703CBB"/>
<path d="M572.736 126.4C572.819 125.713 572.736 113.925 572.736 113.925L581.169 115.008L572.736 126.4Z" fill="#703CBB"/>
<path d="M514.517 238.783V226.225L521.159 228.995L514.517 238.783Z" fill="#703CBB"/>
<path d="M764.869 180.863V167.846L746.15 173.302L746.92 177.739L764.869 180.863Z" fill="#703CBB"/>
<path d="M516.224 160.265V147.061L515.516 148.518L516.224 160.265Z" fill="#703CBB"/>
<path d="M516.766 133.211V120.152L513.538 127.004L516.766 133.211Z" fill="#703CBB"/>
<path d="M509.456 187.965V174.906L503.147 176.781L503.834 184.216L509.456 187.965Z" fill="#703CBB"/>
<path d="M447.946 169.679V157.058L454.943 160.265L447.946 169.679Z" fill="#703CBB"/>
<path d="M439.2 156.642V168.909L433.64 163.723L439.2 156.642Z" fill="#703CBB"/>
<path d="M383.895 182.092V195.129L371.693 192.484V184.57L383.895 182.092Z" fill="#703CBB"/>
<path d="M449.111 179.447V192.589L441.74 182.092L449.111 179.447Z" fill="#703CBB"/>
<path d="M458.502 200.503V213.103L450.465 208.771L458.502 200.503Z" fill="#703CBB"/>
<path d="M244.757 246.114V260.693L231.701 252.029L244.757 246.114Z" fill="#703CBB"/>
<path d="M186.452 215.165V229.348L191.575 223.308L186.452 215.165Z" fill="#703CBB"/>
<path d="M234.635 131.42V118.611L239.966 120.132L234.635 131.42Z" fill="#703CBB"/>
<path d="M51.3746 418.145V404.524L57.1426 410.46L51.3746 418.145Z" fill="#703CBB"/>
<path d="M315.616 378.991V365.974L304.08 368.598L315.616 378.991Z" fill="#703CBB"/>
<path d="M380.375 517.657V502.974L388.83 507.243L380.375 517.657Z" fill="#703CBB"/>
<path d="M480.076 544.815V531.715L533.237 515.095V528.112L480.076 544.815Z" fill="#703CBB"/>
<path d="M601.909 480.834V493.872L585.126 483.979L601.909 480.834Z" fill="#703CBB"/>
<path d="M678.017 492.872V503.848C678.017 503.848 687.47 503.056 687.47 502.348C687.47 501.64 678.017 492.872 678.017 492.872Z" fill="#703CBB"/>
<path d="M661.4 529.944V542.336L669.563 536.13L661.4 529.944Z" fill="#703CBB"/>
<path d="M413.025 399.755V386.801L419.98 393.278L413.025 399.755Z" fill="#703CBB"/>
<path d="M566.532 385.363V372.325L550.478 376.261L566.532 385.363Z" fill="#703CBB"/>
<path d="M518.784 339.294V352.332H569.3L564.657 344.042L518.784 339.294Z" fill="#703CBB"/>
<path d="M580.816 391.257C580.816 390.279 580.816 378.22 580.816 378.22L589.853 380.365L580.816 391.257Z" fill="#703CBB"/>
<path d="M593.517 403.566V390.508L601.159 392.945L593.517 403.566Z" fill="#703CBB"/>
<path d="M573.445 314.364V301.326L580.483 309.261L573.445 314.364Z" fill="#703CBB"/>
<path d="M620.129 307.845V294.828L602.908 306.012L620.129 307.845Z" fill="#703CBB"/>
<path d="M852.637 342.627L852.595 356.018L892.845 340.898C892.845 340.898 943.32 340.44 944.257 340.898C945.194 341.356 961.123 342.418 961.123 342.418V329.381L890.305 327.86L852.637 342.627Z" fill="#703CBB"/>
<path d="M1072.59 387.071V399.359L1055.8 393.215L1072.59 387.071Z" fill="#703CBB"/>
<path d="M1072.05 407.939V420.311C1072.05 420.311 1054.55 412.875 1055.03 412.251C1055.49 411.626 1072.05 407.939 1072.05 407.939Z" fill="#703CBB"/>
<path d="M1086.66 446.845V459.882L1076.13 451.323L1086.66 446.845Z" fill="#703CBB"/>
<path d="M1129.43 483.042V496.08L1122.4 490.873L1129.43 483.042Z" fill="#703CBB"/>
<path d="M1143.49 504.494V517.865L1129.93 514.678L1143.49 504.494Z" fill="#703CBB"/>
<path d="M1195.8 589.989V576.264L1185.74 578.201L1195.8 589.989Z" fill="#703CBB"/>
<path d="M1024.05 572.431V585.448L1104.34 560.977H1059.37L1024.05 572.431Z" fill="#703CBB"/>
<path d="M969.826 555.582V568.62L986.964 559.123L969.826 555.582Z" fill="#703CBB"/>
<path d="M878.52 560.977V574.014L892.679 566.725L889.119 559.436L878.52 560.977Z" fill="#703CBB"/>
<path d="M726.492 634.683V621.645L706.294 610.69L705.149 620.333L726.492 634.683Z" fill="#703CBB"/>
<path d="M723.097 608.774V596.153L753.749 599.714L772.468 592.237L772.447 605.421L737.632 613.398L723.097 608.774Z" fill="#703CBB"/>
<path d="M645.491 672.026V659.009L655.902 666.444L645.491 672.026Z" fill="#703CBB"/>
<path d="M772.823 652.24V665.32L759.871 657.364L760.495 652.948L772.823 652.24Z" fill="#703CBB"/>
<path d="M790.398 674.567V661.529L776.717 679.149L777.758 681.731L790.398 674.567Z" fill="#703CBB"/>
<path d="M780.653 691.021L780.715 703.288C780.715 703.288 776.363 695.332 776.363 695.144C776.363 694.978 780.653 691.021 780.653 691.021Z" fill="#703CBB"/>
<path d="M712.374 725.155V738.172L697.403 738.714V725.738L712.374 725.155Z" fill="#703CBB"/>
<path d="M817.716 665.319V678.461L793.208 661.945L781.756 661.924V648.887L792.125 650.782L817.716 665.319Z" fill="#703CBB"/>
<path d="M779.402 646.013V633.017L794.727 639.098L796.789 645.617L779.402 646.013Z" fill="#703CBB"/>
<path d="M743.878 767.205L743.941 779.68L805.014 779.493V766.455L743.878 767.205Z" fill="#703CBB"/>
<path d="M804.369 751.522V764.56L798.955 767.205L799.601 757.479L802.266 754.376L804.369 751.522Z" fill="#703CBB"/>
<path d="M239.8 284.061C216.271 282.416 197.78 293.683 196.176 294.704C177.894 306.18 180.455 322.133 180.663 323.258C182.038 330.63 186.89 333.234 183.579 337.816C179.789 343.043 170.523 343.731 155.947 348.729C143.703 352.936 140.35 355.852 127.336 362.454C84.3163 384.239 61.5361 382.385 53.6651 396.048C47.0642 407.461 56.4553 420.082 60.4533 420.124C63.5143 420.166 62.6397 412.835 72.5722 404.733C75.654 402.213 86.2736 394.361 103.119 392.133C112.51 390.904 112.677 392.882 129.772 391.862C140.496 391.216 142.87 390.3 154.01 389.612C165.671 388.904 168.753 389.571 177.769 389.342C204.943 388.592 208.816 381.677 227.702 382.906C243.174 383.906 241.591 388.634 255.334 388.779C267.349 388.904 278.531 384.385 300.894 375.346C312.951 370.472 314.408 369.14 315.137 367.661C318.365 361.225 305.58 356.518 297.979 345.668C291.337 336.191 296.376 333.067 293.128 322.716C288.609 308.262 270.056 286.186 239.8 284.061Z" fill="#CDABFF"/>
<path d="M232.554 283.936C235.407 283.707 238.697 273.543 235.449 263.609C234.158 259.693 232.179 256.798 234.97 253.82C238.01 250.529 243.57 250.571 244.673 247.655C245.714 244.906 241.987 241.407 237.406 240.095C233.408 238.95 230.93 240.053 224.808 238.97C221.081 238.304 218.332 237.242 216.562 236.45C216.75 235.221 218.395 226.349 231.097 221.892C240.988 218.414 251.586 219.726 255.334 220.205C276.511 222.996 275.366 233.597 292.17 236.992C317.032 242.032 338.064 222.579 364.883 228.598C373.296 230.494 371.047 232.368 384.124 236.721C388.476 238.179 419.897 248.655 436.618 242.032C445.884 238.366 438.908 234.118 451.152 214.603C456.233 206.501 461.126 201.357 456.92 196.233C454.088 192.776 447.092 192.609 445.343 188.861C443.802 185.591 448.716 184.445 449.091 180.488C449.736 173.678 442.99 165.993 437.347 166.034C431.87 166.076 431.391 173.49 420.793 175.406C416.357 176.219 414.608 175.261 412.005 176.448C406.217 179.093 411.547 185.32 406.571 187.361C402.219 189.152 395.868 185.278 390.412 187.361C387.372 188.527 388.392 190.089 384.019 192.776C381.833 194.13 377.19 196.442 375.211 195.754C372.983 194.984 373.795 190.235 377.793 186.799C380.75 184.258 383.79 183.862 383.895 182.071C384.019 180.155 380.605 179.78 377.835 177.177C373.275 172.845 378.626 170.096 374.441 165.43C371.318 161.931 366.466 161.411 367.028 159.307C367.653 156.912 374.233 156.266 374.087 154.163C373.962 152.601 370.276 152.351 370.089 151.018C369.693 148.248 384.811 145.645 393.348 144.166C403.884 142.354 407.799 142.416 411.048 143.458C412.214 143.833 415.441 144.874 416.753 146.894C418.106 148.998 416.378 150.622 418.335 151.997C419.543 152.851 421.272 152.997 423.062 153.226C432.766 154.538 436.389 158.162 438.575 157.329C441.345 156.287 434.556 150.893 438.575 147.248C441.574 144.52 449.736 143.541 452.152 144.999C455.65 147.123 444.78 152.955 448.924 159.557C450.403 161.91 451.964 161.473 454.338 164.368C458.315 169.221 455.358 172.282 456.525 177.947C457.42 182.258 461.106 190.048 467.436 190.693C474.078 191.36 476.223 183.425 491.278 179.926C500.294 177.822 505.396 179.322 508.415 176.76C512.038 173.678 505.791 170.554 506.812 163.806C507.624 158.453 511.872 158.287 515.057 151.809C517.265 147.311 515.911 145.936 515.849 134.794C515.765 120.756 517.889 121.673 516.182 117.82C514.225 113.404 508.165 108.968 496.15 100.283C487.655 94.1395 483.428 91.0779 476.431 87.0375C462.23 78.8108 455.129 74.6871 443.469 72.1045C431.475 69.4387 426.207 70.8757 421.167 67.4393C416.066 63.9612 419.397 61.0454 416.003 52.8812C412.922 45.4668 405.634 36.9069 399.845 37.1985C396.534 37.3651 397.242 40.2601 390.787 43.9256C383.187 48.2576 377.148 47.0913 372.858 51.1526C370.672 53.2145 369.027 56.5468 371.401 58.4628C373.4 60.0665 376.502 59.2959 380.605 61.3578C381.396 61.7535 385.04 63.5863 385.415 66.273C385.748 68.6264 383.416 70.3759 380.271 72.7293C377.231 74.9995 374.004 77.4362 371.547 77.0197C368.048 76.4365 371.609 71.1048 365.883 66.2938C361.198 62.3367 355.284 63.0031 352.639 59.1918C350.307 55.8595 354.139 54.3183 352.473 51.6316C349.12 46.2166 331.15 48.9033 317.886 43.4258C306.788 38.823 311.41 33.6163 300.916 22.6196C298.542 20.1204 280.322 0.938716 252.44 0.230598C247.609 0.105636 237.781 -0.831578 233.491 2.25082C231.867 3.41713 230.951 6.60366 229.181 12.9142C228.369 15.6009 227.807 17.9335 226.87 17.9335C225.891 17.9544 226.203 15.3926 223.351 13.3724C220.186 11.1023 212.939 9.35282 208.129 11.2272C203.819 12.8934 202.882 16.913 205.068 19.3498C207.484 22.0781 212.793 21.7657 215.167 24.9731C216.271 26.4726 216.542 28.4928 215.251 28.951C213.46 29.5758 208.046 27.3473 205.235 24.4732C203.777 22.9737 204.173 22.4738 202.965 22.0573C199.342 20.7244 191.575 23.8067 187.285 26.4518C185.453 27.5764 183.517 28.7636 182.267 30.6588C180.539 33.3039 181.08 35.9489 183.725 41.0098C188.389 49.9654 191.658 51.2151 190.346 52.6729C185.62 57.9422 137.706 48.1118 137.019 49.3198C136.54 50.1737 160.486 56.4843 175.791 58.8377C180.164 59.5042 183.808 59.8583 188.722 61.4411C194.199 63.2114 195.51 64.6901 199.217 64.7109C203.34 64.7318 204.381 62.9198 209.712 62.0034C213.897 61.2745 217.416 61.6702 221.664 62.1909C227.161 62.8573 240.342 64.4194 246.547 69.6469C248.921 71.6463 250.92 74.6871 247.526 86.4335C241.841 106.115 232.763 109.989 234.928 121.694C236.282 129.025 240.259 129.795 238.322 134.294C234.428 143.354 217.333 142.479 204.881 151.934C196.281 158.453 203.985 159.224 193.241 186.653C191.533 191.006 188.243 198.899 186.931 209.896C186.536 213.249 186.328 214.936 186.453 216.331C187.473 228.432 200.57 231.264 210.69 244.885C216.063 252.112 212.773 251.841 223.788 272.044C229.035 281.624 231.097 284.061 232.554 283.936Z" fill="#CDABFF"/>
<path d="M573.299 116.091C576.839 122.943 593.622 121.423 599.473 127.859C607.511 136.689 585.355 150.102 562.638 169.283C532.361 194.817 507.915 224.767 516.099 228.62C521.971 231.39 537.151 217.248 569.426 214.624C604.95 211.729 615.653 226.495 644.076 223.017C671.978 219.601 669.501 204.439 713.874 186.07C739.153 175.615 765.556 173.97 764.848 167.826C764.411 164.014 754.562 164.035 743.255 155.35C734.509 148.623 737.216 146.145 728.325 140.459C719.6 134.856 715.332 136.189 707.231 130.795C698.382 124.901 702.005 122.319 694.134 115.675C689.47 111.738 680.287 108.24 662.15 101.408C647.324 95.8267 639.786 93.015 633.956 92.2444C612.363 89.3911 594.788 96.0766 593.643 96.4931C582.211 100.763 569.842 109.406 573.299 116.091Z" fill="#CDABFF"/>
<path d="M796.291 333.316C796.562 328.568 797.582 309.948 787.566 301.409C777.967 293.203 755.395 291.85 742.964 292.454C717.227 293.703 711.959 304.513 688.679 303.659C671.666 303.013 664.774 296.89 656.695 299.743C647.574 302.951 653.53 311.698 640.203 319.341C639.141 319.945 633.977 322.84 625.669 324.381C622.899 324.902 609.302 327.422 603.368 323.819C597.6 320.32 602.326 312.968 604.346 309.823C610.614 300.076 622.108 296.494 619.859 294.141C618.006 292.204 608.906 293.224 595.621 294.703C583.711 296.036 577.755 296.682 575.257 298.619C569.718 302.909 578.588 307.428 576.235 318.217C574.445 326.36 567.865 330.796 566.532 331.65C564.2 333.17 556.454 338.211 549.082 337.253C540.337 336.107 540.566 327.651 533.569 327.172C527.635 326.777 520.368 332.4 519.035 337.815C517.994 341.959 519.972 347.791 526.781 350.124C535.818 353.227 543.898 346.916 561.68 347.874C572.071 348.437 586.334 351.498 588.833 356.83C589.5 358.267 588.833 358.829 583.024 371.388C580.941 375.907 579.734 378.615 582.045 379.781C584.127 380.823 588.146 380.177 590.499 379.802C596.829 378.782 599.349 376.595 600.473 376.99C603.055 377.928 589.666 389.653 594.664 392.673C598.349 394.902 608.407 390.111 614.05 392.673C620.109 395.422 612.384 402.649 619.859 408.356C624.399 411.813 630.729 411.813 630.521 413.396C630.229 415.666 616.757 418.853 605.304 416.749C584.648 412.959 578.88 393.465 579.151 392.756C579.151 392.756 579.171 392.694 579.13 392.694C578.672 392.486 572.945 397.984 569.426 397.547C566.095 397.13 568.614 391.903 562.971 385.967C558.765 381.572 553.893 380.802 554.247 378.323C554.705 375.074 565.449 375.303 566.532 372.346C567.74 368.993 556.016 364.827 546.167 361.329C534.756 357.267 527.906 358.579 523.554 354.601C520.722 352.04 520.888 349.478 517.099 348.624C514.392 348.02 513.205 349.082 507.395 349.561C500.17 350.165 498.275 348.832 492.361 349.478C487.613 349.978 485.989 351.144 481.866 352.373C470.685 355.684 463.709 352.81 452.777 354.435C443.469 355.809 437.93 359.475 431.454 363.765C426.728 366.889 408.966 378.636 413.838 390.174C415.275 393.569 424.833 399.192 443.886 410.334C458.982 419.144 465.437 422.435 464.25 426.58C463.063 430.682 455.942 430.245 448.737 436.097C438.263 444.616 446.759 450.885 437.097 456.82C428.56 462.069 419.002 458.965 411.402 464.943C407.425 468.067 409.549 469.317 404.614 476.148C401.199 480.875 399.096 481.771 392.974 487.915C383.999 496.912 379.522 501.411 380.376 504.702C382.146 511.616 398.471 517.823 413.817 518.427C433.287 519.176 436.952 510.304 463.272 508.346C482.179 506.951 486.593 511.054 497.213 507.784C512.601 503.035 507.416 493.122 522.429 488.186C532.341 484.916 537.401 488.332 563.638 487.353C575.257 486.915 599.744 485.999 601.931 480.917C604.096 475.877 583.19 469.15 584.481 468.046C585.626 467.067 601.348 473.003 624.711 476.731C648.616 480.521 653.322 477.668 654.279 477.002C658.652 473.961 653.884 468.442 656.695 467.754C658.86 467.234 662.567 470.275 671.229 475.585C678.767 480.209 681.432 479.917 682.369 482.021C684.223 486.103 676.789 488.04 677.997 492.934C678.975 496.933 684.306 497.37 684.785 500.765C685.347 504.847 678.101 507.097 672.187 511.408C659.443 520.655 659.839 534.213 663.941 535.192C668.022 536.171 673.561 524.258 690.594 520.363C706.295 516.781 724.619 521.613 738.591 526.799C736.863 530.006 734.281 535.046 731.803 541.357C726.701 554.332 726.701 560.622 719.205 562.621C712.583 564.392 707.669 560.83 702.234 562.892C698.07 564.496 697.778 569.765 697.383 580.241C697.133 586.635 697.508 591.3 697.799 594.049C698.34 599.319 698.611 601.943 699.34 603.755C703.983 615.459 725.223 622.395 726.493 621.666C727.68 620.979 709.647 614.168 709.522 603.463C709.481 600.506 710.876 601.089 713.395 591.154C714.79 585.677 714.79 583.844 717.268 581.074C720.871 577.034 723.765 577.658 726.472 574.076C729.887 569.557 726.118 567.474 729.866 563.163C732.573 560.039 737.612 557.56 739.57 558.123C742.381 558.935 735.717 565.266 740.548 569.328C745.025 573.097 758.373 574.014 763.807 571.015C768.555 568.39 764.432 564.35 769.617 559.268C773.011 555.936 778.113 553.083 780.278 553.666C783.068 554.416 778.841 560.289 782.694 561.788C785.755 562.975 789.919 559.831 796.749 559.831C805.245 559.831 807.223 564.662 815.656 566.828C829.17 570.286 851.117 564.808 860.738 556.477C868.296 549.917 865.589 543.898 871.399 543.044C876.854 542.253 885.912 546.585 886.912 552C887.828 556.894 876.834 559.477 878.666 561.788C880.186 563.704 889.015 564.288 893.7 562.059C898.51 559.789 895.074 556.415 899.51 553.103C905.528 548.626 920.874 547.98 925.205 551.146C927.995 553.187 924.497 555.624 926.663 557.019C933.388 561.393 977.304 544.231 979.99 546.376C981.531 547.605 967.809 553.874 969.808 555.624C971.14 556.79 979.199 555.644 984.842 553.103C990.526 550.542 995.961 545.585 994.045 541.065C991.734 535.588 980.24 534.609 980.948 531.818C981.697 528.944 994.587 527.195 1005.19 527.34C1021.84 527.57 1034.67 532.485 1040.08 534.609C1053.93 540.066 1053.08 543.252 1064.32 545.814C1077.4 548.792 1088.44 546.71 1089.04 548.334C1089.66 549.979 1078.57 553.062 1069.17 554.77C1055.58 557.227 1051.58 555.707 1043.48 557.852C1029.51 561.559 1021.64 571.39 1024.57 573.243C1028.09 575.472 1044.92 564.871 1074.5 562.892C1078.42 562.621 1100.93 559.831 1104.55 564.017C1106.16 565.87 1102.82 567.599 1104.55 569.057C1108.74 572.556 1131.06 565.016 1137.99 569.328C1141.6 571.577 1139.2 575.867 1140.91 576.055C1143.07 576.284 1144.26 568.953 1153.03 566.266C1153.69 566.058 1159.96 564.038 1165.21 565.454C1171.1 567.058 1172.93 572.285 1173.7 574.472C1174.89 577.825 1174.1 579.804 1176.29 580.449C1178.14 580.991 1179.68 579.866 1185.01 579.137C1191.26 578.283 1193.03 579.283 1194.71 578.387C1197.82 576.742 1193.49 572.431 1191.15 565.891C1188.78 559.185 1191.32 558.039 1189.86 553.582C1187.93 547.668 1182.16 545.668 1159.32 532.401C1139.12 520.676 1134.87 517.177 1136.06 513.366C1137.41 508.971 1144.78 507.326 1143.32 504.118C1141.62 500.37 1130.96 501.432 1126.35 497.121C1120.63 491.747 1133.04 486.207 1128.29 480.334C1123.46 474.357 1108.82 477.856 1096.31 469.691C1090.29 465.776 1088.91 461.881 1083.21 461.569C1077.07 461.236 1073.61 465.505 1070.11 464.651C1065.95 463.631 1065.03 456.154 1070.59 453.738C1074.75 451.926 1079.44 454.279 1083.19 452.613C1089.48 449.843 1086.52 438.742 1078.82 437.222C1073.4 436.16 1070.03 440.679 1062.82 440.305C1051.83 439.721 1039.83 428.142 1044.89 420.998C1049.73 414.167 1067.26 415.52 1071.55 408.96C1075.09 403.545 1058.6 398.859 1061.37 393.006C1063.05 389.445 1071.84 389.945 1072.51 387.133C1073.26 383.967 1064.03 379.49 1054.58 379.011C1045.67 378.552 1043.98 382.01 1035.19 382.364C1021.61 382.905 1019.22 374.949 1002.23 372.846C988.507 371.159 985.196 375.741 969.745 373.679C958.626 372.2 950.859 368.556 946.965 366.681C931.639 359.329 933.243 353.185 925.143 352.415C914.169 351.373 908.963 362.495 886.849 365.015C878.062 366.015 874.252 364.786 873.273 364.453C864.902 361.537 864.069 353.144 866.485 347.666C870.275 339.023 884.955 331.109 900.905 330.026C916.876 328.943 923.518 335.441 944.05 333.67C950.838 333.087 960.958 331.442 961.02 329.463C961.083 326.839 943.279 324.257 929.515 323.59C916.938 322.986 908.047 324.027 890.244 326.11C865.027 329.068 860.529 331.629 858.26 333.379C852.617 337.69 852.45 343.147 852.45 344.021C852.367 350.873 859.134 354.789 856.823 356.059C854.324 357.413 844.288 354.081 836.958 350.748C821.674 343.771 818.384 336.878 810.784 337.315C805.016 337.648 802.392 341.897 799.144 341.231C795.791 340.46 796.187 335.212 796.291 333.316Z" fill="#CDABFF"/>
<path d="M524.823 522.176C516.972 526.8 505.145 533.777 489.278 533.756C486.696 533.756 481.261 533.735 480.22 532.256C478.679 530.049 489.174 527.758 496.046 520.135C499.648 516.157 499.377 513.887 502.834 513.22C507.415 512.346 510.226 515.886 518.659 516.386C526.655 516.865 532.007 514.158 533.193 515.074C534.797 516.303 526.197 521.364 524.823 522.176Z" fill="#CDABFF"/>
<path d="M738.112 607.274C731.491 606.816 725.785 603.276 723.89 599.443C721.787 595.174 723.828 589.405 729.054 588.239C737.092 586.468 746.025 596.986 757.811 595.507C765.827 594.508 768.701 588.738 771.054 589.342C773.469 589.967 773.157 596.736 766.535 600.922C763.141 603.047 757.811 604.088 747.149 606.15C740.861 607.379 739.257 607.358 738.112 607.274Z" fill="#CDABFF"/>
<path d="M781.756 648.887C781.277 646.867 791.71 645.992 792.751 642.91C794.083 638.932 778.154 635.6 779.507 632.642C780.549 630.31 792.147 628.518 798.893 631.143C805.744 633.829 800.83 638.453 807.951 648.304C811.887 653.761 815.406 655.115 817.009 660.613C817.384 661.904 819.258 668.881 815.073 669.943C812.47 670.61 807.764 668.944 805.702 666.778C802.933 663.862 806.181 661.3 803.433 659.863C800.663 658.426 796.374 660.571 793.084 659.113C789.669 657.593 792.771 654.552 788.878 651.845C785.9 649.804 782.048 650.116 781.756 648.887Z" fill="#CDABFF"/>
<path d="M649.26 664.195C652.821 667.069 657.776 668.944 669.937 671.651C687.616 675.608 688.469 674.192 692.238 676.316C697.215 679.107 698.256 684.085 700.317 694.04C701.692 700.622 700.692 701.517 702.9 704.87C705.794 709.244 710.063 711.66 708.064 713.826C707.085 714.888 704.919 715.596 701.608 718.679C701.379 718.887 701.192 719.053 700.984 719.262C700.484 719.762 695.216 725.177 698.36 727.259C701.317 729.196 711.104 727.842 712.249 725.572C713.29 723.51 706.835 721.428 708.043 719.782C709.167 718.283 715.789 718.574 717.746 718.658C734.571 719.324 749.605 716.429 752.333 715.867C768.283 712.514 777.737 701.351 780.131 693.478C782.234 686.543 777.903 685.272 780.777 677.045C783.963 667.923 791.959 661.925 790.147 661.175C787.857 660.238 777.008 670.756 768.179 669.381C761.599 668.361 757.122 660.925 761.078 657.447C764.139 654.74 770.574 655.906 772.385 653.532C774.717 650.491 767.617 644.055 759.454 643.451C751.437 642.848 746.294 648.179 741.359 646.805C737.215 645.659 739.902 641.681 735.55 639.703C729.282 636.87 719.849 643.431 706.46 641.952C695.382 640.723 694.445 635.412 683.847 635.225C677.371 635.121 670.541 636.974 666.397 639.703C659.859 644.014 664.294 647.638 657.339 652.011C652.196 655.26 646.907 655.094 645.699 657.989C644.679 660.509 647.594 662.841 649.26 664.195Z" fill="#CDABFF"/>
<path d="M525.322 106.865C510.829 107.011 498.565 95.8891 481.698 80.5604C470.87 70.7301 470.017 67.8143 461.333 64.3153C447.736 58.8587 439.053 61.712 429.35 56.4844C417.043 49.8614 414.191 36.2406 423.04 31.5753C428.454 28.722 434.618 31.1171 457.46 32.4084C492.63 34.4078 502.334 30.1591 513.203 35.4908C525.051 41.3015 524.073 51.5484 529.195 51.4443C533.984 51.3401 532.756 40.4268 541.397 38.8023C548.435 37.4694 558.076 43.0093 561.845 45.1753C569.008 49.2783 568.175 51.236 575.651 54.8391C579.482 56.6718 579.274 55.9637 589.727 59.8584C601.95 64.3987 604.407 66.1898 605.448 67.0229C608.967 69.7928 610.237 72.4587 611.258 74.5831C613.382 78.9984 615.11 82.6014 612.549 85.059C608.259 89.1619 596.64 85.309 579.107 88.7038C576.4 89.2244 574.318 89.7451 548.081 99.3463C528.445 106.49 527.841 106.844 525.322 106.865Z" fill="#CDABFF"/>
<path d="M771.407 764.227C760.683 764.29 757.143 762.936 750.084 764.227C747.794 764.644 744.462 765.289 743.941 766.643C743.379 768.184 746.503 770.288 750.084 770.934C754.977 771.829 758.226 769.601 766.555 768.518C771.865 767.83 776.529 768.08 778.84 768.143C784.421 768.309 784.65 768.788 789.189 768.892C794.374 768.997 803.994 768.601 805.015 766.477C805.619 765.248 802.724 764.644 801.142 762.374C797.789 757.563 804.682 751.627 804.369 751.543C804.098 751.481 801.787 757.021 794.02 760.499C789.835 762.374 785.15 763.144 783.026 763.477C778.695 764.165 775.301 764.206 771.407 764.227Z" fill="#CDABFF"/>
<g clip-path="url(#clip0_5783:35519)">
<path d="M90.249 179.254L77.1219 183.099C76.4462 183.298 75.7283 182.907 75.5293 182.231C75.3302 181.556 75.7223 180.839 76.398 180.64L89.5251 176.795C90.2008 176.596 90.9186 176.988 91.1177 177.663C91.3168 178.344 90.9247 179.055 90.249 179.254Z" fill="#CDABFF"/>
<path d="M96.5593 160.491L92.3545 173.498C92.1374 174.167 91.4134 174.541 90.7378 174.324C90.0681 174.107 89.6941 173.384 89.9113 172.709L94.1161 159.702C94.3333 159.033 95.0572 158.659 95.7329 158.876C96.4025 159.093 96.7765 159.822 96.5593 160.491Z" fill="#CDABFF"/>
<path d="M89.8507 182.991V338.498C89.8507 338.498 100.245 348.419 108.962 338.498L99.4065 181.87L89.8507 182.991Z" fill="white"/>
<path d="M104.154 192.724C114.645 206.575 141.225 238.935 170.815 253.713C170.815 253.713 142.769 213.09 106.362 190.296C104.794 189.313 103.038 191.248 104.154 192.724Z" fill="#F6EFFF"/>
<path d="M0 210.342C0.500713 210.342 23.805 194.937 38.8927 189.741C50.6866 185.685 67.2946 183.16 73.9788 182.25C74.6364 182.159 74.938 183.033 74.3649 183.365C67.5601 187.3 49.094 197.812 41.2395 200.789C31.5148 204.478 0 210.342 0 210.342Z" fill="#F6EFFF"/>
<path d="M97.8082 157.773C96.9877 158.955 95.1417 158.237 95.3227 156.815C96.3241 149.016 98.9604 134.304 105.277 124.371C114.211 110.303 125.39 94 125.39 94C125.39 94 117.342 123.702 113.541 132.411C110.827 138.637 102.387 151.15 97.8082 157.773Z" fill="#F6EFFF"/>
<path d="M134.583 153.439C146.769 171.901 154.551 193.767 154.551 213.229" stroke="white" stroke-width="1.1115" stroke-miterlimit="10" stroke-linecap="round" stroke-linejoin="round"/>
<path d="M46.717 165.681C45.6191 160.117 45.0399 154.615 45.0399 149.293C45.0399 128.951 53.5339 115.788 66.6792 111.997C71.2278 110.683 76.3315 110.49 81.8333 111.514" stroke="white" stroke-width="1.1115" stroke-miterlimit="10" stroke-linecap="round" stroke-linejoin="round"/>
<path d="M34.7305 136.208C37.4995 116.06 47.7068 104.174 61.2502 102.203" stroke="white" stroke-width="1.1115" stroke-miterlimit="10" stroke-linecap="round" stroke-linejoin="round"/>
<path d="M139.428 245.746C132.671 250.393 123.875 251.701 113.921 249.176" stroke="white" stroke-width="1.1115" stroke-miterlimit="10" stroke-linecap="round" stroke-linejoin="round"/>
<path d="M135.946 256.336C131.283 258.247 125.932 258.867 120.099 258.084" stroke="white" stroke-width="1.1115" stroke-miterlimit="10" stroke-linecap="round" stroke-linejoin="round"/>
<path d="M79.9513 227.911C72.3924 220.281 65.6418 211.24 60.1158 201.53" stroke="white" stroke-width="1.1115" stroke-miterlimit="10" stroke-linecap="round" stroke-linejoin="round"/>
<path d="M0 210.342L14.7741 201.53L16.6502 207.015L0 210.342Z" fill="#703CBB"/>
<path d="M125.389 94L118.331 104.421L121.951 106.277L125.389 94Z" fill="#703CBB"/>
<path d="M87.9447 174.474L101.681 168.58C105.482 166.953 109.783 169.418 110.29 173.516C110.628 176.24 109.132 178.862 106.616 179.965L92.2762 186.221L87.9447 174.474Z" fill="#F6EFFF"/>
<path d="M94.6456 185.048C96.544 183.939 96.5251 180.378 94.6035 177.093C92.6819 173.808 89.5852 172.044 87.6868 173.153C85.7884 174.261 85.8073 177.823 87.7289 181.107C89.6505 184.392 92.7472 186.156 94.6456 185.048Z" fill="#2D1155"/>
<path d="M89.8508 279.335C89.8508 279.335 96.4204 286.043 105.307 278.624L105.795 286.664C105.795 286.664 98.4835 293.8 89.8447 288.075V279.335H89.8508Z" fill="#703CBB"/>
<path d="M89.8507 338.498C89.8507 338.498 94.3571 343.476 99.7986 343.29C105.234 343.103 108.962 338.498 108.962 338.498L108.763 334.604C108.763 334.604 104.794 338.564 99.4065 338.263C94.0193 337.962 89.8507 334.858 89.8507 334.858V338.498Z" fill="#2D1155"/>
<path d="M93.2894 179.941L103.641 188.88C104.172 189.338 104.233 190.151 103.774 190.688C103.316 191.218 102.501 191.278 101.964 190.82L91.6123 181.882C91.0814 181.424 91.0211 180.61 91.4796 180.074C91.9441 179.537 92.7585 179.477 93.2894 179.941Z" fill="#CDABFF"/>
<path d="M94.7374 182.768C94.7374 185.866 92.5476 187.107 89.851 185.552C87.1483 183.997 84.9645 180.224 84.9645 177.126C84.9645 174.028 87.1543 172.781 89.851 174.342C92.5476 175.903 94.7374 179.67 94.7374 182.768Z" fill="#703CBB"/>
</g>
<g clip-path="url(#clip1_5783:35519)">
<path d="M1201.25 539.254L1188.12 543.099C1187.45 543.298 1186.73 542.907 1186.53 542.231C1186.33 541.556 1186.72 540.839 1187.4 540.64L1200.53 536.795C1201.2 536.596 1201.92 536.988 1202.12 537.663C1202.32 538.344 1201.92 539.055 1201.25 539.254Z" fill="#CDABFF"/>
<path d="M1207.56 520.491L1203.35 533.498C1203.14 534.167 1202.41 534.541 1201.74 534.324C1201.07 534.107 1200.69 533.384 1200.91 532.709L1205.12 519.702C1205.33 519.033 1206.06 518.659 1206.73 518.876C1207.4 519.093 1207.78 519.822 1207.56 520.491Z" fill="#CDABFF"/>
<path d="M1200.85 542.991V698.498C1200.85 698.498 1211.25 708.419 1219.96 698.498L1210.41 541.87L1200.85 542.991Z" fill="white"/>
<path d="M1215.15 552.724C1225.65 566.575 1252.23 598.935 1281.82 613.713C1281.82 613.713 1253.77 573.09 1217.36 550.296C1215.79 549.313 1214.04 551.248 1215.15 552.724Z" fill="#F6EFFF"/>
<path d="M1111 570.342C1111.5 570.342 1134.8 554.937 1149.89 549.741C1161.69 545.685 1178.29 543.16 1184.98 542.25C1185.64 542.159 1185.94 543.033 1185.36 543.365C1178.56 547.3 1160.09 557.812 1152.24 560.789C1142.51 564.478 1111 570.342 1111 570.342Z" fill="#F6EFFF"/>
<path d="M1208.81 517.773C1207.99 518.955 1206.14 518.237 1206.32 516.815C1207.32 509.016 1209.96 494.304 1216.28 484.371C1225.21 470.303 1236.39 454 1236.39 454C1236.39 454 1228.34 483.702 1224.54 492.411C1221.83 498.637 1213.39 511.15 1208.81 517.773Z" fill="#F6EFFF"/>
<path d="M1245.58 513.439C1257.77 531.901 1265.55 553.767 1265.55 573.229" stroke="white" stroke-width="1.1115" stroke-miterlimit="10" stroke-linecap="round" stroke-linejoin="round"/>
<path d="M1157.72 525.681C1156.62 520.117 1156.04 514.615 1156.04 509.293C1156.04 488.951 1164.53 475.788 1177.68 471.997C1182.23 470.683 1187.33 470.49 1192.83 471.514" stroke="white" stroke-width="1.1115" stroke-miterlimit="10" stroke-linecap="round" stroke-linejoin="round"/>
<path d="M1145.73 496.208C1148.5 476.06 1158.71 464.174 1172.25 462.203" stroke="white" stroke-width="1.1115" stroke-miterlimit="10" stroke-linecap="round" stroke-linejoin="round"/>
<path d="M1250.43 605.746C1243.67 610.393 1234.88 611.701 1224.92 609.176" stroke="white" stroke-width="1.1115" stroke-miterlimit="10" stroke-linecap="round" stroke-linejoin="round"/>
<path d="M1246.95 616.336C1242.28 618.247 1236.93 618.867 1231.1 618.084" stroke="white" stroke-width="1.1115" stroke-miterlimit="10" stroke-linecap="round" stroke-linejoin="round"/>
<path d="M1190.95 587.911C1183.39 580.281 1176.64 571.24 1171.12 561.53" stroke="white" stroke-width="1.1115" stroke-miterlimit="10" stroke-linecap="round" stroke-linejoin="round"/>
<path d="M1111 570.342L1125.77 561.53L1127.65 567.015L1111 570.342Z" fill="#703CBB"/>
<path d="M1236.39 454L1229.33 464.421L1232.95 466.277L1236.39 454Z" fill="#703CBB"/>
<path d="M1198.94 534.474L1212.68 528.58C1216.48 526.953 1220.78 529.418 1221.29 533.516C1221.63 536.24 1220.13 538.862 1217.62 539.965L1203.28 546.221L1198.94 534.474Z" fill="#F6EFFF"/>
<path d="M1205.65 545.048C1207.54 543.939 1207.53 540.378 1205.6 537.093C1203.68 533.808 1200.59 532.044 1198.69 533.153C1196.79 534.261 1196.81 537.823 1198.73 541.107C1200.65 544.392 1203.75 546.156 1205.65 545.048Z" fill="#2D1155"/>
<path d="M1200.85 639.335C1200.85 639.335 1207.42 646.043 1216.31 638.624L1216.8 646.664C1216.8 646.664 1209.48 653.8 1200.84 648.075V639.335H1200.85Z" fill="#703CBB"/>
<path d="M1200.85 698.498C1200.85 698.498 1205.36 703.476 1210.8 703.29C1216.23 703.103 1219.96 698.498 1219.96 698.498L1219.76 694.604C1219.76 694.604 1215.79 698.564 1210.41 698.263C1205.02 697.962 1200.85 694.858 1200.85 694.858V698.498Z" fill="#2D1155"/>
<path d="M1204.29 539.941L1214.64 548.88C1215.17 549.338 1215.23 550.151 1214.77 550.688C1214.32 551.218 1213.5 551.278 1212.96 550.82L1202.61 541.882C1202.08 541.424 1202.02 540.61 1202.48 540.074C1202.94 539.537 1203.76 539.477 1204.29 539.941Z" fill="#CDABFF"/>
<path d="M1205.74 542.768C1205.74 545.866 1203.55 547.107 1200.85 545.552C1198.15 543.997 1195.96 540.224 1195.96 537.126C1195.96 534.028 1198.15 532.781 1200.85 534.342C1203.55 535.903 1205.74 539.67 1205.74 542.768Z" fill="#703CBB"/>
</g>
<g clip-path="url(#clip2_5783:35519)">
<path opacity="0.4" d="M789.993 664.425L742.157 691.866L756.006 644.668L789.993 664.425Z" fill="#2D1155"/>
<path d="M742.193 691.866L659.552 644.297L705.255 592.482L787.897 640.051L742.193 691.866Z" fill="white"/>
<path d="M740.623 687.81L665.008 644.283L706.826 596.874L782.44 640.401L740.623 687.81Z" fill="#421D77"/>
<path d="M687.082 618.466L723.743 639.214L743.048 617.73L687.082 618.466Z" fill="#703CBB"/>
<path d="M727.015 640.969L763.683 661.717L782.988 640.227L727.015 640.969Z" fill="#703CBB"/>
<path d="M704.408 667.185L741.068 687.933L761.302 664.367L704.408 667.185Z" fill="#703CBB"/>
<path d="M665.161 643.619L701.822 664.367L721.127 642.884L665.161 643.619Z" fill="#703CBB"/>
<path d="M687.082 619.26L762.719 662.765" stroke="white" stroke-width="2" stroke-miterlimit="10" stroke-linecap="round" stroke-linejoin="round"/>
<path opacity="0.56" d="M692.166 612.896L767.802 656.394" stroke="white" stroke-miterlimit="10" stroke-linecap="round" stroke-linejoin="round"/>
<path opacity="0.56" d="M697.914 606.887L773.551 650.385" stroke="white" stroke-miterlimit="10" stroke-linecap="round" stroke-linejoin="round"/>
<path opacity="0.56" d="M703.67 600.879L779.307 644.377" stroke="white" stroke-miterlimit="10" stroke-linecap="round" stroke-linejoin="round"/>
<path opacity="0.56" d="M670.939 637.299L746.576 680.797" stroke="white" stroke-miterlimit="10" stroke-linecap="round" stroke-linejoin="round"/>
<path opacity="0.56" d="M676.688 631.291L752.325 674.789" stroke="white" stroke-miterlimit="10" stroke-linecap="round" stroke-linejoin="round"/>
<path opacity="0.56" d="M682.444 625.282L758.08 668.78" stroke="white" stroke-miterlimit="10" stroke-linecap="round" stroke-linejoin="round"/>
<path d="M701.231 665.875L743.048 618.466" stroke="white" stroke-width="2" stroke-miterlimit="10" stroke-linecap="round" stroke-linejoin="round"/>
<path opacity="0.56" d="M689.807 659.051L731.624 611.643" stroke="white" stroke-miterlimit="10" stroke-linecap="round" stroke-linejoin="round"/>
<path opacity="0.56" d="M681.019 653.99L722.837 606.581" stroke="white" stroke-miterlimit="10" stroke-linecap="round" stroke-linejoin="round"/>
<path opacity="0.56" d="M672.232 648.936L714.057 601.527" stroke="white" stroke-miterlimit="10" stroke-linecap="round" stroke-linejoin="round"/>
<path opacity="0.56" d="M730.755 680.549L772.572 633.141" stroke="white" stroke-miterlimit="10" stroke-linecap="round" stroke-linejoin="round"/>
<path opacity="0.56" d="M721.967 675.495L763.785 628.086" stroke="white" stroke-miterlimit="10" stroke-linecap="round" stroke-linejoin="round"/>
<path opacity="0.56" d="M713.181 670.434L754.998 623.025" stroke="white" stroke-miterlimit="10" stroke-linecap="round" stroke-linejoin="round"/>
</g>
<g clip-path="url(#clip3_5783:35519)">
<path opacity="0.4" d="M370.435 140.78L322.599 168.22L336.448 121.022L370.435 140.78Z" fill="#2D1155"/>
<path d="M322.636 168.22L239.995 120.652L285.698 68.8369L368.339 116.406L322.636 168.22Z" fill="white"/>
<path d="M321.065 164.164L245.451 120.637L287.268 73.2285L362.883 116.756L321.065 164.164Z" fill="#421D77"/>
<path d="M267.525 94.8205L304.185 115.568L323.491 94.085L267.525 94.8205Z" fill="#703CBB"/>
<path d="M307.458 117.324L344.125 138.072L363.431 116.581L307.458 117.324Z" fill="#703CBB"/>
<path d="M284.851 143.54L321.511 164.288L341.744 140.722L284.851 143.54Z" fill="#703CBB"/>
<path d="M245.604 119.974L282.265 140.722L301.57 119.238L245.604 119.974Z" fill="#703CBB"/>
<path d="M267.525 95.6143L343.161 139.12" stroke="white" stroke-width="2" stroke-miterlimit="10" stroke-linecap="round" stroke-linejoin="round"/>
<path opacity="0.56" d="M272.609 89.25L348.245 132.748" stroke="white" stroke-miterlimit="10" stroke-linecap="round" stroke-linejoin="round"/>
<path opacity="0.56" d="M278.357 83.2412L353.993 126.739" stroke="white" stroke-miterlimit="10" stroke-linecap="round" stroke-linejoin="round"/>
<path opacity="0.56" d="M284.113 77.2334L359.749 120.731" stroke="white" stroke-miterlimit="10" stroke-linecap="round" stroke-linejoin="round"/>
<path opacity="0.56" d="M251.382 113.653L327.019 157.151" stroke="white" stroke-miterlimit="10" stroke-linecap="round" stroke-linejoin="round"/>
<path opacity="0.56" d="M257.131 107.646L332.767 151.144" stroke="white" stroke-miterlimit="10" stroke-linecap="round" stroke-linejoin="round"/>
<path opacity="0.56" d="M262.886 101.637L338.523 145.135" stroke="white" stroke-miterlimit="10" stroke-linecap="round" stroke-linejoin="round"/>
<path d="M281.673 142.229L323.49 94.8203" stroke="white" stroke-width="2" stroke-miterlimit="10" stroke-linecap="round" stroke-linejoin="round"/>
<path opacity="0.56" d="M270.249 135.406L312.067 87.9971" stroke="white" stroke-miterlimit="10" stroke-linecap="round" stroke-linejoin="round"/>
<path opacity="0.56" d="M261.462 130.344L303.279 82.9355" stroke="white" stroke-miterlimit="10" stroke-linecap="round" stroke-linejoin="round"/>
<path opacity="0.56" d="M252.675 125.291L294.5 77.8818" stroke="white" stroke-miterlimit="10" stroke-linecap="round" stroke-linejoin="round"/>
<path opacity="0.56" d="M311.197 156.904L353.015 109.495" stroke="white" stroke-miterlimit="10" stroke-linecap="round" stroke-linejoin="round"/>
<path opacity="0.56" d="M302.41 151.849L344.227 104.44" stroke="white" stroke-miterlimit="10" stroke-linecap="round" stroke-linejoin="round"/>
<path opacity="0.56" d="M293.623 146.789L335.441 99.3799" stroke="white" stroke-miterlimit="10" stroke-linecap="round" stroke-linejoin="round"/>
</g>
<g clip-path="url(#clip4_5783:35519)">
<path d="M1003.3 123.707L994.237 126.354C993.771 126.491 993.275 126.222 993.138 125.757C993 125.292 993.271 124.798 993.737 124.661L1002.8 122.013C1003.27 121.876 1003.76 122.146 1003.9 122.611C1004.04 123.08 1003.77 123.57 1003.3 123.707Z" fill="#CDABFF"/>
<path d="M1007.65 110.787L1004.75 119.743C1004.6 120.204 1004.1 120.461 1003.64 120.312C1003.17 120.162 1002.92 119.664 1003.07 119.199L1005.97 110.243C1006.12 109.782 1006.62 109.525 1007.08 109.674C1007.55 109.824 1007.8 110.326 1007.65 110.787Z" fill="#CDABFF"/>
<path d="M1003.02 126.279V233.361C1003.02 233.361 1010.2 240.192 1016.22 233.361L1009.62 125.507L1003.02 126.279Z" fill="white"/>
<path d="M1012.9 132.982C1020.14 142.519 1038.49 164.802 1058.91 174.979C1058.91 174.979 1039.55 147.005 1014.42 131.309C1013.34 130.633 1012.13 131.965 1012.9 132.982Z" fill="#F6EFFF"/>
<path d="M941 145.114C941.346 145.114 957.433 134.506 967.848 130.928C975.989 128.135 987.453 126.396 992.068 125.769C992.521 125.707 992.73 126.309 992.334 126.537C987.637 129.247 974.89 136.485 969.468 138.535C962.755 141.075 941 145.114 941 145.114Z" fill="#F6EFFF"/>
<path d="M1008.52 108.914C1007.95 109.728 1006.68 109.234 1006.8 108.254C1007.49 102.884 1009.31 92.7531 1013.67 85.9134C1019.84 76.2266 1027.56 65 1027.56 65C1027.56 65 1022 85.4527 1019.38 91.4499C1017.5 95.7372 1011.68 104.353 1008.52 108.914Z" fill="#F6EFFF"/>
<path d="M1033.9 105.931C1042.31 118.643 1047.69 133.7 1047.69 147.102" stroke="white" stroke-width="1.1115" stroke-miterlimit="10" stroke-linecap="round" stroke-linejoin="round"/>
<path d="M973.249 114.36C972.491 110.529 972.091 106.74 972.091 103.075C972.091 89.0676 977.955 80.0033 987.029 77.3928C990.169 76.488 993.692 76.3552 997.49 77.0608" stroke="white" stroke-width="1.1115" stroke-miterlimit="10" stroke-linecap="round" stroke-linejoin="round"/>
<path d="M964.974 94.0645C966.886 80.19 973.932 72.0056 983.281 70.6484" stroke="white" stroke-width="1.1115" stroke-miterlimit="10" stroke-linecap="round" stroke-linejoin="round"/>
<path d="M1037.25 169.492C1032.58 172.692 1026.51 173.593 1019.64 171.854" stroke="white" stroke-width="1.1115" stroke-miterlimit="10" stroke-linecap="round" stroke-linejoin="round"/>
<path d="M1034.84 176.784C1031.62 178.1 1027.93 178.527 1023.9 177.988" stroke="white" stroke-width="1.1115" stroke-miterlimit="10" stroke-linecap="round" stroke-linejoin="round"/>
<path d="M996.19 157.212C990.972 151.957 986.313 145.732 982.498 139.046" stroke="white" stroke-width="1.1115" stroke-miterlimit="10" stroke-linecap="round" stroke-linejoin="round"/>
<path d="M941 145.114L951.199 139.046L952.494 142.823L941 145.114Z" fill="#703CBB"/>
<path d="M1027.56 65L1022.68 72.1759L1025.18 73.4542L1027.56 65Z" fill="#703CBB"/>
<path d="M1001.71 120.415L1011.19 116.356C1013.81 115.235 1016.78 116.933 1017.13 119.755C1017.37 121.631 1016.33 123.436 1014.6 124.196L1004.7 128.504L1001.71 120.415Z" fill="#F6EFFF"/>
<path d="M1006.33 127.695C1007.64 126.932 1007.63 124.479 1006.3 122.218C1004.98 119.956 1002.84 118.741 1001.53 119.505C1000.22 120.268 1000.23 122.72 1001.56 124.982C1002.89 127.244 1005.02 128.459 1006.33 127.695Z" fill="#2D1155"/>
<path d="M1003.02 192.622C1003.02 192.622 1007.56 197.241 1013.69 192.132L1014.03 197.668C1014.03 197.668 1008.98 202.582 1003.02 198.64V192.622H1003.02Z" fill="#703CBB"/>
<path d="M1003.02 233.362C1003.02 233.362 1006.13 236.79 1009.89 236.661C1013.64 236.533 1016.22 233.362 1016.22 233.362L1016.08 230.681C1016.08 230.681 1013.34 233.407 1009.62 233.2C1005.9 232.992 1003.02 230.855 1003.02 230.855V233.362Z" fill="#2D1155"/>
<path d="M1005.4 124.179L1012.54 130.334C1012.91 130.649 1012.95 131.21 1012.64 131.579C1012.32 131.944 1011.76 131.986 1011.39 131.67L1004.24 125.515C1003.87 125.2 1003.83 124.64 1004.15 124.27C1004.47 123.901 1005.03 123.859 1005.4 124.179Z" fill="#CDABFF"/>
<path d="M1006.4 126.126C1006.4 128.259 1004.89 129.114 1003.02 128.043C1001.16 126.972 999.651 124.374 999.651 122.241C999.651 120.108 1001.16 119.249 1003.02 120.324C1004.89 121.399 1006.4 123.993 1006.4 126.126Z" fill="#703CBB"/>
</g>
<g clip-path="url(#clip5_5783:35519)">
<path d="M313.059 540.866L302.141 544.063C301.579 544.228 300.982 543.903 300.817 543.341C300.651 542.78 300.977 542.184 301.539 542.019L312.457 538.822C313.019 538.657 313.616 538.983 313.781 539.544C313.947 540.11 313.621 540.701 313.059 540.866Z" fill="#CDABFF"/>
<path d="M318.307 525.27L314.81 536.082C314.629 536.638 314.027 536.948 313.465 536.768C312.909 536.588 312.597 535.986 312.778 535.425L316.275 524.614C316.456 524.058 317.058 523.747 317.62 523.927C318.177 524.108 318.488 524.714 318.307 525.27Z" fill="#CDABFF"/>
<path d="M312.728 543.973V673.236C312.728 673.236 321.373 681.483 328.623 673.236L320.675 543.041L312.728 543.973Z" fill="white"/>
<path d="M324.624 552.064C333.349 563.577 355.455 590.476 380.065 602.761C380.065 602.761 356.739 568.993 326.46 550.045C325.155 549.229 323.695 550.837 324.624 552.064Z" fill="#F6EFFF"/>
<path d="M238 566.709C238.416 566.709 257.798 553.903 270.347 549.584C280.155 546.213 293.968 544.113 299.527 543.357C300.074 543.282 300.325 544.008 299.848 544.284C294.189 547.555 278.831 556.293 272.298 558.768C264.21 561.834 238 566.709 238 566.709Z" fill="#F6EFFF"/>
<path d="M319.346 523.011C318.663 523.993 317.128 523.397 317.278 522.214C318.111 515.731 320.304 503.502 325.557 495.245C332.988 483.552 342.285 470 342.285 470C342.285 470 335.592 494.689 332.431 501.929C330.173 507.104 323.154 517.505 319.346 523.011Z" fill="#F6EFFF"/>
<path d="M349.931 519.409C360.066 534.755 366.538 552.931 366.538 569.108" stroke="white" stroke-width="1.1115" stroke-miterlimit="10" stroke-linecap="round" stroke-linejoin="round"/>
<path d="M276.854 529.584C275.941 524.96 275.459 520.386 275.459 515.962C275.459 499.053 282.524 488.111 293.456 484.96C297.239 483.868 301.484 483.708 306.06 484.559" stroke="white" stroke-width="1.1115" stroke-miterlimit="10" stroke-linecap="round" stroke-linejoin="round"/>
<path d="M266.885 505.085C269.188 488.336 277.677 478.457 288.941 476.818" stroke="white" stroke-width="1.1115" stroke-miterlimit="10" stroke-linecap="round" stroke-linejoin="round"/>
<path d="M353.96 596.137C348.341 599.999 341.025 601.087 332.747 598.987" stroke="white" stroke-width="1.1115" stroke-miterlimit="10" stroke-linecap="round" stroke-linejoin="round"/>
<path d="M351.065 604.939C347.186 606.528 342.736 607.044 337.884 606.392" stroke="white" stroke-width="1.1115" stroke-miterlimit="10" stroke-linecap="round" stroke-linejoin="round"/>
<path d="M304.494 581.313C298.208 574.97 292.593 567.455 287.997 559.384" stroke="white" stroke-width="1.1115" stroke-miterlimit="10" stroke-linecap="round" stroke-linejoin="round"/>
<path d="M238 566.708L250.287 559.384L251.848 563.943L238 566.708Z" fill="#703CBB"/>
<path d="M342.285 470L336.414 478.662L339.425 480.205L342.285 470Z" fill="#703CBB"/>
<path d="M311.142 536.893L322.567 531.993C325.728 530.641 329.305 532.69 329.727 536.097C330.008 538.361 328.763 540.54 326.671 541.457L314.745 546.658L311.142 536.893Z" fill="#F6EFFF"/>
<path d="M316.716 545.683C318.294 544.761 318.279 541.801 316.68 539.07C315.082 536.34 312.507 534.874 310.928 535.795C309.349 536.717 309.365 539.677 310.963 542.407C312.561 545.138 315.137 546.604 316.716 545.683Z" fill="#2D1155"/>
<path d="M312.727 624.058C312.727 624.058 318.191 629.634 325.582 623.467L325.988 630.15C325.988 630.15 319.907 636.082 312.722 631.322V624.058H312.727Z" fill="#703CBB"/>
<path d="M312.728 673.236C312.728 673.236 316.476 677.375 321.001 677.219C325.522 677.064 328.623 673.236 328.623 673.236L328.457 670C328.457 670 325.156 673.292 320.675 673.041C316.195 672.791 312.728 670.21 312.728 670.21V673.236Z" fill="#2D1155"/>
<path d="M315.588 541.437L324.197 548.867C324.639 549.248 324.689 549.924 324.308 550.37C323.926 550.811 323.249 550.861 322.803 550.48L314.193 543.051C313.751 542.67 313.701 541.994 314.082 541.548C314.469 541.102 315.146 541.052 315.588 541.437Z" fill="#CDABFF"/>
<path d="M316.792 543.788C316.792 546.363 314.971 547.395 312.728 546.103C310.48 544.81 308.664 541.674 308.664 539.099C308.664 536.523 310.485 535.486 312.728 536.784C314.971 538.082 316.792 541.213 316.792 543.788Z" fill="#703CBB"/>
</g>
<g clip-path="url(#clip6_5783:35519)">
<path opacity="0.4" d="M958.441 507.943L910.605 535.383L924.454 488.186L958.441 507.943Z" fill="#2D1155"/>
<path d="M910.641 535.384L828 487.815L873.703 436L956.345 483.569L910.641 535.384Z" fill="white"/>
<path d="M909.071 531.328L833.456 487.8L875.274 440.392L950.888 483.919L909.071 531.328Z" fill="#421D77"/>
<path d="M855.53 461.984L892.191 482.731L911.496 461.248L855.53 461.984Z" fill="#703CBB"/>
<path d="M895.463 484.487L932.131 505.235L951.436 483.744L895.463 484.487Z" fill="#703CBB"/>
<path d="M872.856 510.703L909.516 531.451L929.749 507.885L872.856 510.703Z" fill="#703CBB"/>
<path d="M833.609 487.137L870.27 507.885L889.575 486.401L833.609 487.137Z" fill="#703CBB"/>
<path d="M855.53 462.777L931.167 506.283" stroke="white" stroke-width="2" stroke-miterlimit="10" stroke-linecap="round" stroke-linejoin="round"/>
<path opacity="0.56" d="M860.614 456.413L936.25 499.911" stroke="white" stroke-miterlimit="10" stroke-linecap="round" stroke-linejoin="round"/>
<path opacity="0.56" d="M866.362 450.404L941.999 493.902" stroke="white" stroke-miterlimit="10" stroke-linecap="round" stroke-linejoin="round"/>
<path opacity="0.56" d="M872.118 444.396L947.755 487.895" stroke="white" stroke-miterlimit="10" stroke-linecap="round" stroke-linejoin="round"/>
<path opacity="0.56" d="M839.387 480.816L915.024 524.314" stroke="white" stroke-miterlimit="10" stroke-linecap="round" stroke-linejoin="round"/>
<path opacity="0.56" d="M845.136 474.809L920.773 518.307" stroke="white" stroke-miterlimit="10" stroke-linecap="round" stroke-linejoin="round"/>
<path opacity="0.56" d="M850.892 468.8L926.528 512.298" stroke="white" stroke-miterlimit="10" stroke-linecap="round" stroke-linejoin="round"/>
<path d="M869.679 509.392L911.496 461.983" stroke="white" stroke-width="2" stroke-miterlimit="10" stroke-linecap="round" stroke-linejoin="round"/>
<path opacity="0.56" d="M858.255 502.569L900.072 455.16" stroke="white" stroke-miterlimit="10" stroke-linecap="round" stroke-linejoin="round"/>
<path opacity="0.56" d="M849.467 497.507L891.285 450.099" stroke="white" stroke-miterlimit="10" stroke-linecap="round" stroke-linejoin="round"/>
<path opacity="0.56" d="M840.68 492.454L882.505 445.045" stroke="white" stroke-miterlimit="10" stroke-linecap="round" stroke-linejoin="round"/>
<path opacity="0.56" d="M899.203 524.067L941.02 476.658" stroke="white" stroke-miterlimit="10" stroke-linecap="round" stroke-linejoin="round"/>
<path opacity="0.56" d="M890.415 519.012L932.233 471.604" stroke="white" stroke-miterlimit="10" stroke-linecap="round" stroke-linejoin="round"/>
<path opacity="0.56" d="M881.629 513.952L923.446 466.543" stroke="white" stroke-miterlimit="10" stroke-linecap="round" stroke-linejoin="round"/>
</g>
</g>
<defs>
<clipPath id="clip0_5783:35519">
<rect width="170.816" height="288.833" fill="white" transform="translate(0 94)"/>
</clipPath>
<clipPath id="clip1_5783:35519">
<rect width="170.816" height="288.833" fill="white" transform="translate(1111 454)"/>
</clipPath>
<clipPath id="clip2_5783:35519">
<rect width="130.441" height="99.3836" fill="white" transform="translate(659.552 592.482)"/>
</clipPath>
<clipPath id="clip3_5783:35519">
<rect width="130.441" height="99.3836" fill="white" transform="translate(239.995 68.8369)"/>
</clipPath>
<clipPath id="clip4_5783:35519">
<rect width="117.914" height="198.891" fill="white" transform="translate(941 65)"/>
</clipPath>
<clipPath id="clip5_5783:35519">
<rect width="142.065" height="240.09" fill="white" transform="translate(238 470)"/>
</clipPath>
<clipPath id="clip6_5783:35519">
<rect width="130.441" height="99.3836" fill="white" transform="translate(828 436)"/>
</clipPath>
</defs>
</svg>
