<svg viewBox="0 0 25 24" fill="none" xmlns="http://www.w3.org/2000/svg">
  <g clip-path="url(#clip0)">
    <path d="M17.4278 15.1351L14.1857 17.9499C13.5372 18.5129 12.7257 18.9313 12.0068 18.8927C11.3077 18.8595 7.94497 18.4126 6.56331 18.2264L5.58422 19.0765C5.17198 19.4344 4.52758 19.3688 4.14358 18.9265C3.75957 18.4842 3.78507 17.8369 4.19732 17.479L5.15923 16.6439C5.16776 15.2658 5.20029 11.8335 5.26557 11.1367C5.33685 10.4121 5.86508 9.66732 6.51351 9.10435L9.75564 6.28954C9.75564 6.28954 9.69711 10.7762 9.67184 11.3629C9.6469 12.0021 9.68859 13.811 9.32241 14.4302C9.99487 14.1552 11.7769 14.4381 12.3972 14.502C12.9811 14.5674 17.4278 15.1351 17.4278 15.1351ZM17.4089 10.2036L16.915 10.6323C16.5887 10.9157 16.5536 11.4131 16.8369 11.7394L17.3365 12.3149C17.6199 12.6412 18.1172 12.6763 18.4436 12.393L18.9374 11.9642C19.2638 11.6809 19.2989 11.1835 19.0156 10.8571L18.516 10.2817C18.2283 9.95906 17.7352 9.92024 17.4089 10.2036ZM16.7608 13.8464C17.0872 13.5631 17.1223 13.0657 16.8389 12.7393L16.3431 12.1682C16.0597 11.8418 15.5624 11.8067 15.236 12.0901L14.7422 12.5188C14.4158 12.8022 14.3807 13.2996 14.664 13.6259L14.8244 13.8106C15.4355 13.89 16.059 13.9662 16.5584 14.0297L16.7646 13.8507L16.7608 13.8464ZM12.591 10.0411C12.2646 10.3244 12.2295 10.8218 12.5129 11.1481L13.0124 11.7236C13.2958 12.0499 13.7932 12.085 14.1195 11.8017L14.6134 11.3729C14.9397 11.0896 14.9748 10.5922 14.6915 10.2658L14.1919 9.69041C13.9086 9.36405 13.4112 9.32896 13.0848 9.6123L12.591 10.0411ZM12.1748 13.4826L12.4411 13.2514C12.7674 12.9681 12.8025 12.4707 12.5192 12.1443L12.0233 11.5732C11.74 11.2468 11.2426 11.2117 10.9162 11.4951L10.65 11.7262C10.6488 11.7423 10.6477 11.7583 10.6503 11.7786C10.6407 12.3141 10.6243 12.833 10.5829 13.3057L10.6053 13.3315C11.0872 13.3574 11.6149 13.4189 12.1748 13.4826ZM16.8601 8.38308L16.3605 7.80765C16.0771 7.48129 15.5797 7.4462 15.2534 7.72954L14.7595 8.15829C14.4332 8.44164 14.3981 8.93903 14.6814 9.26539L15.181 9.84082C15.4644 10.1672 15.9618 10.2023 16.2881 9.91892L16.782 9.49018C17.1089 9.19881 17.1434 8.70944 16.8601 8.38308ZM18.496 7.13595L18.0022 7.5647C17.6758 7.84804 17.6407 8.34544 17.9241 8.6718L18.4237 9.24722C18.707 9.57358 19.2044 9.60867 19.5308 9.32533L20.0246 8.89658C20.351 8.61324 20.3861 8.11584 20.1027 7.78948L19.6031 7.21406C19.3198 6.8877 18.8224 6.8526 18.496 7.13595ZM10.7009 9.06116L10.8612 9.24581C11.1446 9.57217 11.642 9.60726 11.9683 9.32392L12.4622 8.89517C12.7885 8.61182 12.8236 8.11443 12.5403 7.78807L12.0407 7.21264C11.7574 6.88628 11.26 6.85119 10.9336 7.13454L10.7275 7.31349C10.7202 7.81688 10.7081 8.44489 10.7009 9.06116ZM12.5302 6.78762L13.0298 7.36305C13.3132 7.68941 13.8106 7.7245 14.1369 7.44116L14.6308 7.01241C14.9571 6.72906 14.9922 6.23167 14.7089 5.90531L14.2093 5.32988C13.9259 5.00352 13.4286 4.96843 13.1022 5.25178L12.6084 5.68052C12.282 5.96387 12.2469 6.46126 12.5302 6.78762ZM15.7244 6.1382L16.224 6.71363C16.5074 7.03999 17.0047 7.07508 17.3311 6.79174L17.8249 6.36299C18.1513 6.07964 18.1864 5.58225 17.9031 5.25589L17.4035 4.68046C17.1201 4.3541 16.6227 4.31901 16.2964 4.60236L15.8025 5.03111C15.4762 5.31445 15.4411 5.81184 15.7244 6.1382ZM18.9113 5.59308L19.4108 6.1685C19.6942 6.49486 20.1916 6.52996 20.5179 6.24661L21.0118 5.81786C21.3381 5.53452 21.3732 5.03712 21.0899 4.71076L20.5903 4.13534C20.3069 3.80898 19.8096 3.77388 19.4832 4.05723L18.9894 4.48598C18.663 4.76932 18.6279 5.26672 18.9113 5.59308Z" fill="#00D08A"/>
  </g>
  <defs>
    <clipPath id="clip0">
      <rect width="11.7092" height="22.1104" fill="white" transform="translate(17) rotate(49.0355)"/>
    </clipPath>
  </defs>
</svg>
