<svg viewBox="0 0 24 24" fill="none" xmlns="http://www.w3.org/2000/svg">
  <g clip-path="url(#clip0)">
    <path d="M7.09635 10.8059C7.40928 11.806 7.53412 12.8156 7.19655 13.8305C7.15056 13.9681 6.99122 14.4643 6.81135 14.8211C6.74071 14.9622 6.8672 15.1215 7.01258 15.0756C10.532 13.9733 8.83348 9.55551 8.83348 9.55551C8.52958 8.78745 8.25033 7.94493 8.32096 7.10328C8.35792 6.6634 8.47373 6.23478 8.63964 5.8304C8.68564 5.71957 8.77434 5.48144 8.87783 5.25718C8.94929 5.10218 8.79323 4.94199 8.64704 5.01905C7.73207 5.49963 6.93948 6.24517 6.6323 7.3059C6.50253 7.7527 6.4861 8.19864 6.53456 8.64025C6.61505 9.3754 6.87541 10.101 7.09635 10.8059Z" fill="#00D08A
"/>
    <path d="M10.7249 10.8059C11.0379 11.806 11.1627 12.8156 10.8251 13.8305C10.7791 13.9681 10.6198 14.4643 10.4399 14.8211C10.3693 14.9622 10.4958 15.1215 10.6411 15.0756C14.1606 13.9733 12.4621 9.55551 12.4621 9.55551C12.1582 8.78745 11.8789 7.94493 11.9495 7.10328C11.9865 6.6634 12.1023 6.23478 12.2682 5.8304C12.3142 5.71957 12.4029 5.48144 12.5064 5.25718C12.5779 5.10218 12.4218 4.94199 12.2756 5.01905C11.3615 5.49876 10.5689 6.2443 10.2617 7.30503C10.1319 7.75184 10.1155 8.19778 10.164 8.63938C10.2444 9.3754 10.5048 10.101 10.7249 10.8059Z" fill="#00D08A
"/>
    <path d="M14.4637 10.8059C14.7766 11.806 14.9015 12.8156 14.5639 13.8305C14.5179 13.9681 14.3586 14.4643 14.1787 14.8211C14.1081 14.9622 14.2345 15.1215 14.3799 15.0756C17.8993 13.9733 16.2008 9.55551 16.2008 9.55551C15.8969 8.78745 15.6177 7.94493 15.6883 7.10328C15.7253 6.6634 15.8411 6.23478 16.007 5.8304C16.053 5.71957 16.1417 5.48144 16.2452 5.25718C16.3166 5.10218 16.1606 4.94199 16.0144 5.01905C15.1002 5.49876 14.3076 6.2443 14.0005 7.30503C13.8707 7.75184 13.8543 8.19778 13.9027 8.63938C13.9832 9.3754 14.2428 10.101 14.4637 10.8059Z" fill="#00D08A
"/>
    <path d="M19.1174 11.6752C18.958 11.5679 18.7765 11.7696 18.8866 11.9316C19.4672 12.7836 19.8976 14.2219 17.9732 15.7736C17.9732 15.7736 15.5339 17.6197 11.5003 17.572C7.46669 17.6197 5.02731 15.7736 5.02731 15.7736C3.10292 14.2219 3.53248 12.7836 4.11399 11.9316C4.22405 11.7696 4.04253 11.5679 3.88319 11.6752C1.55306 13.2486 2.02368 15.3068 2.06721 15.4774C2.06886 15.4852 2.07132 15.4913 2.07379 15.4991C3.80434 20.1109 11.4995 19.9992 11.4995 19.9992C11.4995 19.9992 19.1946 20.11 20.9251 15.4991C20.9276 15.4921 20.93 15.4852 20.9317 15.4774C20.976 15.3068 21.4467 13.2486 19.1174 11.6752Z" fill="#00D08A
"/>
  </g>
  <defs>
    <clipPath id="clip0">
      <rect width="19" height="15" fill="white" transform="translate(2 5)"/>
    </clipPath>
  </defs>
</svg>
