<svg viewBox="0 0 24 24" fill="none" xmlns="http://www.w3.org/2000/svg">
  <path d="M21.98 8H22H21.98ZM5.35 7C6.54 7 6.77 8 8.68 8C10.63 8 10.77 7 12.01 7C13.2 7 13.43 8 15.34 8C17.29 8 17.43 7 18.67 7C19.86 7 20.07 7.98 21.98 8V6C20.79 6 20.56 5 18.65 5C16.7 5 16.56 6 15.32 6C14.13 6 13.9 5 11.99 5C10.04 5 9.9 6 8.66 6C7.47 6 7.24 5 5.33 5C3.38 5 3.24 6 2 6V8C3.9 8 4.17 7 5.35 7ZM18.67 9C16.72 9 16.58 10 15.34 10C14.15 10 13.92 9 12.01 9C10.06 9 9.91 10 8.67 10C7.43 10 7.29 9 5.34 9C3.39 9 3.24 10 2 10V12C3.95 12 4.11 11 5.34 11C6.58 11 6.72 12 8.67 12C10.62 12 10.77 11 12.01 11C13.2 11 13.43 12 15.34 12C17.28 12 17.43 11 18.67 11C19.86 11 20.09 12 22 12V10C20.76 10 20.62 9 18.67 9ZM5.35 3C6.54 3 6.77 4 8.68 4C10.63 4 10.77 3 12.01 3C13.2 3 13.43 4 15.34 4C17.29 4 17.43 3 18.67 3C19.86 3 20.07 3.98 21.98 4V2C20.79 2 20.56 1 18.65 1C16.7 1 16.56 2 15.32 2C14.13 2 13.9 1 11.99 1C10.04 1 9.9 2 8.66 2C7.47 2 7.24 1 5.33 1C3.38 1 3.24 2 2 2V4C3.9 4 4.17 3 5.35 3Z" fill="#00D08A"/>
  <path d="M6.32 21H3.688C3.576 21 3.52 20.944 3.52 20.832V16.024C3.52 15.912 3.576 15.856 3.688 15.856H4.368C4.48 15.856 4.536 15.912 4.536 16.024V20.024C4.536 20.0827 4.568 20.112 4.632 20.112H6.32C6.42667 20.112 6.48 20.1707 6.48 20.288V20.832C6.48 20.944 6.42667 21 6.32 21ZM8.46575 21H8.27375C7.85242 21 7.52708 20.888 7.29775 20.664C7.06842 20.44 6.95375 20.1173 6.95375 19.696V18.224C6.95375 17.8027 7.06842 17.48 7.29775 17.256C7.52708 17.032 7.85242 16.92 8.27375 16.92H10.1218C10.2391 16.92 10.2978 16.976 10.2978 17.088V20.832C10.2978 20.944 10.2391 21 10.1218 21H9.44975C9.33775 21 9.28175 20.944 9.28175 20.832V20.568H9.24975C9.19108 20.712 9.08708 20.8213 8.93775 20.896C8.78842 20.9653 8.63108 21 8.46575 21ZM9.28175 19.512V17.888C9.28175 17.8293 9.24975 17.8 9.18575 17.8H8.43375C8.26308 17.8 8.14308 17.8373 8.07375 17.912C8.00442 17.9813 7.96975 18.1013 7.96975 18.272V19.648C7.96975 19.8187 8.00442 19.9413 8.07375 20.016C8.14308 20.0853 8.26308 20.12 8.43375 20.12H8.72975C9.09775 20.12 9.28175 19.9173 9.28175 19.512ZM12.0224 21H11.3424C11.2304 21 11.1744 20.944 11.1744 20.832V17.088C11.1744 16.976 11.2304 16.92 11.3424 16.92H12.0224C12.1344 16.92 12.1904 16.976 12.1904 17.088V17.36H12.2224C12.281 17.216 12.385 17.1067 12.5344 17.032C12.6837 16.9573 12.841 16.92 13.0064 16.92H13.2944C13.401 16.92 13.4544 16.976 13.4544 17.088V17.64C13.4544 17.704 13.441 17.7493 13.4144 17.776C13.393 17.7973 13.353 17.8053 13.2944 17.8H12.7424C12.3744 17.8 12.1904 18.008 12.1904 18.424V20.832C12.1904 20.944 12.1344 21 12.0224 21ZM15.4034 20.816H15.1394C14.7288 20.816 14.4168 20.704 14.2034 20.48C13.9954 20.256 13.8914 19.9333 13.8914 19.512V18.224C13.8914 17.8027 14.0061 17.48 14.2354 17.256C14.4648 17.032 14.7901 16.92 15.2114 16.92H17.0594C17.1768 16.92 17.2354 16.976 17.2354 17.088V21.032C17.2354 21.448 17.1181 21.768 16.8834 21.992C16.6541 22.216 16.3314 22.328 15.9154 22.328H14.3794C14.3154 22.328 14.2701 22.3147 14.2434 22.288C14.2221 22.2667 14.2114 22.2267 14.2114 22.168V21.616C14.2114 21.504 14.2674 21.448 14.3794 21.448H15.7474C15.9181 21.448 16.0381 21.4107 16.1074 21.336C16.1821 21.2667 16.2194 21.1493 16.2194 20.984V20.376H16.1874C16.1288 20.52 16.0248 20.6293 15.8754 20.704C15.7261 20.7787 15.5688 20.816 15.4034 20.816ZM16.2194 19.328V17.888C16.2194 17.8293 16.1874 17.8 16.1234 17.8H15.3714C15.2008 17.8 15.0808 17.8373 15.0114 17.912C14.9421 17.9813 14.9074 18.1013 14.9074 18.272V19.464C14.9074 19.6347 14.9421 19.7547 15.0114 19.824C15.0808 19.8933 15.2008 19.928 15.3714 19.928H15.6674C16.0354 19.928 16.2194 19.728 16.2194 19.328ZM21.1199 21H19.3519C18.9305 21 18.6052 20.888 18.3759 20.664C18.1465 20.44 18.0319 20.1173 18.0319 19.696V18.224C18.0319 17.8027 18.1465 17.48 18.3759 17.256C18.6052 17.032 18.9305 16.92 19.3519 16.92H19.9839C20.4052 16.92 20.7305 17.032 20.9599 17.256C21.1892 17.48 21.3039 17.8027 21.3039 18.224V19.24C21.3039 19.352 21.2479 19.408 21.1359 19.408H19.1279C19.0639 19.408 19.0319 19.4373 19.0319 19.496V19.672C19.0319 19.8373 19.0665 19.9573 19.1359 20.032C19.2105 20.1013 19.3332 20.136 19.5039 20.136H21.1199C21.2319 20.136 21.2879 20.1947 21.2879 20.312V20.84C21.2879 20.8987 21.2745 20.9413 21.2479 20.968C21.2265 20.9893 21.1839 21 21.1199 21ZM19.1279 18.728H20.2159C20.2745 18.728 20.3039 18.6987 20.3039 18.64V18.256C20.3039 18.0853 20.2692 17.9653 20.1999 17.896C20.1305 17.8267 20.0105 17.792 19.8399 17.792H19.5039C19.3332 17.792 19.2132 17.8267 19.1439 17.896C19.0745 17.9653 19.0399 18.0853 19.0399 18.256V18.64C19.0399 18.6987 19.0692 18.728 19.1279 18.728Z" fill="#00D08A"/>
</svg>
