<svg width="24" height="24" viewBox="0 0 24 24" fill="none" xmlns="http://www.w3.org/2000/svg">
<path d="M13.4203 11.0399H11.5003V13.9199H8.62027V15.8399H11.5003V18.7199H13.4203V15.8399H16.3003V13.9199H13.4203V11.0399ZM14.3803 2.3999H6.70027C6.19106 2.3999 5.7027 2.60219 5.34263 2.96226C4.98256 3.32233 4.78027 3.81069 4.78027 4.3199V19.6799C4.78027 20.1891 4.98256 20.6775 5.34263 21.0375C5.7027 21.3976 6.19106 21.5999 6.70027 21.5999H18.2203C18.7295 21.5999 19.2178 21.3976 19.5779 21.0375C19.938 20.6775 20.1403 20.1891 20.1403 19.6799V8.1599L14.3803 2.3999ZM18.2203 19.6799H6.70027V4.3199H13.4203V9.1199H18.2203V19.6799Z" fill="#00D08A"/>
</svg>
