<svg width="31" height="31" viewBox="0 0 31 31" fill="none" xmlns="http://www.w3.org/2000/svg">
<path d="M9.69218 13.4785H13.8751V11.9738H9.69218V13.4785ZM9.69218 17.2403H13.8751V15.7356H9.69218V17.2403Z" fill="#00D08A"/>
<path d="M9.69206 21.2738H20.3066V19.7691H9.69206V21.2738ZM9.69206 25.0356H13.4538V23.5309H9.69206V25.0356Z" fill="#00D08A"/>
<path d="M23.5301 5.50191C23.9207 5.644 24.3526 5.4425 24.4947 5.05186C24.6368 4.66122 24.4353 4.22936 24.0446 4.08728L23.5301 5.50191ZM27.1747 6.60927C26.9524 6.25804 26.4874 6.15354 26.1362 6.37586C25.785 6.59818 25.6805 7.06313 25.9028 7.41436L27.1747 6.60927ZM21.9203 14.6383C19.3195 14.6383 17.2111 12.5299 17.2111 9.92907H15.7058C15.7058 13.3613 18.4881 16.1436 21.9203 16.1436V14.6383ZM26.6296 9.92907C26.6296 12.5299 24.5212 14.6383 21.9203 14.6383V16.1436C25.3525 16.1436 28.1349 13.3613 28.1349 9.92907H26.6296ZM21.9203 3.71452C18.4881 3.71452 15.7058 6.49687 15.7058 9.92907H17.2111C17.2111 7.32822 19.3195 5.21981 21.9203 5.21981V3.71452ZM21.9203 5.21981C22.4871 5.21981 23.0288 5.3196 23.5301 5.50191L24.0446 4.08728C23.3809 3.84586 22.6651 3.71452 21.9203 3.71452V5.21981ZM25.9028 7.41436C26.363 8.14148 26.6296 9.003 26.6296 9.92907H28.1349C28.1349 8.70965 27.7829 7.57013 27.1747 6.60927L25.9028 7.41436Z" fill="#00D08A"/>
<path d="M24.6506 7.9803C24.8965 7.71903 24.8842 7.30782 24.6229 7.06184C24.3616 6.81586 23.9504 6.82825 23.7044 7.08952L24.6506 7.9803ZM21.9211 9.93157L21.448 9.48619C21.2097 9.7393 21.2129 10.1351 21.4552 10.3844L21.9211 9.93157ZM22.9785 11.9517C23.2286 12.2091 23.64 12.2149 23.8973 11.9648C24.1546 11.7147 24.1605 11.3033 23.9104 11.046L22.9785 11.9517ZM23.7044 7.08952L21.448 9.48619L22.3942 10.377L24.6506 7.9803L23.7044 7.08952ZM21.4552 10.3844L22.9785 11.9517L23.9104 11.046L22.387 9.47871L21.4552 10.3844Z" fill="#00D08A"/>
<path d="M22.446 5.58251C22.1804 5.6577 22.026 5.93397 22.1012 6.19956C22.1764 6.46516 22.4527 6.61951 22.7183 6.54431L22.446 5.58251ZM24.9214 5.4011L25.0576 5.882C25.1858 5.8457 25.2942 5.75973 25.3587 5.64318C25.4232 5.52662 25.4385 5.38912 25.4013 5.26122L24.9214 5.4011ZM24.7396 2.99164C24.6624 2.72663 24.3849 2.57443 24.1199 2.65168C23.8549 2.72894 23.7027 3.00639 23.78 3.27139L24.7396 2.99164ZM22.7183 6.54431L25.0576 5.882L24.7853 4.9202L22.446 5.58251L22.7183 6.54431ZM25.4013 5.26122L24.7396 2.99164L23.78 3.27139L24.4416 5.54098L25.4013 5.26122Z" fill="#00D08A"/>
<path d="M13.8005 7.35522H7.38944C6.01013 7.35522 4.89414 8.48375 4.89414 9.86307L4.8816 28.0331C4.8816 29.4125 5.99759 30.541 7.3769 30.541H22.4365C23.8158 30.541 24.9443 29.4125 24.9443 28.0331V18.0281L24.9355 18.0195H22.4302L22.4365 18.0281V28.0331H7.38944V9.86307H13.8005V7.35522Z" fill="#00D08A"/>
</svg>
