<svg width="33" height="34" viewBox="0 0 33 34" fill="none" xmlns="http://www.w3.org/2000/svg">
<path d="M11.2207 14.8919H15.6838V13.2864H11.2207V14.8919ZM11.2207 18.9057H15.6838V17.3002H11.2207V18.9057Z" fill="#00D08A"/>
<path d="M11.2207 23.2088H22.5463V21.6033H11.2207V23.2088ZM11.2207 27.2226H15.2345V25.617H11.2207V27.2226Z" fill="#00D08A"/>
<path d="M29.06 6.50777H28.3305V4.98191C28.3305 2.74695 26.5167 0.933104 24.2817 0.933104C22.0467 0.933104 20.2329 2.74695 20.2329 4.98191V6.50777H19.5034C18.5904 6.50777 17.8437 7.25447 17.8437 8.16743V16.1312C17.8437 17.0442 18.5904 17.7909 19.5034 17.7909H29.06C29.9729 17.7909 30.7196 17.0442 30.7196 16.1312V8.16743C30.7196 7.25447 29.9729 6.50777 29.06 6.50777ZM21.9594 4.98191C21.9594 3.69686 22.9966 2.65966 24.2817 2.65966C25.5667 2.65966 26.6039 3.69686 26.6039 4.98191V6.50777H21.9594V4.98191ZM19.5703 16.0643V8.23433H28.9931V16.0643H19.5703ZM24.2817 13.809C25.1947 13.809 25.9414 13.0623 25.9414 12.1493C25.9414 11.2364 25.1947 10.4897 24.2817 10.4897C23.3687 10.4897 22.622 11.2364 22.622 12.1493C22.622 13.0623 23.3687 13.809 24.2817 13.809Z" fill="#00D08A" stroke="#00D08A" stroke-width="0.133792"/>
<path d="M15.6042 8.35856H8.76373C7.29202 8.35856 6.10127 9.56269 6.10127 11.0344L6.08789 30.4217C6.08789 31.8934 7.27864 33.0975 8.75035 33.0975H24.8188C26.2905 33.0975 27.4946 31.8934 27.4946 30.4217V19.7464L27.4852 19.7373H24.812L24.8188 19.7464V30.4217H8.76373V11.0344H15.6042V8.35856Z" fill="#00D08A"/>
</svg>
