<svg width="207" height="108" viewBox="0 0 207 108" fill="none" xmlns="http://www.w3.org/2000/svg">
<path d="M39.5376 93.7599H24.119C21.9158 93.7599 20.1304 91.9691 20.1304 89.7591C20.1304 87.5492 21.9158 85.7583 24.119 85.7583H39.5376C41.7408 85.7583 43.5262 87.5492 43.5262 89.7591C43.5262 91.9691 41.7408 93.7599 39.5376 93.7599Z" fill="#F6EFFF"/>
<path d="M39.5376 108H24.119C21.9158 108 20.1304 106.209 20.1304 103.999C20.1304 101.789 21.9158 99.9985 24.119 99.9985H39.5376C41.7408 99.9985 43.5262 101.789 43.5262 103.999C43.5262 106.209 41.7408 108 39.5376 108Z" fill="#F6EFFF"/>
<path d="M39.5376 79.5217H24.119C21.9158 79.5217 20.1304 77.7308 20.1304 75.5208C20.1304 73.3109 21.9158 71.52 24.119 71.52H39.5376C41.7408 71.52 43.5262 73.3109 43.5262 75.5208C43.5262 77.7308 41.7408 79.5217 39.5376 79.5217Z" fill="#F6EFFF"/>
<path d="M24.119 0C24.1006 0 24.0803 0 24.0619 0C21.8808 0.00553875 20.1304 1.81486 20.1304 4.00267C20.1304 6.20893 21.9103 8.00349 24.1116 8.00164C24.5883 8.00164 25.0687 8.02195 25.5528 8.06441C33.4029 8.75122 39.6848 15.154 40.2425 23.0393C40.9125 32.5106 33.4213 40.431 24.119 40.431C22.7422 40.431 21.406 40.2575 20.1304 39.9307V48.0966C21.428 48.3145 22.7606 48.4326 24.119 48.4326C37.432 48.4326 48.262 37.5693 48.262 24.2154C48.262 10.8615 37.4301 0 24.119 0Z" fill="#F6EFFF"/>
<path d="M8.81458 29.4329C8.36548 28.1129 8.08203 26.7171 7.99 25.2715H0C0.108595 27.8008 0.609235 30.2287 1.43566 32.4995L8.81458 29.4329Z" fill="#F6EFFF"/>
<path d="M7.99 23.1607C8.08387 21.7132 8.36732 20.3175 8.81458 18.9992L1.43566 15.9326C0.609235 18.2035 0.108595 20.6313 0 23.1607H7.99Z" fill="#F6EFFF"/>
<path d="M9.62074 17.0518C10.2521 15.7742 11.0472 14.5907 11.9785 13.531L6.33161 7.8667C4.67692 9.67602 3.29096 11.7364 2.24182 13.9852L9.62074 17.0518Z" fill="#F6EFFF"/>
<path d="M7.81702 6.37309L13.4658 12.0392C14.4947 11.1327 15.6377 10.3536 16.8727 9.72957V9.42493L13.9204 2.27441C11.6786 3.32678 9.62079 4.71331 7.81702 6.37309Z" fill="#F6EFFF"/>
<path d="M11.9785 34.9031C11.049 33.8415 10.2521 32.6599 9.62074 31.3823L2.24182 34.4489C3.29096 36.6977 4.67692 38.7581 6.33161 40.5674L11.9785 34.9031Z" fill="#F6EFFF"/>
<path d="M16.8727 39.0093V38.7047C15.6377 38.0806 14.4947 37.3015 13.4658 36.395L7.81702 42.0612C9.62079 43.7209 11.6767 45.1075 13.9186 46.1598L16.8727 39.0093Z" fill="#F6EFFF"/>
<path d="M24.119 14.2383C21.9158 14.2383 20.1304 16.0291 20.1304 18.2391V66.0126V75.519V104.234C20.1304 106.313 21.8109 107.996 23.8816 107.996H28.1076V75.5208V66.0145V18.2391C28.1076 16.031 26.3222 14.2383 24.119 14.2383Z" fill="#F6EFFF"/>
<path d="M64.3782 12.8534H61.9855V8.75293H77.7832C79.5134 8.75293 80.2883 9.52835 80.2883 11.2638V15.2536H75.9058V13.6658C75.9058 13.1488 75.6114 12.8534 75.096 12.8534H69.2043V19.7233H77.6728V23.8239H69.2024V30.066C69.2024 30.583 69.4969 30.8784 70.0123 30.8784H76.0513C76.5666 30.8784 76.8611 30.583 76.8611 30.066V28.4783H81.2436V32.468C81.2436 34.2404 80.4705 34.9789 78.7404 34.9789H66.8833C65.1163 34.9789 64.3801 34.2404 64.3801 32.468V12.8534H64.3782Z" fill="#F6EFFF"/>
<path d="M85.0738 20.9433C85.0738 20.3895 84.7793 20.131 84.264 20.131H82.7915V16.1412H87.1003C88.7569 16.1412 89.5667 16.9167 89.5667 18.246V18.7998C89.5667 19.206 89.4931 19.6122 89.4931 19.6122H89.5667C90.3766 18.0244 92.4031 15.6963 96.1947 15.6963C100.356 15.6963 102.749 17.8749 102.749 22.8616V30.2115C102.749 30.7284 103.044 31.0238 103.559 31.0238H105.031V34.9767H100.575C98.8083 34.9767 98.0721 34.2382 98.0721 32.4658V23.8216C98.0721 21.5323 97.4831 19.9796 95.1253 19.9796C92.6203 19.9796 90.7429 21.5674 90.0802 23.8216C89.8226 24.5971 89.7121 25.4463 89.7121 26.3325V34.9767H85.072V20.9433H85.0738Z" fill="#F6EFFF"/>
<path d="M116.412 15.6982C121.788 15.6982 124.735 19.6511 124.735 24.6378C124.735 25.1917 124.624 26.3733 124.624 26.3733H111.661C112.029 29.6983 114.461 31.4338 117.295 31.4338C120.316 31.4338 122.561 29.3291 122.561 29.3291L124.512 32.5803C124.512 32.5803 121.639 35.4254 116.964 35.4254C110.741 35.4254 106.874 30.9187 106.874 25.5627C106.874 19.76 110.778 15.6982 116.412 15.6982ZM119.946 23.122C119.872 20.8696 118.326 19.3169 116.41 19.3169C114.017 19.3169 112.322 20.757 111.807 23.122H119.946Z" fill="#F6EFFF"/>
<path d="M129.263 20.9438C129.263 20.3899 128.968 20.1314 128.453 20.1314H126.98V16.1417H131.252C132.909 16.1417 133.756 16.8432 133.756 18.431V19.5388C133.756 20.2403 133.682 20.7204 133.682 20.7204H133.756C134.602 18.0248 136.85 15.8813 139.721 15.8813C140.126 15.8813 140.568 15.9552 140.568 15.9552V20.5727C140.568 20.5727 140.089 20.4988 139.426 20.4988C137.439 20.4988 135.154 21.6435 134.308 24.4516C134.05 25.3748 133.903 26.4087 133.903 27.5183V34.9808H129.263V20.9438Z" fill="#F6EFFF"/>
<path d="M150.179 15.6982C154.525 15.6982 155.96 18.3587 155.96 18.3587H156.034C156.034 18.3587 156.034 18.1371 156.034 17.8787C156.034 17.0294 156.623 16.1432 158.095 16.1432H162.441V20.1329H161.005C160.527 20.1329 160.196 20.3914 160.196 20.8714V33.8376C160.196 40.3013 155.187 42.7402 150.29 42.7402C147.934 42.7402 145.429 42.0756 143.625 41.1155L145.06 37.4212C145.06 37.4212 147.38 38.6767 150.253 38.6767C153.089 38.6767 155.555 37.4581 155.555 34.0592V33.173C155.555 32.7299 155.592 32.176 155.592 32.176H155.519C154.414 33.7638 152.793 34.6131 150.29 34.6131C144.913 34.6131 141.856 30.2541 141.856 25.0827C141.856 19.9114 144.766 15.6982 150.179 15.6982ZM155.666 25.1178C155.666 20.8327 153.531 19.688 150.989 19.688C148.153 19.688 146.607 21.7558 146.607 24.9332C146.607 28.2213 148.263 30.6584 151.283 30.6584C153.531 30.6584 155.666 29.3642 155.666 25.1178Z" fill="#F6EFFF"/>
<path d="M167.744 38.784C169.032 38.784 170.173 38.0086 170.838 36.3839L171.464 34.9438L165.204 20.796C164.983 20.2421 164.725 20.1313 164.21 20.1313H163.658V16.1416H166.752C168.077 16.1416 168.74 16.6216 169.22 17.914L172.903 27.3336C173.271 28.2936 173.566 29.8445 173.566 29.8445H173.639C173.639 29.8445 173.934 28.2936 174.265 27.3336L177.47 17.914C177.911 16.6216 178.684 16.1416 179.973 16.1416H183.14V20.1313H182.588C182.036 20.1313 181.742 20.2421 181.521 20.796L174.782 37.8239C173.457 41.2229 170.805 42.7368 168.007 42.7368C165.06 42.7368 163.257 40.8167 163.257 40.8167L165.06 37.4916C165.057 37.4916 166.198 38.784 167.744 38.784Z" fill="#F6EFFF"/>
<path d="M64.3782 47.9174H61.9855V43.8169H73.953C78.8508 43.8169 82.2761 47.2528 82.2761 52.3502C82.2761 57.4477 78.8508 60.9944 73.953 60.9944H69.2024V70.0447H64.3782V47.9174ZM73.0695 56.8551C75.7954 56.8551 77.3415 55.0827 77.3415 52.3484C77.3415 49.651 75.7954 47.9156 73.1431 47.9156H69.2024V56.8551H73.0695Z" fill="#F6EFFF"/>
<path d="M92.992 50.7603C98.3684 50.7603 101.315 54.7131 101.315 59.6998C101.315 60.2537 101.205 61.4353 101.205 61.4353H88.2415C88.6096 64.7604 91.041 66.4958 93.8755 66.4958C96.8959 66.4958 99.1415 64.3911 99.1415 64.3911L101.092 67.6424C101.092 67.6424 98.2193 70.4874 93.5442 70.4874C87.3212 70.4874 83.4541 65.9807 83.4541 60.6248C83.4541 54.8238 87.358 50.7603 92.992 50.7603ZM96.526 58.1859C96.4523 55.9334 94.9063 54.3807 92.9902 54.3807C90.5974 54.3807 88.9022 55.8208 88.3869 58.1859H96.526Z" fill="#F6EFFF"/>
<path d="M115.16 58.2228H115.749V58.0751C115.749 55.3777 114.682 54.3807 112.287 54.3807C111.44 54.3807 109.782 54.6023 109.782 55.6362V56.6332H105.436V54.6392C105.436 51.1295 110.371 50.7603 112.322 50.7603C118.582 50.7603 120.424 54.0484 120.424 58.2597V65.2773C120.424 65.7943 120.719 66.0897 121.234 66.0897H122.707V70.0425H118.508C116.778 70.0425 116.115 69.0824 116.115 67.9747C116.115 67.4947 116.152 67.1623 116.152 67.1623H116.079C116.079 67.1623 114.643 70.4874 110.408 70.4874C107.056 70.4874 104.001 68.3827 104.001 64.6145C104.002 58.7028 112.103 58.2228 115.16 58.2228ZM111.551 66.8282C114.056 66.8282 115.823 64.1677 115.823 61.8784V61.4353H115.013C112.581 61.4353 108.716 61.7676 108.716 64.3911C108.716 65.6466 109.636 66.8282 111.551 66.8282Z" fill="#F6EFFF"/>
<path d="M134.862 50.7603C137.293 50.7603 141.674 51.7572 141.674 55.0085V57.224H137.549V56.1901C137.549 55.1562 136.003 54.7131 134.86 54.7131C131.619 54.7131 129.3 57.187 129.3 60.586C129.3 64.428 132.136 66.3851 135.154 66.3851C138.359 66.3851 140.715 63.8372 140.715 63.8372L142.666 67.0885C142.666 67.0885 139.866 70.4874 134.748 70.4874C128.561 70.4874 124.584 66.0915 124.584 60.6248C124.588 55.3039 128.416 50.7603 134.862 50.7603Z" fill="#F6EFFF"/>
<path d="M153.936 50.7603C159.312 50.7603 162.259 54.7131 162.259 59.6998C162.259 60.2537 162.149 61.4353 162.149 61.4353H149.185C149.553 64.7604 151.985 66.4958 154.819 66.4958C157.84 66.4958 160.085 64.3911 160.085 64.3911L162.036 67.6424C162.036 67.6424 159.163 70.4874 154.488 70.4874C148.265 70.4874 144.398 65.9807 144.398 60.6248C144.398 54.8238 148.302 50.7603 153.936 50.7603ZM157.472 58.1859C157.398 55.9334 155.852 54.3807 153.936 54.3807C151.543 54.3807 149.848 55.8208 149.333 58.1859H157.472Z" fill="#F6EFFF"/>
<path d="M64.3782 82.9794H61.9855V78.8789H73.953C78.8508 78.8789 82.2761 82.3148 82.2761 87.4123C82.2761 92.5097 78.8508 96.0564 73.953 96.0564H69.2024V105.107H64.3782V82.9794ZM73.0695 91.9189C75.7954 91.9189 77.3415 90.1466 77.3415 87.4123C77.3415 84.7149 75.7954 82.9794 73.1431 82.9794H69.2024V91.9189H73.0695Z" fill="#F6EFFF"/>
<path d="M94.6485 93.2853H95.2375V93.1376C95.2375 90.4421 94.17 89.4432 91.7754 89.4432C90.9287 89.4432 89.2704 89.6648 89.2704 90.6987V91.6957H84.9247V89.7017C84.9247 86.192 89.8593 85.8228 91.8104 85.8228C98.0702 85.8228 99.9126 89.1109 99.9126 93.3222V100.34C99.9126 100.857 100.207 101.152 100.722 101.152H102.195V105.105H97.9966C96.2664 105.105 95.6038 104.145 95.6038 103.037C95.6038 102.557 95.6406 102.225 95.6406 102.225H95.567C95.567 102.225 94.1313 105.55 89.8962 105.55C86.5444 105.55 83.4891 103.445 83.4891 99.677C83.4909 93.7653 91.5913 93.2853 94.6485 93.2853ZM91.0392 101.892C93.5442 101.892 95.3112 99.232 95.3112 96.9427V96.4996H94.5013C92.0717 96.4996 88.2047 96.8319 88.2047 99.4554C88.2047 100.709 89.1249 101.892 91.0392 101.892Z" fill="#F6EFFF"/>
<path d="M105.954 91.0693C105.954 90.5154 105.659 90.2569 105.144 90.2569H103.671V86.2672H107.943C109.6 86.2672 110.446 86.9687 110.446 88.5565V89.6643C110.446 90.3658 110.373 90.8459 110.373 90.8459H110.446C111.293 88.1485 113.54 86.0068 116.412 86.0068C116.817 86.0068 117.258 86.0807 117.258 86.0807V90.6982C117.258 90.6982 116.78 90.6243 116.117 90.6243C114.129 90.6243 111.845 91.769 110.999 94.5771C110.741 95.5003 110.594 96.5342 110.594 97.6438V105.106H105.954V91.0693Z" fill="#F6EFFF"/>
<path d="M121.199 89.997H118.769V86.2658H121.309V81.1313H125.876V86.2658H130.148V89.997H125.876V97.6054C125.876 100.709 128.307 101.152 129.596 101.152C130.111 101.152 130.443 101.078 130.443 101.078V105.179C130.443 105.179 129.854 105.29 129.007 105.29C126.391 105.29 121.199 104.514 121.199 98.1981V89.997Z" fill="#F6EFFF"/>
<path d="M134.751 91.0698C134.751 90.5159 134.457 90.2574 133.941 90.2574H132.469V86.2677H136.778C138.434 86.2677 139.244 87.0431 139.244 88.3724V88.9263C139.244 89.3325 139.171 89.7386 139.171 89.7386H139.244C140.054 88.1509 142.081 85.8228 145.872 85.8228C150.034 85.8228 152.426 88.0013 152.426 92.988V100.338C152.426 100.855 152.721 101.15 153.236 101.15H154.709V105.103H150.253C148.486 105.103 147.748 104.365 147.748 102.59V93.9462C147.748 91.6569 147.159 90.1042 144.801 90.1042C142.298 90.1042 140.418 91.692 139.756 93.9462C139.498 94.7217 139.388 95.5709 139.388 96.4571V105.101H134.748V91.0698H134.751Z" fill="#F6EFFF"/>
<path d="M166.087 85.8242C171.464 85.8242 174.41 89.777 174.41 94.7638C174.41 95.3176 174.3 96.4992 174.3 96.4992H161.337C161.705 99.8243 164.136 101.56 166.971 101.56C169.991 101.56 172.237 99.4551 172.237 99.4551L174.188 102.706C174.188 102.706 171.315 105.551 166.64 105.551C160.417 105.551 156.549 101.045 156.549 95.6887C156.549 89.886 160.453 85.8242 166.087 85.8242ZM169.623 93.248C169.549 90.9956 168.003 89.4429 166.087 89.4429C163.695 89.4429 161.999 90.8829 161.484 93.248H169.623Z" fill="#F6EFFF"/>
<path d="M178.94 91.0693C178.94 90.5154 178.646 90.2569 178.13 90.2569H176.658V86.2672H180.93C182.586 86.2672 183.433 86.9687 183.433 88.5565V89.6643C183.433 90.3658 183.359 90.8459 183.359 90.8459H183.433C184.28 88.1485 186.527 86.0068 189.398 86.0068C189.803 86.0068 190.245 86.0807 190.245 86.0807V90.6982C190.245 90.6982 189.767 90.6243 189.104 90.6243C187.116 90.6243 184.832 91.769 183.985 94.5771C183.728 95.5003 183.58 96.5342 183.58 97.6438V105.106H178.94V91.0693Z" fill="#F6EFFF"/>
<path d="M194.184 99.1209C194.184 99.1209 196.577 101.892 199.781 101.892C201.217 101.892 202.323 101.301 202.323 100.046C202.323 97.3854 192.417 97.4224 192.417 91.3279C192.417 87.5597 195.805 85.8242 199.709 85.8242C202.249 85.8242 206.301 86.6735 206.301 89.7401V91.6971H202.176V90.774C202.176 89.8878 200.851 89.4447 199.82 89.4447C198.163 89.4447 197.02 90.0355 197.02 91.1433C197.02 94.0991 207 93.5065 207 99.7874C207 103.334 203.869 105.55 199.783 105.55C194.628 105.55 191.975 102.188 191.975 102.188L194.184 99.1209Z" fill="#F6EFFF"/>
</svg>
