<svg width="17" height="16" viewBox="0 0 17 16" fill="none" xmlns="http://www.w3.org/2000/svg">
<g clip-path="url(#clip0_7718_32501)">
<path d="M8.87948 4C11.4061 4 13.6595 5.42 14.7595 7.66667C13.6595 9.91333 11.4061 11.3333 8.87948 11.3333C6.35281 11.3333 4.09948 9.91333 2.99948 7.66667C4.09948 5.42 6.35281 4 8.87948 4ZM8.87948 2.66667C5.54614 2.66667 2.69948 4.74 1.54614 7.66667C2.69948 10.5933 5.54614 12.6667 8.87948 12.6667C12.2128 12.6667 15.0595 10.5933 16.2128 7.66667C15.0595 4.74 12.2128 2.66667 8.87948 2.66667ZM8.87948 6C9.79948 6 10.5461 6.74667 10.5461 7.66667C10.5461 8.58667 9.79948 9.33333 8.87948 9.33333C7.95948 9.33333 7.21281 8.58667 7.21281 7.66667C7.21281 6.74667 7.95948 6 8.87948 6ZM8.87948 4.66667C7.22614 4.66667 5.87948 6.01333 5.87948 7.66667C5.87948 9.32 7.22614 10.6667 8.87948 10.6667C10.5328 10.6667 11.8795 9.32 11.8795 7.66667C11.8795 6.01333 10.5328 4.66667 8.87948 4.66667Z" fill="#00D08A"/>
</g>
<defs>
<clipPath id="clip0_7718_32501">
<rect width="16" height="16" fill="white" transform="translate(0.879395)"/>
</clipPath>
</defs>
</svg>
