<svg width="16" height="11" viewBox="0 0 16 11" fill="none" xmlns="http://www.w3.org/2000/svg">
<path d="M7.99935 2.00033C10.526 2.00033 12.7793 3.42033 13.8793 5.66699C12.7793 7.91366 10.526 9.33366 7.99935 9.33366C5.47268 9.33366 3.21935 7.91366 2.11935 5.66699C3.21935 3.42033 5.47268 2.00033 7.99935 2.00033ZM7.99935 0.666992C4.66602 0.666992 1.81935 2.74033 0.666016 5.66699C1.81935 8.59366 4.66602 10.667 7.99935 10.667C11.3327 10.667 14.1793 8.59366 15.3327 5.66699C14.1793 2.74033 11.3327 0.666992 7.99935 0.666992ZM7.99935 4.00033C8.91935 4.00033 9.66601 4.74699 9.66601 5.66699C9.66601 6.58699 8.91935 7.33366 7.99935 7.33366C7.07935 7.33366 6.33268 6.58699 6.33268 5.66699C6.33268 4.74699 7.07935 4.00033 7.99935 4.00033ZM7.99935 2.66699C6.34602 2.66699 4.99935 4.01366 4.99935 5.66699C4.99935 7.32033 6.34602 8.66699 7.99935 8.66699C9.65268 8.66699 10.9993 7.32033 10.9993 5.66699C10.9993 4.01366 9.65268 2.66699 7.99935 2.66699Z" fill="#D0CBF0"/>
</svg>
