<svg width="33" height="33" viewBox="0 0 33 33" fill="none" xmlns="http://www.w3.org/2000/svg">
<path d="M6.23127 8.02765L4.33142 9.9275L9.13455 14.7173H3.55542L0.879583 14.7173V17.3931H9.13455L4.33142 22.1828L6.23127 24.0827L14.2588 16.0552L6.23127 8.02765Z" fill="#00D08A"/>
<path d="M22.2859 8.02765C23.7576 8.02765 24.9617 9.23178 24.9617 10.7035C24.9617 12.1752 23.7576 13.3793 22.2859 13.3793C20.8142 13.3793 19.61 12.1752 19.61 10.7035C19.61 9.23178 20.8142 8.02765 22.2859 8.02765ZM22.2859 21.4069C25.8983 21.4069 30.0458 23.1328 30.3134 24.0827H14.2584C14.5661 23.1194 18.6869 21.4069 22.2859 21.4069ZM22.2859 5.35181C19.3291 5.35181 16.9342 7.74668 16.9342 10.7035C16.9342 13.6603 19.3291 16.0552 22.2859 16.0552C25.2427 16.0552 27.6376 13.6603 27.6376 10.7035C27.6376 7.74668 25.2427 5.35181 22.2859 5.35181ZM22.2859 18.731C18.7136 18.731 11.5825 20.5238 11.5825 24.0827V26.7585H32.9892V24.0827C32.9892 20.5238 25.8581 18.731 22.2859 18.731Z" fill="#00D08A"/>
</svg>
