<svg width="87" height="40" viewBox="0 0 87 40" fill="none" xmlns="http://www.w3.org/2000/svg">
<path d="M45.0028 30.7251V29.9188C44.9815 29.6954 45.0361 29.4714 45.1576 29.2838L50.0347 21.6276V21.5634H45.5588C45.3547 21.5634 45.2561 21.4635 45.2561 21.2709V20.2933C45.2561 20.1007 45.3547 20.0008 45.5588 20.0008H51.5407C51.6197 19.9915 51.6985 20.0194 51.7547 20.0764C51.8109 20.1333 51.8384 20.2132 51.8293 20.2933V21.4207C51.8342 21.6586 51.768 21.8924 51.6393 22.0914L46.9452 29.3694V29.4408H51.7096C51.8996 29.4408 51.9982 29.5335 51.9982 29.719V30.6752C51.9982 30.8892 51.8996 30.9963 51.7096 30.9963H45.2913C45.2158 31.0072 45.1394 30.983 45.0834 30.9304C45.0274 30.8777 44.9978 30.8023 45.0028 30.7251Z" fill="#2D1155"/>
<path d="M60.7315 30.9961H55.293C55.2143 31.0078 55.1346 30.9818 55.0776 30.9259C55.0207 30.87 54.9929 30.7905 55.0026 30.711V20.2929C54.9935 20.213 55.0211 20.1332 55.0776 20.0762C55.1342 20.0193 55.2135 19.9915 55.293 20.0008H60.7315C60.9086 20.0008 61.0006 20.1005 61.0006 20.2929V21.1694C61.0006 21.3618 60.9086 21.4545 60.7315 21.4545H56.858C56.7163 21.4545 56.6526 21.5115 56.6526 21.6255V24.5186C56.6526 24.6326 56.7163 24.6896 56.858 24.6896H60.1438C60.3491 24.6896 60.4483 24.7894 60.4483 24.9818V25.8512C60.4483 26.0436 60.3491 26.1433 60.1438 26.1433H56.858C56.7163 26.1433 56.6526 26.2003 56.6526 26.3143V29.3571C56.6526 29.4854 56.7163 29.5424 56.858 29.5424H60.7315C60.9086 29.5424 61.0006 29.6421 61.0006 29.8345V30.711C61.0006 30.9034 60.9086 30.9961 60.7315 30.9961Z" fill="#2D1155"/>
<path fill-rule="evenodd" clip-rule="evenodd" d="M64.3218 30.9935H65.4861C65.5754 31.0104 65.6681 30.9868 65.7349 30.9302C65.8017 30.8735 65.8342 30.791 65.8222 30.7086V26.9406C65.8222 26.8266 65.8925 26.7696 66.0488 26.7696H67.9399L69.9483 30.7014C70.0519 30.9015 70.2862 31.0169 70.5265 30.9864H71.6909C71.9879 30.9864 72.0738 30.8724 71.9332 30.6445L69.8545 26.6485V26.5773C71.0309 26.2561 71.7829 25.2099 71.6362 24.0986V22.674C71.683 21.9508 71.4003 21.2421 70.8548 20.7152C70.2748 20.2209 69.4986 19.9637 68.7057 20.0029H64.3218C64.2341 19.9937 64.1466 20.0215 64.0841 20.0784C64.0217 20.1353 63.9912 20.2151 64.0014 20.295V30.7086C63.9907 30.788 64.0213 30.8675 64.0841 30.9234C64.147 30.9793 64.2349 31.0052 64.3218 30.9935ZM68.3534 25.4089H66.0246C65.8918 25.4089 65.8215 25.3519 65.8058 25.2522V21.6409C65.8058 21.527 65.8762 21.47 66.009 21.47H68.3534C68.736 21.4222 69.1211 21.5403 69.3942 21.7892C69.6673 22.0381 69.7968 22.3891 69.7444 22.7378V24.1624C69.7921 24.5084 69.66 24.8549 69.3872 25.0993C69.1144 25.3438 68.7321 25.4583 68.3534 25.4089Z" fill="#2D1155"/>
<path fill-rule="evenodd" clip-rule="evenodd" d="M76.6457 30.9855H78.3373H78.3655C79.0789 31.0569 79.7866 30.8025 80.2943 30.2922C80.8019 29.7818 81.0562 29.0692 80.9873 28.3498V22.6664C81.0262 21.9456 80.7716 21.24 80.2825 20.7127C79.7594 20.2243 79.0636 19.9683 78.3514 20.0023H76.6598C75.9432 19.9669 75.2424 20.2228 74.7146 20.7127C74.2254 21.24 73.9709 21.9456 74.0098 22.6664V28.3498C73.9402 29.0719 74.1963 29.7873 74.7073 30.2982C75.2182 30.8091 75.93 31.0615 76.6457 30.9855ZM78.1341 29.5652H76.9288L76.9006 29.5368C76.5652 29.5711 76.2328 29.4475 76 29.2017C75.7671 28.9559 75.6599 28.6155 75.7095 28.2793V22.7379C75.6683 22.4003 75.7832 22.0623 76.0211 21.8211C76.259 21.5799 76.5937 21.4621 76.9288 21.5018H78.1341C78.4744 21.4596 78.8146 21.581 79.0528 21.8295C79.2911 22.0781 79.3997 22.4249 79.3463 22.7663V28.3077C79.4003 28.6486 79.2916 28.9952 79.0529 29.2428C78.8142 29.4903 78.4736 29.6098 78.1341 29.5652Z" fill="#2D1155"/>
<path fill-rule="evenodd" clip-rule="evenodd" d="M46.1891 15.9978H47.8357C47.9235 15.9978 47.9707 15.9563 47.9842 15.8731V15.4783C47.9886 15.4404 47.9758 15.4025 47.9495 15.3754C47.9232 15.3484 47.8862 15.3353 47.8492 15.3398H46.3106C46.1568 15.3605 46.0023 15.3067 45.8925 15.194C45.7828 15.0814 45.7303 14.9228 45.7505 14.7649V14.4324C45.7505 14.3562 45.7775 14.3562 45.8382 14.3562H47.8627C47.9572 14.3562 47.9977 14.3077 47.9977 14.2108V13.2203C48.0187 12.8892 47.9065 12.5637 47.6873 12.3198C47.447 12.1002 47.1312 11.988 46.81 12.0082H46.1891C45.8654 11.9673 45.5413 12.0817 45.3106 12.3185C45.0799 12.5553 44.9683 12.8879 45.0082 13.2203V14.7857C44.9884 15.1112 45.0979 15.4311 45.3119 15.6723C45.5484 15.8998 45.8656 16.0175 46.1891 15.9978ZM47.158 13.8225H45.8218C45.7963 13.8367 45.7651 13.8344 45.7419 13.8165C45.7186 13.7986 45.7077 13.7685 45.7139 13.7394V13.2407C45.7074 13.0846 45.7526 12.9308 45.8421 12.8043C45.9612 12.7043 46.1141 12.657 46.2672 12.6727H46.6856C46.8365 12.6581 46.987 12.7054 47.104 12.8043C47.1989 12.928 47.2447 13.0838 47.2322 13.2407V13.7394C47.2322 13.8225 47.2052 13.8225 47.158 13.8225Z" fill="#703CBB"/>
<path d="M50.6114 15.998H50.1266C50.0909 16.0003 50.0559 15.9862 50.0313 15.9594C50.0066 15.9327 49.9947 15.8961 49.9987 15.8594V12.1381C49.9943 12.1019 50.0063 12.0657 50.0313 12.04C50.0564 12.0142 50.0915 12.0018 50.1266 12.0064H50.6114C50.6465 12.0018 50.6817 12.0142 50.7068 12.04C50.7318 12.0657 50.7438 12.1019 50.7394 12.1381V12.4222C50.8844 12.1309 51.1915 11.9645 51.507 12.0064H51.8436C52.1581 11.9855 52.4672 12.0982 52.6988 12.3182C52.9099 12.5661 53.0165 12.8903 52.995 13.2191V15.8594C52.9999 15.8988 52.9863 15.9382 52.9584 15.9655C52.9305 15.9929 52.8916 16.0049 52.8536 15.998H52.3756C52.288 15.998 52.2476 15.9495 52.2476 15.8594V13.2469C52.2702 13.0896 52.2196 12.9305 52.111 12.8175C52.0025 12.7044 51.8486 12.6504 51.6955 12.6717H51.3319C50.9212 12.6717 50.7124 12.8934 50.7124 13.3647V15.8871C50.7071 15.9434 50.6656 15.9889 50.6114 15.998Z" fill="#703CBB"/>
<path fill-rule="evenodd" clip-rule="evenodd" d="M55.1866 15.9979H56.8305C56.9248 15.9979 56.972 15.9563 56.972 15.8731V15.4781C56.9769 15.4388 56.9632 15.3994 56.9353 15.372C56.9074 15.3447 56.8685 15.3326 56.8305 15.3395H55.3146C55.1614 15.3608 55.0074 15.3068 54.8988 15.1937C54.7902 15.0807 54.7396 14.9216 54.7621 14.7643V14.4317C54.7621 14.3555 54.7891 14.3555 54.843 14.3555H56.8642C56.9024 14.3605 56.9407 14.3465 56.9673 14.3178C56.9939 14.289 57.0057 14.249 56.9989 14.21V13.219C57.0199 12.8877 56.9078 12.5621 56.689 12.3181C56.4491 12.0983 56.1338 11.986 55.8132 12.0062H55.1866C54.8646 11.9708 54.5442 12.0872 54.3152 12.3227C54.0862 12.5583 53.9731 12.8878 54.0075 13.219V14.7851C53.9863 15.1123 54.0986 15.4337 54.3175 15.6722C54.5511 15.8994 54.8656 16.0173 55.1866 15.9979ZM56.1547 13.8219H54.8207C54.7736 13.8219 54.7466 13.7942 54.7197 13.7388V13.2398C54.7072 13.0829 54.753 12.9269 54.8477 12.8032C54.9642 12.7036 55.1146 12.6562 55.2654 12.6715H55.6831C55.8339 12.6562 55.9843 12.7036 56.1008 12.8032C56.198 12.9259 56.2461 13.082 56.2356 13.2398V13.7388C56.2377 13.7614 56.2299 13.7838 56.2142 13.7999C56.1986 13.816 56.1767 13.8241 56.1547 13.8219Z" fill="#703CBB"/>
<path d="M59.609 15.9999H59.1335C59.044 15.9999 59.0026 15.9513 59.0026 15.8611V12.1328C58.9981 12.0966 59.0104 12.0604 59.036 12.0346C59.0616 12.0088 59.0976 11.9964 59.1335 12.0009H59.6227C59.6587 11.9964 59.6947 12.0088 59.7203 12.0346C59.7459 12.0604 59.7582 12.0966 59.7537 12.1328V12.4314H59.7881C59.8441 12.2932 59.95 12.1816 60.0844 12.119C60.237 12.0376 60.4078 11.997 60.5805 12.0009H60.8698C60.9058 11.9964 60.9418 12.0088 60.9674 12.0346C60.993 12.0604 61.0053 12.0966 61.0007 12.1328V12.5425C61.0007 12.6397 60.9594 12.6813 60.8698 12.6674H60.4013C59.9741 12.6674 59.7537 12.9035 59.7537 13.3617V15.8402C59.7399 15.9513 59.6985 15.9999 59.609 15.9999Z" fill="#703CBB"/>
<path fill-rule="evenodd" clip-rule="evenodd" d="M63.1244 16.3465H63.465C63.793 16.4289 64.1276 16.2455 64.2865 15.8963V16.5755C64.3112 16.756 64.2621 16.9397 64.1541 17.0706C64.0461 17.2014 63.892 17.2639 63.7388 17.239H62.4031C62.3163 17.239 62.2696 17.2864 62.2696 17.3891V17.8551C62.2696 17.9499 62.3163 17.9973 62.4031 17.9973H63.819C64.1361 18.0205 64.4474 17.8892 64.6805 17.6339C64.9118 17.3498 65.0264 16.9602 64.9944 16.5676V12.1525C64.9944 12.0498 64.9477 12.0024 64.8608 12.0024H63.1712C62.8554 11.9806 62.5454 12.1085 62.3096 12.3578C62.0927 12.6359 61.9817 13.007 62.0024 13.3846V14.9643C61.9815 15.3377 62.0845 15.7061 62.2896 15.9911C62.5139 16.2418 62.8164 16.3706 63.1244 16.3465ZM64.2521 12.8939V14.829C64.2856 15.0353 64.2335 15.2482 64.1118 15.4014C63.9902 15.5546 63.8139 15.6296 63.6376 15.603H63.2703C63.12 15.6253 62.9696 15.5624 62.8644 15.4334C62.7593 15.3044 62.7117 15.1243 62.736 14.9475V13.4626C62.7117 13.2857 62.7593 13.1056 62.8644 12.9766C62.9696 12.8476 63.12 12.7848 63.2703 12.807H64.1719C64.2521 12.807 64.2521 12.8307 64.2521 12.8939Z" fill="#703CBB"/>
<path d="M66.9469 17.996H66.4473C66.4009 18.0011 66.3546 17.9861 66.3215 17.9553C66.2885 17.9245 66.2725 17.8813 66.278 17.838V17.3878C66.2695 17.3433 66.2842 17.2976 66.3177 17.2649C66.3511 17.2321 66.3992 17.2162 66.4473 17.2219H66.6675C66.9551 17.2506 67.2435 17.1741 67.4719 17.0086C67.6605 16.8081 67.7916 16.5662 67.853 16.3056H67.4634C67.3678 16.307 67.2853 16.2434 67.2687 16.1556L65.9985 12.1509C65.9985 12.0482 65.9985 12.0008 66.1171 12.0008H66.7606C66.8558 11.9962 66.938 12.0624 66.9469 12.1509L67.9969 15.65L69.0384 12.1509C69.0427 12.1068 69.0657 12.0662 69.1023 12.038C69.1389 12.0098 69.186 11.9964 69.2332 12.0008H69.8429C69.9614 12.0008 70.0122 12.0561 69.9953 12.1588L68.6828 16.4478C68.5951 16.8743 68.3942 17.2735 68.0985 17.6089C67.7912 17.885 67.3723 18.0257 66.9469 17.996Z" fill="#703CBB"/>
<path d="M74.6752 15.9973H74.0369C73.9591 15.9951 73.8937 15.937 73.8808 15.8586L72.998 12.1334C72.998 12.0432 72.998 12.0016 73.0931 12.0016H73.6431C73.6813 11.9956 73.7202 12.0066 73.7501 12.0318C73.7799 12.0569 73.7978 12.0939 73.7993 12.1334L74.3561 15.0955H74.4104L75.0894 12.1334C75.0892 12.0959 75.1046 12.0601 75.1318 12.0349C75.1591 12.0098 75.1955 11.9976 75.232 12.0016H75.7412C75.819 11.9972 75.8869 12.0546 75.8974 12.1334L76.5764 15.0955H76.6307L77.1943 12.1334C77.196 12.0953 77.213 12.0596 77.2412 12.0346C77.2695 12.0097 77.3065 11.9977 77.3437 12.0016H77.9005C77.982 12.0016 78.0159 12.0432 77.9888 12.1334L77.106 15.8586C77.1043 15.8972 77.0875 15.9336 77.0595 15.9596C77.0315 15.9856 76.9945 15.9992 76.9567 15.9973H76.2777C76.1988 15.998 76.1318 15.9385 76.1215 15.8586L75.5104 12.952H75.4561L74.8517 15.8586C74.8486 15.9019 74.8275 15.9418 74.7938 15.9683C74.7601 15.9948 74.717 16.0053 74.6752 15.9973Z" fill="#703CBB"/>
<path fill-rule="evenodd" clip-rule="evenodd" d="M80.1836 15.9953H81.8276C81.9219 15.9953 81.9758 15.9537 81.9893 15.8706V15.4759C81.9941 15.4366 81.9805 15.3972 81.9526 15.3698C81.9247 15.3425 81.8858 15.3304 81.8478 15.3374H80.3117C80.1585 15.3587 80.0045 15.3047 79.8959 15.1917C79.7873 15.0787 79.7366 14.9197 79.7592 14.7626V14.4301C79.7592 14.354 79.7861 14.354 79.84 14.354H81.8613C81.8995 14.359 81.9378 14.345 81.9644 14.3163C81.991 14.2876 82.0027 14.2476 81.996 14.2085V13.2182C82.0169 12.8871 81.9049 12.5617 81.6861 12.3179C81.4462 12.0982 81.1309 11.9861 80.8102 12.0062H80.1836C79.8616 11.9709 79.5413 12.0871 79.3123 12.3225C79.0833 12.5579 78.9702 12.8872 79.0046 13.2182V14.7833C78.9753 15.1131 79.09 15.4392 79.3178 15.6734C79.5456 15.9075 79.8628 16.0255 80.1836 15.9953ZM81.1521 13.8206H79.8181C79.7709 13.8206 79.744 13.7929 79.717 13.7375V13.2389C79.7046 13.0821 79.7503 12.9262 79.845 12.8026C79.9619 12.7037 80.112 12.6564 80.2627 12.671H80.6804C80.8314 12.654 80.9824 12.7016 81.0982 12.8026C81.1953 12.9252 81.2435 13.0812 81.2329 13.2389V13.7375C81.235 13.7602 81.2272 13.7826 81.2115 13.7987C81.1959 13.8148 81.1741 13.8228 81.1521 13.8206Z" fill="#703CBB"/>
<path fill-rule="evenodd" clip-rule="evenodd" d="M84.0011 10.1445V15.8469C84.0011 15.9451 84.041 15.9979 84.1075 15.9979H85.8287C86.1471 16.0176 86.4589 15.8895 86.6926 15.6429C86.9057 15.3812 87.0161 15.0322 86.9983 14.6762V12.9239C87.0161 12.5679 86.9057 12.219 86.6926 11.9572C86.4578 11.7134 86.1462 11.5881 85.8287 11.6098H85.4964C85.1839 11.5677 84.8815 11.7517 84.7388 12.0705V10.1445C84.7432 10.1051 84.7313 10.0657 84.7066 10.0376C84.6819 10.0095 84.6472 9.99603 84.6125 10.001H84.1274C84.0928 9.99603 84.058 10.0095 84.0333 10.0376C84.0086 10.0657 83.9968 10.1051 84.0011 10.1445ZM85.7424 15.2732H84.812C84.7742 15.2792 84.738 15.2538 84.7256 15.2128V13.0904C84.6867 12.8894 84.737 12.6794 84.8604 12.5286C84.9838 12.3778 85.1644 12.3055 85.3437 12.3352H85.7424C86.1013 12.3352 86.2807 12.5466 86.2807 12.9696V14.6388C86.2807 15.0617 86.1013 15.2732 85.7424 15.2732Z" fill="#703CBB"/>
<path fill-rule="evenodd" clip-rule="evenodd" d="M19.9997 0C8.95415 0 0 8.95415 0 19.9997C0 31.0452 8.95415 39.9993 19.9997 39.9993C31.0452 39.9993 39.9993 31.0452 39.9993 19.9997C39.9993 14.6954 37.8922 9.60843 34.1415 5.85776C30.3909 2.1071 25.3039 0 19.9997 0ZM19.0358 29.7839C17.9545 30.5571 16.6614 30.9786 15.3322 30.9913C13.0285 30.9913 10.8878 29.7321 9.31745 27.4358C7.87623 25.2287 7.07851 22.6637 7.01378 20.0286C7.00637 19.9257 7.06626 19.8299 7.16193 19.7915L8.72486 19.0878C8.80124 19.059 8.88686 19.069 8.95457 19.1146C9.02227 19.1602 9.06366 19.2358 9.0656 19.3175C9.01124 21.7695 9.69233 24.1817 11.0211 26.2433C12.1989 27.9618 13.7322 28.9025 15.3322 28.9025C16.2034 28.8957 17.0534 28.6329 17.7766 28.1469C17.8814 28.0733 18.0257 28.0963 18.1025 28.1988C18.4088 28.6203 18.7455 29.0189 19.1099 29.3914C19.1652 29.4484 19.1893 29.5288 19.1746 29.6069C19.1599 29.6849 19.1081 29.751 19.0358 29.7839ZM24.5998 30.9627C26.9109 30.9627 29.0368 29.7035 30.6146 27.4072C32.1638 25.006 32.9632 22.1979 32.9108 19.3407C32.9625 16.4712 32.1551 13.6517 30.5923 11.2445C30.2669 10.773 29.9027 10.3295 29.5035 9.91864C29.433 9.84374 29.3223 9.8228 29.2294 9.86678L27.6739 10.5705C27.598 10.6048 27.5448 10.6755 27.5328 10.758C27.5208 10.8404 27.5516 10.9233 27.6146 10.9779C28.1005 11.3989 28.5289 11.8821 28.8887 12.4149C30.251 14.4658 30.9658 16.8787 30.9405 19.3407C30.9922 21.7935 30.3085 24.2056 28.9776 26.2665C27.7998 27.985 26.2665 28.9257 24.6665 28.9257C23.0665 28.9257 21.5406 27.985 20.3555 26.2665C19.03 24.2035 18.3492 21.7923 18.4 19.3407C18.4 17.9333 19.0962 16.3778 20.0222 16.3778C20.9481 16.3778 21.6443 17.9481 21.6443 19.3407C21.6622 21.1818 21.2938 23.0062 20.5629 24.6962C20.5297 24.7639 20.5297 24.8432 20.5629 24.911C20.7182 25.2052 20.8913 25.4897 21.0814 25.7628C21.2454 26.0028 21.4235 26.2328 21.6147 26.4517C21.6674 26.5124 21.7465 26.5434 21.8264 26.5345C21.9063 26.5256 21.9767 26.478 22.0147 26.4072C23.1483 24.2257 23.7282 21.799 23.7036 19.3407C23.7036 16.5482 22.0814 14.326 19.9999 14.326C17.9185 14.326 16.2963 16.5259 16.2963 19.3407C16.2444 22.1978 17.0437 25.0058 18.5925 27.4072C20.1555 29.7035 22.2888 30.9627 24.5998 30.9627Z" fill="#703CBB"/>
<path d="M79.9992 20.999L74.9993 29.9989" stroke="#2D1155" stroke-width="2"/>
</svg>
